/* XPM */
static char *result[] = {
/* columns rows colors chars-per-pixel */
"48 48 3 1 ",
"  c #151327",
". c #520D1B",
"X c #822437",
/* pixels */
"                                                ",
"                                                ",
"                                                ",
"                                                ",
"                                                ",
"          .............                         ",
"         ..XXXXXXXXXXX..                        ",
"         .XXXXXXXXXXXXX.                        ",
"         XXXXXXXXXXXXXXX                        ",
"         XXXXXXXXXXXXXXX                        ",
"         .XXXXXXXXXXXXX.                        ",
"          .XXXXXXXXXXX.                         ",
"                                                ",
"                                                ",
"                                                ",
"                                                ",
"                                                ",
"                                                ",
"                                                ",
"                                  ............. ",
"                                 ..XXXXXXXXXXX..",
"                                 .XXXXXXXXXXXXX.",
"                                 XXXXXXXXXXXXXXX",
"                                 XXXXXXXXXXXXXXX",
"                                 .XXXXXXXXXXXXX.",
"                                  .XXXXXXXXXXX. ",
"    .............                               ",
"   ..XXXXXXXXXXX..                              ",
"   .XXXXXXXXXXXXX.                              ",
"   XXXXXXXXXXXXXXX                              ",
"   XXXXXXXXXXXXXXX                              ",
"   .XXXXXXXXXXXXX.                              ",
"    .XXXXXXXXXXX.                               ",
"                                                ",
"                                                ",
"                                                ",
"                                                ",
"                                                ",
"                                                ",
"                                                ",
"                                                ",
"                                                ",
"                                                ",
"                                                ",
"                                                ",
"                                                ",
"                                                ",
"                                                "
};
