/* XPM */
static char *result[] = {
/* columns rows colors chars-per-pixel */
"48 48 199 2 ",
"   c #151327",
".  c #151328",
"X  c #161328",
"o  c #161428",
"O  c #161429",
"+  c #17142A",
"@  c #16152A",
"#  c #17152A",
"$  c #16152B",
"%  c #17152B",
"&  c #17162D",
"*  c #17162E",
"=  c #18152B",
"-  c #18162D",
";  c #18172F",
":  c #181730",
">  c #191730",
",  c #1B1830",
"<  c #1B1831",
"1  c #1B1931",
"2  c #191832",
"3  c #191833",
"4  c #1B1832",
"5  c #1A1833",
"6  c #1C1A33",
"7  c #1A1934",
"8  c #1B1A34",
"9  c #1D1B34",
"0  c #1C1A35",
"q  c #1D1A35",
"w  c #1D1B35",
"e  c #1D1C34",
"r  c #1E1B38",
"t  c #1C1C39",
"y  c #1D1C39",
"u  c #1D1D3D",
"i  c #1E1D3D",
"p  c #1E1E3F",
"a  c #201D3B",
"s  c #201E3C",
"d  c #23213E",
"f  c #23223E",
"g  c #1E1F42",
"h  c #1F1F42",
"j  c #231F42",
"k  c #202140",
"l  c #202145",
"z  c #222345",
"x  c #212147",
"c  c #232347",
"v  c #252144",
"b  c #212249",
"n  c #242448",
"m  c #26264A",
"M  c #25254C",
"N  c #24264C",
"B  c #24264D",
"V  c #24274D",
"C  c #26264C",
"Z  c #24254E",
"A  c #24254F",
"S  c #26274E",
"D  c #27274F",
"F  c #29254A",
"G  c #29254E",
"H  c #29254F",
"J  c #232948",
"K  c #262C4C",
"L  c #272D4C",
"P  c #29284D",
"I  c #272750",
"U  c #262751",
"Y  c #242652",
"T  c #252752",
"R  c #262754",
"E  c #2B2551",
"W  c #2A2651",
"Q  c #292752",
"!  c #2B2752",
"~  c #2C2752",
"^  c #262952",
"/  c #262853",
"(  c #262953",
")  c #272A52",
"_  c #272854",
"`  c #282B53",
"'  c #2C2953",
"]  c #282854",
"[  c #292956",
"{  c #282B56",
"}  c #282B57",
"|  c #282C54",
" . c #282C55",
".. c #292D57",
"X. c #282958",
"o. c #2E2959",
"O. c #2D2A58",
"+. c #2E2A59",
"@. c #2D2B5A",
"#. c #282C59",
"$. c #292B5D",
"%. c #2F2B5C",
"&. c #2A2C5D",
"*. c #2A3352",
"=. c #2B305B",
"-. c #2A305E",
";. c #2D375F",
":. c #2F365F",
">. c #323057",
",. c #33325A",
"<. c #2A2D62",
"1. c #312D60",
"2. c #312D61",
"3. c #312E61",
"4. c #322E62",
"5. c #322F62",
"6. c #342E63",
"7. c #2D3061",
"8. c #2D3262",
"9. c #2F3661",
"0. c #2C3463",
"q. c #2C3665",
"w. c #2C3566",
"e. c #2C3766",
"r. c #2D3A61",
"t. c #2D3867",
"y. c #2F3B6B",
"u. c #2E3A6C",
"i. c #313D65",
"p. c #333F67",
"a. c #36316A",
"s. c #37366C",
"d. c #3A3E6A",
"f. c #303F74",
"g. c #3C3970",
"h. c #383F70",
"j. c #403C75",
"k. c #443F7F",
"l. c #314168",
"z. c #334369",
"x. c #31416B",
"c. c #374770",
"v. c #3E4272",
"b. c #364973",
"n. c #394B75",
"m. c #3E4976",
"M. c #394E74",
"N. c #394D78",
"B. c #404874",
"V. c #424378",
"C. c #42437B",
"Z. c #444E7A",
"A. c #444F7A",
"S. c #443D82",
"D. c #3F5781",
"F. c #3F5782",
"G. c #39558A",
"H. c #3E6098",
"J. c #4A4786",
"K. c #4B468B",
"L. c #4C488B",
"P. c #4F4D94",
"I. c #534F95",
"U. c #455E91",
"Y. c #535692",
"T. c #535195",
"R. c #545196",
"E. c #545397",
"W. c #535B94",
"Q. c #595E98",
"!. c #5C5E9E",
"~. c #42689F",
"^. c #5B60A5",
"/. c #5A6DA1",
"(. c #5A6EA1",
"). c #4670AA",
"_. c #5B70A3",
"`. c #5C70A5",
"'. c #4B7DB3",
"]. c #6063A3",
"[. c #6268AD",
"{. c #6568AD",
"}. c #666DAD",
"|. c #6074A9",
" X c #656BB1",
".X c #6A70B4",
"XX c #6B7FB2",
"oX c #6872B8",
"OX c #707CBF",
"+X c #707CC0",
"@X c #5281B9",
"#X c #6E81B4",
"$X c #7284B6",
"%X c #7486B7",
"&X c #5789C2",
"*X c #5A97CE",
"=X c #7282C6",
"-X c #7385CA",
";X c #7790D5",
/* pixels */
"                                                                                                ",
"                                                                                                ",
"                                                                                                ",
"                                                                                                ",
"                                                                                                ",
"                                                                                                ",
"                                                                                                ",
"                                                                                                ",
"                                                                                                ",
"                                                                                                ",
"                                                                                                ",
"                                                                                                ",
"                                  X 1 9 e w w w w w 9 e 6 #                                     ",
"                                  q C.#X$X|._.(./.`.XX%XW.v .                                   ",
"                                  f ].+X}.v.:.N.F.m.Q.OX.X,.                                    ",
"                                  d !. XY.7.f.'.*XU.V.[.{.>.                                    ",
"                                  a j.R.L.a.3.9.h.s.k.I.J.F O                                   ",
"                                  i Q 5.2.%.+.8.@.o.1.4.O.c @                                   ",
"                                  & h x $.&.} H.0.[ <.Z l 5 .                                   ",
"                                      O h $.#.&Xy.X.Y *                                         ",
"                                        7 R #.~.w._ g O                                         ",
"                                        $ b } e.#.T 3                                           ",
"                                        O z =.C ..` ;                                           ",
"                                          *.D.] c.M.+                                           ",
"                                        X J x.C ;.r.#                                           ",
"                                          > N m / y .                                           ",
"                                          2 M | I u                                             ",
"                                          - B G.-.0                                             ",
"                                          = V @Xt.<                                             ",
"                                          = V ).q.,                                             ",
"                                          : B u.{ t                                             ",
"                                          8 ) S  .k X                                           ",
"                                          L n.D p.z.+                                           ",
"                                        X K b.D i.l.=                                           ",
"                                        7 A ( n ^ U p O                                         ",
"                                      X s d.Z.Z.A.B.P %                                         ",
"                                      # ' ^.=X;X-XoXg.4                                         ",
"                                      + G S.T.P.E.K.6.<                                         ",
"                                      o r H ~ E ! W j %                                         ",
"                                        o # # # # # O                                           ",
"                                                                                                ",
"                                                                                                ",
"                                                                                                ",
"                                                                                                ",
"                                                                                                ",
"                                                                                                ",
"                                                                                                ",
"                                                                                                "
};
