/* XPM */
static char *c9bd3e714ff645e1bc8b9ee5933ed869kGpjbubwKtEN3IvZ[] = {
/* columns rows colors chars-per-pixel */
"50 52 100 2 ",
"   c #080605",
".  c #0A0807",
"X  c #0D0A09",
"o  c #110E0C",
"O  c #14100F",
"+  c #161311",
"@  c #1A1513",
"#  c #1E1916",
"$  c #1F1B18",
"%  c #201916",
"&  c #231D19",
"*  c #26201C",
"=  c #29221E",
"-  c #2D2621",
";  c #2F2824",
":  c #302721",
">  c #342A25",
",  c #382D27",
"<  c #362E29",
"1  c #3A2F28",
"2  c #3C312A",
"3  c #43362F",
"4  c #433731",
"5  c #453932",
"6  c #4B3D34",
"7  c #4C3F39",
"8  c #503F37",
"9  c #4D4037",
"0  c #4C4139",
"q  c #514037",
"w  c #534239",
"e  c #59463D",
"r  c #5B483E",
"t  c #524640",
"y  c #5D4C42",
"u  c #5F5046",
"i  c #604D43",
"p  c #625146",
"a  c #605049",
"s  c #635348",
"d  c #625349",
"f  c #635349",
"g  c #63534B",
"h  c #625449",
"j  c #65544A",
"k  c #66554B",
"l  c #67564B",
"z  c #65544D",
"x  c #67574D",
"c  c #66554E",
"v  c #66564E",
"b  c #69564C",
"n  c #68574C",
"m  c #69584D",
"M  c #68584E",
"N  c #6B594E",
"B  c #6A5A4F",
"V  c #6C5B4F",
"C  c #6A5950",
"Z  c #6C5D51",
"A  c #6D5D51",
"S  c #6E5C53",
"D  c #6E5E52",
"F  c #6F5E52",
"G  c #6F5D54",
"H  c #705F53",
"J  c #705D55",
"K  c #715E55",
"L  c #715F56",
"P  c #725F56",
"I  c #716053",
"U  c #706054",
"Y  c #716155",
"T  c #736155",
"R  c #736255",
"E  c #736057",
"W  c #746255",
"Q  c #746356",
"!  c #756356",
"~  c #756457",
"^  c #766457",
"/  c #72645A",
"(  c #776558",
")  c #766659",
"_  c #79665A",
"`  c #7B695C",
"'  c #78685E",
"]  c #7C695C",
"[  c #7D6A5D",
"{  c #7D6C5E",
"}  c #7F6D60",
"|  c #7C6D63",
" . c #806D5F",
".. c #816F61",
"X. c #847062",
"o. c #827368",
"O. c #84746A",
"+. c #85756B",
"@. c #958376",
"#. c #958477",
/* pixels */
"E E E E E E E L k 0 ; $ ; u L L L Q L u + O + $ u Z Q L L E L a - + @ ; u / E E E L u - @ O + y L L ",
"E E E E E E E y @ @ e / ; $ u L Q G u # - | #.| - t G L L L u $ $ O.#.; $ u L E L u @ # X.O.5 & p L ",
"E E E E E E g # . X = ` 2 @ $ v L c # X + - 5 5 ; # u G L u @ o o < #.w ; % h L v # . X % > 1 : & c ",
"E E E E E S 5 @ 5 9 0 * 2 > + u L u @ y b u 0 < < $ $ v S : # y u w ; 2 < + ; v 7 + 4 7 7 3 : : @ w ",
"E E E E E v $ 4 e r y # , , # = u ; @ c ) ) h # < ; @ u c $ y L m k w 2 2 - @ y # @ 8 r r 8 @ > ; X ",
"E E E L S u @ 8 r y s 5 2 2 : @ t $ < S ) ) b @ > > + y y # M / m l u % , > O 9 + 4 e r r 8 @ > >   ",
"E E L v y < o 8 r s l y = 2 < O $ + 7 L ) ' b # < < + # @ + M L m m y @ , 2 O @ o 8 e r r e 4 3 > . ",
"L v t & & > o 8 r k l u & 3 u u u u y L Q ) G 2 2 6 Z E g $ b ) I m y O 3 E E k % 8 r r r r 8 > >   ",
"3 # $ y N s % 8 e l l i = l ' ` ` ) s ~ ~ ) I 9 e Q { { L * m ) ~ N y % m ] ] H % 8 r r r r 8 = >   ",
"o > 1 5 6 8 7 e e b l s 6 y u y u p V ~ ~ ~ R s e u u u r w E ) ( b s 6 9 9 9 6 3 e r r r r 8 % ;   ",
". 6 e w e 8 e r y k l b k I U E I I ~ ( ( ( ( ~ E E U I U ~ ) ) ( b l s k y e w e e r r r r 8 @ -   ",
". 7 e y r r r r e b b b m E _ ( ~ ~ ( ( ( ( ( ( ( / ( ~ ~ ~ ) ~ E V b m l s r r r r r r r r 8 @ -   ",
". 8 r r r r r r y k b m m ( ( ( ( ( ( ( ( ( ( ( ( ( ( ( ~ ( ( ( ^ N l b l s r r r e r r r r 8 % :   ",
"X 8 r r r e r r y k b b b ( ( ( ( ( ( ( ( ( ( ( ( ( ( ( ) ~ ( ( P N l b l b i r r r r r r r 8 & :   ",
". 8 y r r r r r i b b b m Q ( ( ( ( ( ( ( ( ( ( ( ( ( ( ( ( ( ( ^ N b b b b r r r r r r r r 8 % :   ",
"X 8 r r r r r r i s b k m ( ( ( ( ( ( ( ( ( ( ( ( ( ( ( ( ( ( ( ^ N b b b b r r r r r r r r 8 % :   ",
". q r r r r r r p m m m V ~ ( ( ( ( ( ( ( ( ( ( ( ( ( ( ( ( ( ( ~ H l l b l y r r r r r r r 8 % :   ",
"X q r r r r r r p s l b m E ( ( ( ( ( ( ( ( ( ( ( ( ( ( ( ( ( ( ~ I m l l l r r r r r r r r 8 & :   ",
". q r r r r r r p k b b m ! ( ( ( ( ( ( ( ( ( ( ( ( ( ( ( ( ( ( ~ W m m b s i e r r r r r r 8 % :   ",
"X q r r r r r r p l l m V ~ ( ( ( ( ( ( ( ( ( ( ( ( ( ( ( ( ( ( _ ~ m l N k y e r r r r r r w % :   ",
"X 8 e r r r r r p k m m V W ( ( ( ( ( ( ( ( ( ( ( ( ( ( ( ( ( ( ( W m m l k r r r r r r r r 8 % :   ",
". 8 r r r r r r p k b s m ~ ~ ( ( ( ( ( ( ( ( ( ( ( ( ( ( ( ( ( _ W N m l l y r r r r r r e 8 % :   ",
"X 8 r r r r r r s m b b V W ( ( ( ( ( ( ( ( ( ( ( ( ( ( ( ( ( ( _ E b N l l y r r r e r r r q % :   ",
"X 8 r r r r r r p k m m m W ( ( ( ( ( ( ( ( ( ( ( ( ( ( ( ( ( ( _ ~ m b l k r r r r r r r r q % :   ",
"X 8 r r r r r r i l m l m ~ ( ( ( ( ( ( ( ( ( ( ( ( ( ( ( ( ( ( ~ ~ m m l k y r r r r r r r 8 % :   ",
"X 8 r r r r r r y x l m m ~ ( ( ( ( ( ( ( ( ( ( ( ( ( ( ( ( ( ( _ W m m l b r r r r r r r r 8 % :   ",
". 8 e r r r r r y h x x m ~ ( ~ ( ( ( ( ( ( ( ( ( ( ( ( ( ( ( ( ( ~ m m l k y r r r r r r r 8 % :   ",
"  7 8 8 8 w 8 8 w y k u k E ( ` ( _ ( ( ( ` ~ S U ~ ( ( ( ~ ] ( ( E m i k k y r r r r r r r 8 % :   ",
"  % @ @ @ @ @ @ # : w ; 3 S ~ [ X.X.X.X. .X._ > , ( X.X.X.X.X. .] W y : 3 r e r r i r e 8 r 6 % :   ",
". 8 i i i r i r i u = p U { X. . . . .] { X.X.~ ~ { ~ ( ( ( [ ( _ ] E H b : 3 8 r 8 8 3 > % @ + :   ",
"X 8 i i i i i y i y = p V ) ` ` _ ` _ _ ~ ] X.X.` ~ ( ( ~ ~ ( ( _ W H H L l r e r r e e r e 8 % :   ",
"X 8 s b b l m l i k k l m `  . . . . . .` _ { X.~ ` { X.X.X. .X.] E l N _ N r r i j l s j i w % :   ",
"X w b N N N N  .i i b b N  . . .........{ [ [ .._ [ ....X.......{ E C S E m y i k b N N N b w % :   ",
"X 8 b N N N N N N b b b N  . . .X...X...[ ( ` X._ ....X.....X.....( m m ( l i m V b b N N b q % :   ",
"X 8 b N N N N N b b b b b P  . .....X. .' ( ` X._ } ....X.......X.) m S W l y l N N N N b l r % :   ",
"X 8 b N N N N b b i b b b  . . ....... .` E (  .( [ { X.....X. .X.~ m k i l y m N N N N b i q % :   ",
"X 8 i b b b b b l i b b b N  .P ] ] ] _ ( ( _  ._ _ ] { X.{ ] ` ~ L m h 5 p y m b N  .b b i w % :   ",
"X 8 8 e 8 e e 8 e y s i i b W P _ ` ` ( _ _ _ ] E E ` ] ` ` ` ~ E B h w & y y y i i p b p i q % :   ",
". 3 3 : = & % = : w i 3 % 6 i N E  .X.X... .L 7 6 S {  .X.{  .E m y 3 # # y 0 9 w r q q q q 8 % :   ",
"X r i i i i i i i i , l N H  . ...X.X.X.X.X.....( { ' ` ( ` ` ~ ( I S x y w * @ @ % O @ @ @ % @ :   ",
". e r r r i i i i 8 % s A N L _ ] ] ` ` _ _ ..X.[ _ ( ' E _ _ _  .i b N  .i r q 8 8 w q r i r % :   ",
"X w i i b b b i y e > i b b H [ ......{ _ _ ...._ _ ......{ X.{  . .i  . .b r r r r i r r i r % :   ",
"X w b b N N N N k r e b m E E ..o........._ _ .._ [ ............ .i b N b i r i k b b b b i 8 % :   ",
". 8 i i  .N N N b e r l m E _ ............_ _ .._ ....X.....X... .b b i  .r r b b b b N b b 8 % :   ",
"X w b b b N N N N r r l N W (  .........] _ ` ..` ......X....... . .r i b r r b N N N N b b q % :   ",
"X w b b N N N N N y r s m W _ { ........_ _ _ .._ ` ........X... .b i  . .i r N N N N N N b r % :   ",
"X w b  .N N N N m r r r m W E ] ........` E _ .._ ` ....X...X. . . .i  .! r r b N N b b b r q % :   ",
"X w r r b N N b l y r y l ~ E E [ ......_ _ _ .._ _ .... .X.X. .i b i i ! i r i b N b b b r q % :   ",
"X q r i i b b i i r r r b b N N E  ._ _ ( ( _  ._ _ _ _ _ _ ( E i b b b P i 8 i i r i r i r 8 % = X ",
"X q r r i r r i r r r r i b V b P P ( _ ( ( _  .W ! W _ ( ( ( W N b b b i i r r r i r r i 8 8 @ X % ",
"X 3 8 q w q q q w 8 w q w i i i b b V N V b P P s b b V m m V m i i i r 3 8 8 8 8 8 8 8 8 8 6 X @ i ",
"  X X X X X X X X X X X X o X X o o o o o o o o o o O o O o o o O o o X X X X X X X X X X X X X i P "
};
