/* XPM */
static char *result[] = {
/* columns rows colors chars-per-pixel */
"50 50 196 2 ",
"   c #24213F",
".  c #242140",
"X  c #252242",
"o  c #252243",
"O  c #252244",
"+  c #262344",
"@  c #252346",
"#  c #242347",
"$  c #252347",
"%  c #272347",
"&  c #262444",
"*  c #252446",
"=  c #252447",
"-  c #282747",
";  c #292747",
":  c #292847",
">  c #2A2847",
",  c #252348",
"<  c #252449",
"1  c #262449",
"2  c #262649",
"3  c #24234C",
"4  c #26254C",
"5  c #27254C",
"6  c #27264C",
"7  c #27264D",
"8  c #25264F",
"9  c #26264E",
"0  c #29234B",
"q  c #292549",
"w  c #292748",
"e  c #2A264D",
"r  c #2D2B4E",
"t  c #2D2B4F",
"y  c #252550",
"u  c #252751",
"i  c #272750",
"p  c #272751",
"a  c #262453",
"s  c #282751",
"d  c #2A2651",
"f  c #2C2752",
"g  c #262851",
"h  c #272952",
"j  c #272A55",
"k  c #272A56",
"l  c #272B56",
"z  c #282852",
"x  c #282A52",
"c  c #282955",
"v  c #282A55",
"b  c #282956",
"n  c #2E2955",
"m  c #2F2B55",
"M  c #2A2E56",
"N  c #2F2F56",
"B  c #292A58",
"V  c #292A59",
"C  c #292C58",
"Z  c #282D59",
"A  c #292D59",
"S  c #2B2F59",
"D  c #292D5A",
"F  c #292B5C",
"G  c #292B5D",
"H  c #2A2C5D",
"J  c #292C5F",
"K  c #312F5C",
"L  c #2B3057",
"P  c #2B335A",
"I  c #2D3159",
"U  c #2C325B",
"Y  c #2C345B",
"T  c #2E355D",
"R  c #30375F",
"E  c #2A2D60",
"W  c #2A2D62",
"Q  c #2B2E64",
"!  c #332E60",
"~  c #362D68",
"^  c #352F68",
"/  c #382F6D",
"(  c #2E3560",
")  c #2E3962",
"_  c #2F3863",
"`  c #2F3864",
"'  c #2F3C65",
"]  c #293269",
"[  c #2C3068",
"{  c #2C3069",
"}  c #2D3869",
"|  c #2D386A",
" . c #2D396A",
".. c #2D396B",
"X. c #2F3E68",
"o. c #2E3A6E",
"O. c #2F3C6F",
"+. c #373660",
"@. c #353562",
"#. c #383760",
"$. c #39306E",
"%. c #39316F",
"&. c #323D68",
"*. c #303D6E",
"=. c #2F3E71",
"-. c #393170",
";. c #3B3375",
":. c #3C3375",
">. c #3D3477",
",. c #3E3976",
"<. c #3D3478",
"1. c #3D3579",
"2. c #3E377A",
"3. c #3F367C",
"4. c #40397C",
"5. c #41397D",
"6. c #413A7C",
"7. c #413A7D",
"8. c #423B7D",
"9. c #433B7F",
"0. c #354069",
"q. c #31416C",
"w. c #33446C",
"e. c #39466F",
"r. c #324370",
"t. c #304175",
"y. c #334774",
"u. c #394B73",
"i. c #394C76",
"p. c #394D77",
"a. c #3E547E",
"s. c #414A75",
"d. c #414C76",
"f. c #424C76",
"g. c #484C7F",
"h. c #453C87",
"j. c #354C85",
"k. c #464287",
"l. c #4A4C8B",
"z. c #415B84",
"x. c #415B85",
"c. c #53578F",
"v. c #504D91",
"b. c #56529B",
"n. c #54559D",
"m. c #59579E",
"M. c #555D9D",
"N. c #466591",
"B. c #466691",
"V. c #5C609E",
"C. c #5B5AA1",
"Z. c #5E5EA3",
"A. c #5B5FA8",
"S. c #446FAA",
"D. c #4D73A0",
"F. c #4D73A1",
"G. c #4673AD",
"H. c #4774AF",
"J. c #4978B2",
"K. c #6060A7",
"L. c #6266A7",
"P. c #6161A8",
"I. c #6162A8",
"U. c #6367A8",
"Y. c #6568AD",
"T. c #6669AE",
"R. c #646BAF",
"E. c #666FB5",
"W. c #696DB1",
"Q. c #696DB2",
"!. c #6670B7",
"~. c #6D74B6",
"^. c #637AB2",
"/. c #637BB3",
"(. c #647BB2",
"). c #647DB4",
"_. c #657DB5",
"`. c #717ABE",
"'. c #717DC1",
"]. c #5885BE",
"[. c #6B85BF",
"{. c #5C92CC",
"}. c #5596D1",
"|. c #7381C4",
" X c #7089C3",
".X c #768ACF",
"XX c #7990C7",
"oX c #778CD0",
"OX c #788DD1",
"+X c #788FD3",
"@X c #66B3EE",
"#X c #8096CB",
"$X c #8499CD",
"%X c #879BCE",
"&X c #80A1E5",
"*X c None",
/* pixels */
"*X*X*X*X*X*X*X*X*X*X*X*X*X*X*X*X*X*X*X*X*X*X*X*X*X*X*X*X*X*X*X*X*X*X*X*X*X*X*X*X*X*X*X*X*X*X*X*X*X*X",
"*X*X*X*X*X*X*X*X*X*X*X*X*X*X*X*X*X*X*X*X*X*X*X*X*X*X*X*X*X*X*X*X*X*X*X*X*X*X*X*X*X*X*X*X*X*X*X*X*X*X",
"*X*X*X*X*X*X*X*X*X*X*X*X*X*X*X*X*X*X*X*X*X*X*X*X*X*X*X*X*X*X*X*X*X*X*X*X*X*X*X*X*X*X*X*X*X*X*X*X*X*X",
"*X*X*X*X*X*X*X*X*X*X*X*X*X*X*X*X*X*X*X*X*X*X*X*X*X*X*X*X*X*X*X*X*X*X*X*X*X*X*X*X*X*X*X*X*X*X*X*X*X*X",
"*X*X*X*X*X*X*X*X*X*X*X*X*X*X*X*X*X*X*X*X*X*X*X*X*X*X*X*X*X*X*X*X*X*X*X*X*X*X*X*X*X*X*X*X*X*X*X*X*X*X",
"*X*X*X*X*X*X*X*X*X*X*X*X*X*X*X*X*X*X*X*X*X*X*X*X*X*X*X*X*X*X*X*X*X*X*X*X*X*X*X*X*X*X*X*X*X*X*X*X*X*X",
"*X*X*X*X*X*X*X*X*X*X*X*X*X*X*X*X*X*X*X*X*X*X*X*X*X*X*X*X*X*X*X*X*X*X*X*X*X*X*X*X*X*X*X*X*X*X*X*X*X*X",
"*X*X*X*X*X*X*X*X*X*X*X*X*X*X*X*X*X*X*X*X*X*X*X*X*X*X*X*X*X*X*X*X*X*X*X*X*X*X*X*X*X*X*X*X*X*X*X*X*X*X",
"*X*X*X*X*X*X*X*X*X*X*X*X*X*X*X*X*X*X*X*X*X*X*X*X*X*X*X*X*X*X*X*X*X*X*X*X*X*X*X*X*X*X*X*X*X*X*X*X*X*X",
"*X*X*X*X*X*X*X*X*X*X*X*X*X*X*X*X*X*X+ ; > - w w w w w - : : & *X*X*X*X*X*X*X*X*X*X*X*X*X*X*X*X*X*X*X",
"*X*X*X*X*X*X*X*X*X*X*X*X*X*X*X*X*X% l.XX%X X_.).(.^./.[.$X#XM.f *X*X*X*X*X*X*X*X*X*X*X*X*X*X*X*X*X*X",
"*X*X*X*X*X*X*X*X*X*X*X*X*X*X*X*X*Xr L.'.`.c.I R i.a.e.g.~.|.Q.+.*X*X*X*X*X*X*X*X*X*X*X*X*X*X*X*X*X*X",
"*X*X*X*X*X*X*X*X*X*X*X*X*X*X*X*X*Xt U.E.R.N ] j.}.@X].9 V.!.W.#.*X*X*X*X*X*X*X*X*X*X*X*X*X*X*X*X*X*X",
"*X*X*X*X*X*X*X*X*X*X*X*X*X*X*X*X*Xq v.P.I.,.z S w.p.0.^ Z.K.m.m *X*X*X*X*X*X*X*X*X*X*X*X*X*X*X*X*X*X",
"*X*X*X*X*X*X*X*X*X*X*X*X*X*X*X*X*X= n 8.7.<.%.$.d ~ / :.5.9.! @ *X*X*X*X*X*X*X*X*X*X*X*X*X*X*X*X*X*X",
"*X*X*X*X*X*X*X*X*X*X*X*X*X*X*X*X*XW p s s s 5 6 o.x 1 s s s i H *X*X*X*X*X*X*X*X*X*X*X*X*X*X*X*X*X*X",
"*X*X*X*X*X*X*X*X*X*X*X*X*X*X*X*X*X*X*X*X[ { V Z S.} z { [ *X*X*X*X*X*X*X*X*X*X*X*X*X*X*X*X*X*X*X*X*X",
"*X*X*X*X*X*X*X*X*X*X*X*X*X*X*X*X*X*X*X*X*X{ V Z {.*.p { *X*X*X*X*X*X*X*X*X*X*X*X*X*X*X*X*X*X*X*X*X*X",
"*X*X*X*X*X*X*X*X*X*X*X*X*X*X*X*X*X*X*X*X*X{ B Z J...p { *X*X*X*X*X*X*X*X*X*X*X*X*X*X*X*X*X*X*X*X*X*X",
"*X*X*X*X*X*X*X*X*X*X*X*X*X*X*X*X*X*X*X*X*X*XE v t.D F *X*X*X*X*X*X*X*X*X*X*X*X*X*X*X*X*X*X*X*X*X*X*X",
"*X*X*X*X*X*X*X*X*X*X*X*X*X*X*X*X*X*X*X*X*X*XG j h k V *X*X*X*X*X*X*X*X*X*X*X*X*X*X*X*X*X*X*X*X*X*X*X",
"*X*X*X*X*X*X*X*X*X*X*X*X*X*X*X*X*X*X*X*X*X*XU ( O M ` *X*X*X*X*X*X*X*X*X*X*X*X*X*X*X*X*X*X*X*X*X*X*X",
"*X*X*X*X*X*X*X*X*X*X*X*X*X*X*X*X*X*X*X*X*X*Xz.N.a u.D.*X*X*X*X*X*X*X*X*X*X*X*X*X*X*X*X*X*X*X*X*X*X*X",
"*X*X*X*X*X*X*X*X*X*X*X*X*X*X*X*X*X*X*X*X*X*X' q., Y y.*X*X*X*X*X*X*X*X*X*X*X*X*X*X*X*X*X*X*X*X*X*X*X",
"*X*X*X*X*X*X*X*X*X*X*X*X*X*X*X*X*X*X*X*X*X*X*Xj 2 k < *X*X*X*X*X*X*X*X*X*X*X*X*X*X*X*X*X*X*X*X*X*X*X",
"*X*X*X*X*X*X*X*X*X*X*X*X*X*X*X*X*X*X*X*X*X*X*Xz * 7 Q *X*X*X*X*X*X*X*X*X*X*X*X*X*X*X*X*X*X*X*X*X*X*X",
"*X*X*X*X*X*X*X*X*X*X*X*X*X*X*X*X*X*X*X*X*X*X*Xv O.C b *X*X*X*X*X*X*X*X*X*X*X*X*X*X*X*X*X*X*X*X*X*X*X",
"*X*X*X*X*X*X*X*X*X*X*X*X*X*X*X*X*X*X*X*X*X*X*XZ G.|   *X*X*X*X*X*X*X*X*X*X*X*X*X*X*X*X*X*X*X*X*X*X*X",
"*X*X*X*X*X*X*X*X*X*X*X*X*X*X*X*X*X*X*X*X*X*X*XZ {.*.. *X*X*X*X*X*X*X*X*X*X*X*X*X*X*X*X*X*X*X*X*X*X*X",
"*X*X*X*X*X*X*X*X*X*X*X*X*X*X*X*X*X*X*X*X*X*X*XZ H. .  *X*X*X*X*X*X*X*X*X*X*X*X*X*X*X*X*X*X*X*X*X*X*X",
"*X*X*X*X*X*X*X*X*X*X*X*X*X*X*X*X*X*X*X*X*X*X*Xv =.A c *X*X*X*X*X*X*X*X*X*X*X*X*X*X*X*X*X*X*X*X*X*X*X",
"*X*X*X*X*X*X*X*X*X*X*X*X*X*X*X*X*X*X*X*X*X*X*Xj g l 4 *X*X*X*X*X*X*X*X*X*X*X*X*X*X*X*X*X*X*X*X*X*X*X",
"*X*X*X*X*X*X*X*X*X*X*X*X*X*X*X*X*X*X*X*X*X*XT _ O L &.*X*X*X*X*X*X*X*X*X*X*X*X*X*X*X*X*X*X*X*X*X*X*X",
"*X*X*X*X*X*X*X*X*X*X*X*X*X*X*X*X*X*X*X*X*X*Xx.B.a u.F.*X*X*X*X*X*X*X*X*X*X*X*X*X*X*X*X*X*X*X*X*X*X*X",
"*X*X*X*X*X*X*X*X*X*X*X*X*X*X*X*X*X*X*X*X*X*X) X.$ P r.*X*X*X*X*X*X*X*X*X*X*X*X*X*X*X*X*X*X*X*X*X*X*X",
"*X*X*X*X*X*X*X*X*X*X*X*X*X*X*X*X*X*X*X*X*XJ y 8 # u 3 G *X*X*X*X*X*X*X*X*X*X*X*X*X*X*X*X*X*X*X*X*X*X",
"*X*X*X*X*X*X*X*X*X*X*X*X*X*X*X*X*X*X*X*X*XK s.d.s.d.f.@.*X*X*X*X*X*X*X*X*X*X*X*X*X*X*X*X*X*X*X*X*X*X",
"*X*X*X*X*X*X*X*X*X*X*X*X*X*X*X*X*X*X*X*Xo k..XoX&X+XOXn.0 *X*X*X*X*X*X*X*X*X*X*X*X*X*X*X*X*X*X*X*X*X",
"*X*X*X*X*X*X*X*X*X*X*X*X*X*X*X*X*X*X*X*X+ 3.b.T.A.Y.C.h.e *X*X*X*X*X*X*X*X*X*X*X*X*X*X*X*X*X*X*X*X*X",
"*X*X*X*X*X*X*X*X*X*X*X*X*X*X*X*X*X*X*X*X+ -.1.6.>.4.2.;.e *X*X*X*X*X*X*X*X*X*X*X*X*X*X*X*X*X*X*X*X*X",
"*X*X*X*X*X*X*X*X*X*X*X*X*X*X*X*X*X*X*X*X*Xo o X o X o o *X*X*X*X*X*X*X*X*X*X*X*X*X*X*X*X*X*X*X*X*X*X",
"*X*X*X*X*X*X*X*X*X*X*X*X*X*X*X*X*X*X*X*X*X*X*X*X*X*X*X*X*X*X*X*X*X*X*X*X*X*X*X*X*X*X*X*X*X*X*X*X*X*X",
"*X*X*X*X*X*X*X*X*X*X*X*X*X*X*X*X*X*X*X*X*X*X*X*X*X*X*X*X*X*X*X*X*X*X*X*X*X*X*X*X*X*X*X*X*X*X*X*X*X*X",
"*X*X*X*X*X*X*X*X*X*X*X*X*X*X*X*X*X*X*X*X*X*X*X*X*X*X*X*X*X*X*X*X*X*X*X*X*X*X*X*X*X*X*X*X*X*X*X*X*X*X",
"*X*X*X*X*X*X*X*X*X*X*X*X*X*X*X*X*X*X*X*X*X*X*X*X*X*X*X*X*X*X*X*X*X*X*X*X*X*X*X*X*X*X*X*X*X*X*X*X*X*X",
"*X*X*X*X*X*X*X*X*X*X*X*X*X*X*X*X*X*X*X*X*X*X*X*X*X*X*X*X*X*X*X*X*X*X*X*X*X*X*X*X*X*X*X*X*X*X*X*X*X*X",
"*X*X*X*X*X*X*X*X*X*X*X*X*X*X*X*X*X*X*X*X*X*X*X*X*X*X*X*X*X*X*X*X*X*X*X*X*X*X*X*X*X*X*X*X*X*X*X*X*X*X",
"*X*X*X*X*X*X*X*X*X*X*X*X*X*X*X*X*X*X*X*X*X*X*X*X*X*X*X*X*X*X*X*X*X*X*X*X*X*X*X*X*X*X*X*X*X*X*X*X*X*X",
"*X*X*X*X*X*X*X*X*X*X*X*X*X*X*X*X*X*X*X*X*X*X*X*X*X*X*X*X*X*X*X*X*X*X*X*X*X*X*X*X*X*X*X*X*X*X*X*X*X*X",
"*X*X*X*X*X*X*X*X*X*X*X*X*X*X*X*X*X*X*X*X*X*X*X*X*X*X*X*X*X*X*X*X*X*X*X*X*X*X*X*X*X*X*X*X*X*X*X*X*X*X"
};
