/* XPM */
static char *ebe72337a8494c52d50f1f81a97b28e4ipD5Ay8nIOk9dhXY[] = {
/* columns rows colors chars-per-pixel */
"50 50 174 2 ",
"   c None",
".  c #020201",
"X  c #0A0904",
"o  c #0D0D0B",
"O  c #090705",
"+  c #120D02",
"@  c #110F0B",
"#  c #161402",
"$  c #1C1803",
"%  c #13110B",
"&  c #19150B",
"*  c #1F180B",
"=  c #1A1006",
"-  c #1F1914",
";  c #210700",
":  c #2B0600",
">  c #221900",
",  c #241C0B",
"<  c #291F0B",
"1  c #311700",
"2  c #391C00",
"3  c #2C230B",
"4  c #34260B",
"5  c #392A0B",
"6  c #3D2400",
"7  c #3A370A",
"8  c #282014",
"9  c #29221A",
"0  c #31291E",
"q  c #392B10",
"w  c #383713",
"e  c #3A3126",
"r  c #420500",
"t  c #432B01",
"y  c #4B3400",
"u  c #4B3A08",
"i  c #503B01",
"p  c #4B3818",
"a  c #443F1F",
"s  c #523D1C",
"d  c #6E2000",
"f  c #732A00",
"g  c #703200",
"h  c #4C3B20",
"j  c #40372F",
"k  c #443C36",
"l  c #4D4203",
"z  c #5C4E03",
"x  c #514503",
"c  c #5E5B07",
"v  c #625503",
"b  c #6C5301",
"n  c #6A5D04",
"m  c #6D6202",
"M  c #6C620F",
"N  c #736405",
"B  c #796B05",
"V  c #776805",
"C  c #67611E",
"Z  c #40412A",
"A  c #514029",
"S  c #59452C",
"D  c #594A37",
"F  c #635039",
"G  c #5E554F",
"H  c #655442",
"J  c #695A48",
"K  c #6F604F",
"L  c #853100",
"P  c #8C4C00",
"I  c #8C4600",
"U  c #974E00",
"Y  c #825E00",
"T  c #A24D00",
"R  c #A85400",
"E  c #A95D00",
"W  c #B35F00",
"Q  c #817207",
"!  c #84750A",
"~  c #87780D",
"^  c #887A0F",
"/  c #997802",
"(  c #8D7E12",
")  c #A06500",
"_  c #B76A00",
"`  c #BC6F00",
"'  c #B96500",
"]  c #BD7600",
"[  c #916327",
"{  c #C46E00",
"}  c #C37700",
"|  c #CD7500",
" . c #C27900",
".. c #D27900",
"X. c #9F9801",
"o. c #8E8012",
"O. c #918214",
"+. c #9B8B1A",
"@. c #93841D",
"#. c #A1921E",
"$. c #9D9221",
"%. c #A39421",
"&. c #AC9B24",
"*. c #B09E28",
"=. c #B4A42A",
"-. c #BBAA2D",
";. c #ACA336",
":. c #BAAB30",
">. c #BCB33A",
",. c #CD8200",
"<. c #DB8B00",
"1. c #D49200",
"2. c #DE9100",
"3. c #E29300",
"4. c #E59900",
"5. c #EB9A00",
"6. c #DAA600",
"7. c #D7B700",
"8. c #E7A900",
"9. c #E8A700",
"0. c #F3AB00",
"q. c #EEBF00",
"w. c #F5BB00",
"e. c #F5B400",
"r. c #C0AF31",
"t. c #C0B233",
"y. c #CABE3E",
"u. c #C6B939",
"i. c #D5C700",
"p. c #F7C300",
"a. c #F9CE00",
"s. c #F1C900",
"d. c #EEDC00",
"f. c #FBD800",
"g. c #E6E300",
"h. c #F7E100",
"j. c #F8E500",
"k. c #FAEC00",
"l. c #FBF301",
"z. c #FFF70C",
"x. c #FEFB0A",
"c. c #FDFB23",
"v. c #FCEA38",
"b. c #FFFA34",
"n. c #A89F42",
"m. c #C7C147",
"M. c #D2C541",
"N. c #D4CB46",
"B. c #DBCC43",
"V. c #D7CD48",
"C. c #DCD34C",
"Z. c #D3D359",
"A. c #E2D84D",
"S. c #E3DD54",
"D. c #E8DD50",
"F. c #E2D65C",
"G. c #FEFD46",
"H. c #E6E156",
"J. c #EAE356",
"K. c #EBE45A",
"L. c #EBEA5F",
"P. c #F2EC5B",
"I. c #FFFD55",
"U. c #F5F565",
"Y. c #F7F768",
"T. c #F3ED71",
"R. c #FFFC7D",
"E. c #F9FA77",
"W. c #CACB87",
"Q. c #FBFC87",
"!. c #FBFC99",
"~. c #FDFEAD",
"^. c #FDFEB2",
"/. c #FEFFB8",
/* pixels */
"                                                                                                    ",
"                                                                                                    ",
"                                                                                                    ",
"                                                                                                    ",
"                                                                                                    ",
"                                                                                                    ",
"                                                                                    ^.              ",
"                                                                                W.K.%.              ",
"                                                                            . E.B.o.w               ",
"                                                                          /.!.B.B -.                ",
"                                                                      . ~.P.3 $ &.S.                ",
"                                                                    ^.~.P.Z.J.~ *.                  ",
"                                                                  /.^.P.U.C.x ( m.                  ",
"                                                                ^.^.P.U.V.C.~ =.                    ",
"                                                              /.^.P.H.N.C.N ^ .                     ",
"                                                            /.^.J.J.y.M.z B u.                      ",
"                                                          /.^.J.J.t.-.# N +.                        ",
"                                      .                 /.^.D.J.t.=.t.n B .                         ",
"                                      >               /.^.A.S.*.*.#.z ! V.                          ",
"                                    . ' )           /.^.B.S.:.%.+.z B y.                            ",
"                                b T.m 2 6         j ~.B.H.&.&.+.u ! :.                              ",
"                                    } T v.T       E.A.K.%.&.+.. ! $.                                ",
"                                  l.1.| Z : .   Q.J.L.+.&.+.M V o.O                                 ",
"                          . . [ 6.l.l.b.z.8.r !.U.7 O.#.+.#.n Q ;.                                  ",
"                                  P 9.| t w.f U.;.o.O.^ +.v V C.                                    ",
"                                  E w.3.g k.,.X O.O.B ^ z V V.                                      ",
"                                  P > g.G.R.j.] X ~ ! z n y.                                        ",
"                          .       1 s.4.2.# x.f.1.L z v >.                                          ",
"                                  y 0.p.4. .c I.z.s...y d                                           ",
"                                    ; a.w.k. .} c.I ' / Q.f.t Y                                     ",
"                                  . k R l.8.0.2.X...| / ..` W E                                     ",
"                                . J 8 * r 5.p.e.y 0.5.7...{ .                                       ",
"                              . H F < O & O 9.U _ <.,.d.l   b                                       ",
"                              K e u + , @ . .         f.    i.                                      ",
"                            G A S . 3 , @ %           /                                             ",
"                          O J . 4 4 & o o             +                                             ",
"                        0 j s h < & % % .                                                           ",
"                      . % h . 5 , & o O                                                             ",
"                      - 0 p 3 . % % O                                                               ",
"                    H 9 D , , & o O                                                                 ",
"                    . 5 3 * o . .                                                                   ",
"                  C q 3 & o @                                                                       ",
"                . F.4 & % %                                                                         ",
"                  n.@.& $                                                                           ",
"                    l m                                                                             ",
"                                                                                                    ",
"                                                                                                    ",
"                                                                                                    ",
"                                                                                                    ",
"                                                                                                    "
};
