/* XPM */
static char *result[] = {
/* columns rows colors chars-per-pixel */
"48 48 129 2 ",
"   c #151327",
".  c #161329",
"X  c #19172E",
"o  c #1A182F",
"O  c #1A1730",
"+  c #1B1932",
"@  c #1E1D39",
"#  c #201E3B",
"$  c #21203F",
"%  c #242242",
"&  c #2B2242",
"*  c #26254B",
"=  c #2B264D",
"-  c #24284C",
";  c #332341",
":  c #3B2542",
">  c #372946",
",  c #3D2B47",
"<  c #3B274B",
"1  c #36284F",
"2  c #3C284E",
"3  c #272750",
"4  c #282751",
"5  c #272953",
"6  c #292955",
"7  c #2A2C5A",
"8  c #312C5B",
"9  c #2A315D",
"0  c #2B2F63",
"q  c #332C61",
"w  c #2C3263",
"e  c #2E3C67",
"r  c #2E346B",
"t  c #2F3A6A",
"y  c #303C6C",
"u  c #2F3771",
"i  c #2F3872",
"p  c #3C3476",
"a  c #313B73",
"s  c #3F3A75",
"d  c #3E357B",
"f  c #323F79",
"g  c #422642",
"h  c #4A2743",
"j  c #442843",
"k  c #4D2944",
"l  c #422A4B",
"z  c #4B2C4C",
"x  c #562742",
"c  c #522944",
"v  c #5C2943",
"b  c #502F4B",
"n  c #4C324B",
"m  c #54314D",
"M  c #462950",
"N  c #5C3550",
"B  c #5E3853",
"V  c #642B44",
"C  c #6B2D45",
"Z  c #6F3047",
"A  c #663249",
"S  c #6C334A",
"D  c #6E394E",
"F  c #703047",
"G  c #73354B",
"H  c #7B374C",
"J  c #74394D",
"K  c #7B3A4E",
"L  c #653B53",
"P  c #773C50",
"I  c #7D3E51",
"U  c #413B77",
"Y  c #443E7C",
"T  c #334375",
"R  c #34447C",
"E  c #36497E",
"W  c #46407E",
"Q  c #4B437A",
"!  c #813D50",
"~  c #854254",
"^  c #8A4656",
"/  c #8E4958",
"(  c #924D5B",
")  c #96515E",
"_  c #364583",
"`  c #374986",
"'  c #384F84",
"]  c #394C8B",
"[  c #395087",
"{  c #3A548D",
"}  c #3C598F",
"|  c #3C5494",
" . c #3D5995",
".. c #3F5C99",
"X. c #3F6099",
"o. c #4B4583",
"O. c #544D82",
"+. c #524D97",
"@. c #534F99",
"#. c #59579F",
"$. c #41639C",
"%. c #5B5BA2",
"&. c #4265A1",
"*. c #446AA6",
"=. c #456CA9",
"-. c #4671AD",
";. c #4774B0",
":. c #4975B3",
">. c #4B7AB7",
",. c #4C7EBB",
"<. c #6061A6",
"1. c #6A66A5",
"2. c #6D69A6",
"3. c #6466AB",
"4. c #6669AD",
"5. c #6F6DA9",
"6. c #7370AB",
"7. c #696DB1",
"8. c #7C7CB4",
"9. c #827BAD",
"0. c #807FB4",
"q. c #4D81BD",
"w. c #8A85B2",
"e. c #8384B9",
"r. c #898ABB",
"t. c #A19DC1",
"y. c #A6A2C4",
"u. c #AAA6C6",
"i. c #AEAAC7",
/* pixels */
"                                                                                                ",
"                                                                                                ",
"                                                                                                ",
"                                                                                                ",
"                                                . . . .   .                                     ",
"                              . . X X $ - % * # % % * % o . . .                                 ",
"                            X + % $ 7 ' X.$._ - T ..$.[ 7 $ * @ o .                             ",
"                        . + - T T 6 w | *.*.] - R =.&.$.r 4 y T 5 + .                           ",
"                      . + e $.=.=.r 6 f ] ] f * i ] ] f 7 0 $.*.&.y @ .                         ",
"                    X % t &.&.| ..u 6 7 u u 0 * 0 i u 0 7 r  . .&.&.T % X                       ",
"                  X % 6 R | | | ` 0 * & 4 4 * % - 4 5 * * 0 _ | |  .` 6 - X .                   ",
"                  + e i 7 u ` _ r * % & ; & % % # & ; ; # * 0 _ ` i 7 t t + .                   ",
"                . * ..>.E 0 0 0 * # & x C V : $ ; v C v ; % * 7 w 7 T ;.&.6 X                   ",
"                @ t ..| &.t * - ; & : G ~ H h $ g H ! H g % ; % = w &... .T @ .                 ",
"              X % r ] ] ` w % ; x ; j ~ ) / k $ j ~ ) / c % x ; % 7 ` ] ] i - O                 ",
"              X * 7 r i r - ; x C ; h ~ ) / k $ j ~ ) / k & V v ; - r i r 7 * X                 ",
"              X % 6 6 6 * & h G C ; g ~ ) / h $ j ~ ) ( c % V F c % * 6 4 6 % +                 ",
"              O 7 f T 7 % ; A / K ; j ^ ) / k $ j ~ ( / k & F / S : % 6 a f 7 +                 ",
"            . X 9 *.>.| 6 : P ) I ; j ^ ) / k $ j ! ) ( c & H ( I , 5 ] >.-.t @                 ",
"            . O 7 ` | ..7 ; D / G & , I ( ~ g $ , I ( ~ j % A ( P : *  .| ] 9 +                 ",
"              O 7 ` ] ` 6 & , N l % = z N z ; * & z B b & % < m l & 3 ` | ` 0 O                 ",
"              O 5 u i u 4 8 U W W Y Y W o.Y Y Y W W o.o.O.O.O.o.Y 8 = r a r 7 @                 ",
"            . . $ 6 7 3 * Y <.4.4.4.4.4.4.4.4.4.4.4.8.e.t.y.t.0.3.o.* 4 6 6 % O                 ",
"            . O 3 t t w = Y 3.7.7.7.7.7.7.7.7.7.7.7.e.r.y.i.u.e.4.o.* 9 y r 5 O                 ",
"              X 9 =.,.=.9 p +.#.%.@.#.#.#.%.%.#.%.%.1.2.9.9.9.1.+.p 7 &.,.:.t O                 ",
"              O 7 ] | ] 6 7 p p U p U U p p p p p p p p p p p p p 8 4 ` | ] w O                 ",
"              O 6 ` | ` 6 % < z < = < M M l = = = < z l ; * < M 2 & 3 ` | ` 0 O                 ",
"              + 6 i i i 5 ; v C v & $ V F C : % : V F C g % v C v ; = r i i 7 @                 ",
"              X % 7 6 5 % : G ^ F ; h H ( K k $ g I / ! k & Z ~ G : % 4 6 7 * X                 ",
"              X * w w w % : P ) ! ; h ! ) / k # g ~ ) ( k % G ) ! , & 9 w w * X                 ",
"              X 9 =.q.-.7 : P ( ! ; h ^ ) / k % g ~ ) / c & G ) ~ : 3 &.q.;.e +                 ",
"              O 7 ] | ] 6 ; J ( G & l I ( ~ j $ , ! ( ~ h % A ( P : 5 ` | ] w +                 ",
"              + 7 ' | ] 6 & l A l % ; b L b ; * & z L b ; % l A z & = ` | ] w O                 ",
"              o 6 _ ] _ 6 7 s U U U U Y Y U U U U U Y Y Y o.Q Y U 8 4 _ ] ` 7 @                 ",
"              + 6 r r r 6 Y <.3.3.3.3.3.3.3.3.3.4.4.0.9.t.t.t.0.3.W 4 r r r 6 +                 ",
"              . $ - * * * Y 3.7.7.7.7.7.7.7.7.7.7.7.e.r.u.i.t.0.4.o.% * * - % X                 ",
"              o 6 E ' E = p +.%.%.%.<.%.%.%.%.<.%.%.4.6.0.w.0.5.@.d 4 a ] E 7 o                 ",
"              o 7 &.:.&.7 8 p d d d d d U d U p U U d d d U U U d q 4 $.:.=.r +                 ",
"              X 6 f R f 3 & 1 M < 4 6 2 M M 1 - 1 2 M M 1 4 1 M 1 & * a R f 7 +                 ",
"              X % 6 6 6 % ; x C v & : V C V , $ ; V C V g % x C v ; % 4 6 6 * o                 ",
"              X 5 T } a - ; A ~ A $ g K / K j $ : J / K g % v ! S ; % t { R 6 O                 ",
"            . # 7 T | i % % > n > $ $ j n l $ $ % , n l & % > n , & * r { E 7 # .               ",
"            X # @ $ @ $ # # # + @ $ $ @ @ @ @ $ @ @ @ @ @ # # @ @ # # # # # # # +               ",
"                .     .       X       .               .             . . . .   .                 ",
"                                                                                                ",
"                                                                                                ",
"                                                                                                ",
"                                                                                                "
};
