/* XPM */
static char *ZG9vcjE_[] = {
/* columns rows colors chars-per-pixel */
"50 50 158 2 ",
"   c #24213F",
".  c #29213F",
"X  c #34233F",
"o  c #242242",
"O  c #2B2241",
"+  c #26254A",
"@  c #2B244A",
"#  c #342341",
"$  c #3D2541",
"%  c #342845",
"&  c #3D2C47",
"*  c #34264B",
"=  c #36294D",
"-  c #3A2A4C",
";  c #272751",
":  c #292753",
">  c #292854",
",  c #2B2C5C",
"<  c #312B5C",
"1  c #2B315F",
"2  c #2B2E64",
"3  c #2B2F68",
"4  c #332D63",
"5  c #2C3265",
"6  c #2E3866",
"7  c #2D336B",
"8  c #2F396C",
"9  c #303C6C",
"0  c #2F3872",
"q  c #3B3373",
"w  c #313C75",
"e  c #3F367E",
"r  c #323E79",
"t  c #442542",
"y  c #4D2641",
"u  c #4C2944",
"i  c #452F49",
"p  c #532742",
"a  c #5C2741",
"s  c #542B45",
"d  c #5A2943",
"f  c #4A314A",
"g  c #622943",
"h  c #6B2A43",
"j  c #602F48",
"k  c #712F47",
"l  c #6B3047",
"z  c #643148",
"x  c #6C3249",
"c  c #733047",
"v  c #753349",
"b  c #79364C",
"n  c #75394D",
"m  c #7D3A4E",
"M  c #7F3C50",
"N  c #433E7E",
"B  c #334276",
"V  c #34447C",
"C  c #36497B",
"Z  c #813D50",
"A  c #834152",
"S  c #8A4555",
"D  c #8C4857",
"F  c #8E4A59",
"G  c #924D5B",
"H  c #97515E",
"J  c #403780",
"K  c #433987",
"L  c #443A88",
"P  c #364683",
"I  c #364983",
"U  c #374886",
"Y  c #374986",
"T  c #384D86",
"R  c #374A88",
"E  c #384B8A",
"W  c #384C8A",
"Q  c #394E8A",
"!  c #3A4F8F",
"~  c #394D8C",
"^  c #394D8D",
"/  c #395286",
"(  c #39518B",
")  c #3A538E",
"_  c #3B578E",
"`  c #3A538D",
"'  c #3C588F",
"]  c #3B5191",
"[  c #3B5090",
"{  c #3B5292",
"}  c #3B5192",
"|  c #3C5393",
" . c #3C5592",
".. c #3D5796",
"X. c #3C5393",
"o. c #3C5890",
"O. c #3D5896",
"+. c #3C5992",
"@. c #3F5A9A",
"#. c #3F5D9B",
"$. c #3E5A99",
"%. c #464182",
"&. c #4B468E",
"*. c #4C4590",
"=. c #4F4A93",
"-. c #534D91",
";. c #405D9D",
":. c #405F9E",
">. c #575293",
",. c #5A5495",
"<. c #5E5898",
"1. c #605895",
"2. c #675F9A",
"3. c #41639F",
"4. c #41659F",
"5. c #41659F",
"6. c #67609A",
"7. c #5D5DA5",
"8. c #4264A2",
"9. c #446AA4",
"0. c #456EAA",
"q. c #5F60A6",
"w. c #4773AE",
"e. c #4977B3",
"r. c #4975B2",
"t. c #4977B4",
"y. c #4A79B5",
"u. c #4A7AB7",
"i. c #4B7BB9",
"p. c #4C7DBB",
"a. c #4C7EBA",
"s. c #6061A7",
"d. c #6264A9",
"f. c #6568AE",
"g. c #7573AE",
"h. c #676CB1",
"j. c #696DB1",
"k. c #6C70B2",
"l. c #7E7BB0",
"z. c #827FB2",
"x. c #4E83BF",
"c. c #4D82BD",
"v. c #4E82BE",
"b. c #4F85C2",
"n. c #5087C4",
"m. c #518AC6",
"M. c #8482B4",
"N. c #8384BA",
"B. c #948EB7",
"V. c #9291BE",
"C. c #9994BB",
"Z. c #9796C0",
"A. c #9896C0",
"S. c #AEAAC7",
"D. c #AFABC8",
"F. c #B0ACC8",
"G. c None",
"H. c black",
/* pixels */
"G.G.G.G.G.G.G.G.G.G.G.G.G.G.G.G.G.G.G.G.G.G.G.G.G.G.G.G.G.G.G.G.G.G.G.G.G.G.G.G.G.G.G.G.G.G.G.G.G.G.",
"G.G.G.G.G.G.G.G.G.G.G.G.G.G.G.G.G.G.G.G.G.G.G.G.G.G.G.G.G.G.G.G.G.G.G.G.G.G.G.G.G.G.G.G.G.G.G.G.G.G.",
"G.G.G.G.G.G.G.G.G.G.G.G.G.G.G.G.G.G.G.G.G.G.G.G.G.G.G.G.G.G.G.G.G.G.G.G.G.G.G.G.G.G.G.G.G.G.G.G.G.G.",
"G.G.G.G.G.G.G.G.G.G.G.G.G.G.G.G.G.G.G.G.+ o o o o + o o o o G.G.G.G.G.G.G.G.G.G.G.G.G.G.G.G.G.G.G.G.",
"G.G.G.G.G.G.G.G.G.G.G.G.G.G.G.G.+ + + 9 o._ ' B + 8 _ _ O.V + + + G.G.G.G.G.G.G.G.G.G.G.G.G.G.G.G.G.",
"G.G.G.G.G.G.G.G.G.G.G.G.G.G.o : 1 + 2 { i.i.i.( + B i.y.i.8.7 + 2 > + G.G.G.G.G.G.G.G.G.G.G.G.G.G.G.",
"G.G.G.G.G.G.G.G.G.G.G.G.G., B c._ , ; r { { { r + 7 { { { P > > V x./ 5 o G.G.G.G.G.G.G.G.G.G.G.G.G.",
"G.G.G.G.G.G.G.G.G.G.G.G.5 y.n.;.t.B ; 2 P W W r + 8 E E U 7 > 7 r.;.t.x.B o G.G.G.G.G.G.G.G.G.G.G.G.",
"G.G.G.G.G.G.G.G.G.G.+ 6 w.8.} } } 0 > + 2 7 7 , + > 3 3 7 > > 7 [ { } @.y.B ; G.G.G.G.G.G.G.G.G.G.G.",
"G.G.G.G.G.G.G.G.G.; > r O.} } | P 7 ;   + : + + o o ; @ ; + + 3 V } X.} | I ; > G.G.G.G.G.G.G.G.G.G.",
"G.G.G.G.G.G.G.G.G.5 9 ; 3 U [ P 5 + o o . . O o o o o O O O o o 2 r ) W 8 > 7 8 + G.G.G.G.G.G.G.G.G.",
"G.G.G.G.G.G.G.G.+ 5.b.V ; 3 7 2 + o   t h h d O o o p g h p o o o 2 7 7 > 6 y.y.> G.G.G.G.G.G.G.G.G.",
"G.G.G.G.G.G.G.o B 3.$.t.C ; > + o o O d b m h t o $ h b m g # o o + : : 8 r.#.$./ + G.G.G.G.G.G.G.G.",
"G.G.G.G.G.G.G.+ I ;.} @.~ +   o t O $ b H H Z t o # b G H Z t o t O   o V :.} @. .; G.G.G.G.G.G.G.G.",
"G.G.G.G.G.G.o 2 5 P W P 3 +   t h # # Z H H S t o . m H H S t O g p o o 2 r W U 7 5 + G.G.G.G.G.G.G.",
"G.G.G.G.G.G.G.> > 2 3 2 + o t h h # # M H H A t o X M H H S t O g h p o o 2 7 3 > > + G.G.G.G.G.G.G.",
"G.G.G.G.G.G.G.> > ; ; + o O h m h # # Z H H D t o # Z H G S u o g b n # o + ; ; > > + G.G.G.G.G.G.G.",
"G.G.G.G.G.G.o 5 B 0 , o   y n G b O # M H H Z u o # Z H H S t O h G m a o o ; 9 r 8 + G.G.G.G.G.G.G.",
"G.G.G.G.G.G.o r b.m.o., o d F H b # # Z H H Z t o # b H H S t o x H G l   ; I v.m.) o G.G.G.G.G.G.G.",
"G.G.G.G.G.G.o 0 { X.0.2 o d G H m # # Z H H D t o O Z G H S t O x H H x   ; 8.;.} r + G.G.G.G.G.G.G.",
"G.G.G.G.G.G.o 7 { { ! , o # n S s o O s S G j # o o s S G h O o t Z A t   > U X.| r + G.G.G.G.G.G.G.",
"G.G.G.G.G.G.o 8 ! W Y 2 o + * = @ + @ @ = = @ + @ @ ; = = @ + + + = * +   > P W W r + G.G.G.G.G.G.G.",
"G.G.G.G.G.G.o 2 7 7 3 ; @ %.-.&.=.=.=.=.=.=.-.-.=.=.-.-.<.>.2.2.2.,.=.&.> @ 5 7 7 7 + G.G.G.G.G.G.G.",
"G.G.G.G.G.G.G.; ; ; + o 4 7.j.j.h.h.j.j.h.j.h.h.h.h.j.j.Z.N.D.S.D.V.h.h.q o + : ; ; o G.G.G.G.G.G.G.",
"G.G.G.G.G.G.o 2 6 8 5 o 4 7.j.j.j.j.j.j.j.j.j.h.h.j.h.j.A.N.F.F.S.B.h.d.q o 5 7 7 2 + G.G.G.G.G.G.G.",
"G.G.G.G.G.G.o B b.m.i.1 4 L 7.q.q.q.q.q.q.q.q.q.q.q.q.q.z.g.B.B.B.z.7.&.q ; 0.m.m._ o G.G.G.G.G.G.G.",
"G.G.G.G.G.G.o 8 X.X.! , > N K K K K J K K K J K K K K J K J K K K K K K < > R X. .r + G.G.G.G.G.G.G.",
"G.G.G.G.G.G.o 7 { { ! , o : < < < < < < < < < < < < < < < < < < < < < > o ; U X.| r + G.G.G.G.G.G.G.",
"G.G.G.G.G.G.o 8 W ~ E 2 o O a g t     t g a y .     t g g p .   # d g # o ; P [ ) w + G.G.G.G.G.G.G.",
"G.G.G.G.G.G.o 3 7 7 7 ;   p h c h X X h v b h t   X h c v h t   g x k g O + 3 7 7 3 + G.G.G.G.G.G.G.",
"G.G.G.G.G.G.G.> : ; ; o o d A G c # X c G G b t o # k G G Z t O h D S h o o + ; ; > + G.G.G.G.G.G.G.",
"G.G.G.G.G.G.o , 6 5 5 o   d G H m X X Z H H S $ o X Z H H S t o x H H l O o , 6 6 , + G.G.G.G.G.G.G.",
"G.G.G.G.H.H.o r n.m.i., o s G H b # # M H H S t   X m H H S t o x G H x   ; 0.m.m._ o G.G.G.G.G.G.G.",
"G.G.G.G.H.H.o 0 | | [ , o d G H m X # Z H H S t   X m H H S t O x H G x O ; E } X.r + G.G.G.G.G.G.G.",
"G.G.G.G.H.H.o 7 } | ) 2 o $ m D d   O d F G z . o O s F G l # o y A A t   > E } X.r + G.G.G.G.G.G.G.",
"G.G.G.G.H.H.o 8 | | [ ,   o * - @ + + @ - - * + + o @ & - @ + o @ * - @ o ; E } | r + G.G.G.G.G.G.G.",
"G.G.G.G.G.G.o 7 U U P , + N *.&.&.&.&.=.&.&.&.&.&.*.&.&.,.-.<.1.<.>.&.&.@ > B E U w + G.G.G.G.G.G.G.",
"G.G.G.G.G.G.o 2 3 3 3 + 4 7.k.j.j.j.j.j.j.j.j.j.j.j.j.k.C.N.D.D.S.V.j.f.q + 2 7 3 2 + G.G.G.G.G.G.G.",
"G.G.G.G.G.G.G.; + ; +   2 7.j.j.j.j.j.j.j.j.j.j.j.j.j.k.Z.N.F.D.F.V.f.d.q o + + + + G.G.G.G.G.G.G.G.",
"G.G.G.G.G.G.o 5 V V B o 4 &.q.d.d.s.d.d.s.d.d.s.d.s.d.d.M.g.C.C.C.M.s.&.q o 9 C V 8 + G.G.G.G.G.G.G.",
"G.G.G.G.G.G.o r x.b.y.2 : J L L L L L L L L K K L L L K L L L L L L K K 4 > 9.n.b.) o G.G.G.G.G.G.G.",
"G.G.G.G.G.G.o 8 ~ { W 2   : < < < < < < 4 < < < < < < < < < < < < < < , o > P [ { r + G.G.G.G.G.G.G.",
"G.G.G.G.G.G.o 2 8 7 7 o   . d g $     t d a y   o o t a d y     # d a #   o 5 8 8 2 + G.G.G.G.G.G.G.",
"G.G.G.G.G.G.G.@ + + + o o p k k h # # h c n h t   # h v v h t o g k h g O o o + + + G.G.G.G.G.G.G.G.",
"G.G.G.G.G.G.o 5 ( 9.V :   t Z G d O O z G H x # o . z F G n #   s S S s   + w 5.| 8 + G.G.G.G.G.G.G.",
"G.G.G.G.G.G.o 3 C ' r + o o i f %   o % f f &   o   % f f & o o O f i O o + 7 _ T 7 + o G.G.G.G.G.G.",
"G.G.G.G.G.o o + o o o o o o     o o o o   o o o o o   o o   o o   o o o o o o o o + o o G.G.G.G.G.G.",
"G.G.G.G.G.G.G.G.G.G.G.G.G.G.G.G.G.G.G.G.G.G.G.G.G.G.G.G.G.G.G.G.G.G.G.G.G.G.G.G.G.G.G.G.G.G.G.G.G.G.",
"G.G.G.G.G.G.G.G.G.G.G.G.G.G.G.G.G.G.G.G.G.G.G.G.G.G.G.G.G.G.G.G.G.G.G.G.G.G.G.G.G.G.G.G.G.G.G.G.G.G.",
"G.G.G.G.G.G.G.G.G.G.G.G.G.G.G.G.G.G.G.G.G.G.G.G.G.G.G.G.G.G.G.G.G.G.G.G.G.G.G.G.G.G.G.G.G.G.G.G.G.G."
};
