/* XPM */
static char *ZG9vcjQ_[] = {
/* columns rows colors chars-per-pixel */
"50 50 116 2 ",
"   c #24213F",
".  c #252241",
"X  c #282447",
"o  c #26254B",
"O  c #2B274E",
"+  c #272751",
"@  c #2A2752",
"#  c #282854",
"$  c #2A2D5D",
"%  c #302A57",
"&  c #302A59",
"*  c #2B315F",
"=  c #2B2E64",
"-  c #2B2F68",
";  c #352F63",
":  c #2C3264",
">  c #2E3866",
",  c #2D336B",
"<  c #2F396C",
"1  c #373066",
"2  c #383168",
"3  c #303C6C",
"4  c #2F3872",
"5  c #313C75",
"6  c #323E79",
"7  c #334276",
"8  c #34447C",
"9  c #36497B",
"0  c #364683",
"q  c #374986",
"w  c #384D86",
"e  c #374A88",
"r  c #3A4E8D",
"t  c #3A4F8E",
"y  c #3A4F8F",
"u  c #394D8C",
"i  c #394C8B",
"p  c #395185",
"a  c #395286",
"s  c #39518B",
"d  c #3A538D",
"f  c #3A538E",
"g  c #3A548D",
"h  c #3B568E",
"j  c #3B578E",
"k  c #3B568F",
"l  c #3A538C",
"z  c #3C588F",
"x  c #3B5090",
"c  c #3B5191",
"v  c #3B5192",
"b  c #3B5292",
"n  c #3B5293",
"m  c #3C5393",
"M  c #3C5592",
"N  c #3C5394",
"B  c #3C5494",
"V  c #3C5694",
"C  c #3D5797",
"Z  c #3C5393",
"A  c #3C5890",
"S  c #3C5892",
"D  c #3D5894",
"F  c #3D5897",
"G  c #3D5992",
"H  c #3E5999",
"J  c #3E5A99",
"K  c #3F5A9A",
"L  c #3F5B9A",
"P  c #3F5D9B",
"I  c #405D9D",
"U  c #405E9E",
"Y  c #405F9E",
"T  c #41639F",
"R  c #41659F",
"E  c #41659F",
"W  c #4262A2",
"Q  c #4266A2",
"!  c #446AA4",
"~  c #456EA9",
"^  c #466DAB",
"/  c #456EA9",
"(  c #4773AE",
")  c #4875B0",
"_  c #4975B3",
"`  c #4977B2",
"'  c #4976B3",
"]  c #4977B3",
"[  c #4977B4",
"{  c #4A78B4",
"}  c #4A78B6",
"|  c #4A7BB6",
" . c #4A7AB7",
".. c #4B7BB8",
"X. c #4B7BB9",
"o. c #4C7DBA",
"O. c #4C7DBB",
"+. c #4C7EBA",
"@. c #4C7EBA",
"#. c #4D81BC",
"$. c #4D82BD",
"%. c #4E82BE",
"&. c #4E83BE",
"*. c #4E82BF",
"=. c #4F85C1",
"-. c #4F87C3",
";. c #4F84C2",
":. c #5087C3",
">. c #5087C4",
",. c #5087C4",
"<. c #5089C5",
"1. c #518AC6",
"2. c #518AC7",
"3. c #518AC6",
"4. c None",
"5. c black",
/* pixels */
"4.4.4.4.4.4.4.4.4.4.4.4.4.4.4.4.4.4.4.4.4.4.4.4.4.4.4.4.4.4.4.4.4.4.4.4.4.4.4.4.4.4.4.4.4.4.4.4.4.4.",
"4.4.4.4.4.4.4.4.4.4.4.4.4.4.4.4.4.4.4.4.4.4.4.4.4.4.4.4.4.4.4.4.4.4.4.4.4.4.4.4.4.4.4.4.4.4.4.4.4.4.",
"4.4.4.4.4.4.4.4.4.4.4.4.4.4.4.4.4.4.4.4.4.4.4.4.4.4.4.4.5.5.4.4.4.4.4.4.4.4.4.4.4.4.4.4.4.4.4.4.4.4.",
"4.4.4.4.4.4.4.4.4.4.4.4.4.4.4.4.4.4.4.4.. o . . . o . . o . 4.4.4.4.4.4.4.4.4.4.4.4.4.4.4.4.4.4.4.4.",
"4.4.4.4.4.4.4.4.4.4.4.4.4.4.4.4.o o o 3 A k k 7 o < k z A 8 o o o 4.4.4.4.4.4.4.4.4.4.4.4.4.4.4.4.4.",
"4.4.4.4.4.4.4.4.4.4.4.4.4.4.X # $ o = f O.X.O.s o 7 X.X.X.W : o $ $ o 4.4.4.4.4.4.4.4.4.4.4.4.4.4.4.",
"4.4.4.4.4.4.4.4.4.4.4.4.4.$ 7 $.A $ # 6 v v v 6 o , v v y 0 $ # 9 $.a = . 4.4.4.4.4.4.4.4.4.4.4.4.4.",
"4.4.4.4.4.4.4.4.4.4.4.4.> ` &.I _ 7 + = 0 e i 5 o , e e e , # : _ I { $.7 . 4.4.4.4.4.4.4.4.4.4.4.4.",
"4.4.4.4.4.4.4.4.4.4.o > ( W v v v 4 $ o = , , $ o $ , - - $ # , y v v K { 7 + 4.4.4.4.4.4.4.4.4.4.4.",
"4.4.4.4.4.4.4.4.4.+ # 6 C v m m 0 - o   o O + X   . + o + o . = 8 v B v S 0 # + 4.4.4.4.4.4.4.4.4.4.",
"4.4.4.4.4.4.4.4.4.: 3 + - q y 0 : o . .         .           . o = 6 u i < # > 4 o 4.4.4.4.4.4.4.4.4.",
"4.4.4.4.4.4.4.4.o R =.8 + - , : o .   . . . . . . . . . . . . . X = , , # >  .[ # 4.4.4.4.4.4.4.4.4.",
"4.4.4.4.4.4.4.. 7 T C [ 9 + # o . . . . .   . . . . .   . . . .   X # + > ) P C a o 4.4.4.4.4.4.4.4.",
"4.4.4.4.4.4.4.o 0 I v K i o     . . . .     . . . . .       . . .     . 8 W v K m @ 4.4.4.4.4.4.4.4.",
"4.4.4.4.4.4.. = , 8 u 0 - o   . . . .   X O ; 2 ; ; ; @ X     . . . . . = 6 u 0 , : o 4.4.4.4.4.4.4.",
"4.4.4.4.4.4.4.# # = , = o . . . . . . O & 2 2 2 2 2 2 2 ; @ X   . . .   o = - = $ # o 4.4.4.4.4.4.4.",
"5.5.5.5.5.5.4.# # # + o   . . . . . & 2 2 1 2 2 2 2 2 1 2 2 & X     . .   X + + # # o 4.4.4.4.4.4.4.",
"5.5.5.5.5.5.. - 6 3 $ .   . . . . & 2 2 2 2 2 2 2 2 2 2 2 1 2 ; X . . . . . # 3 5 < o 4.4.4.4.4.4.4.",
"5.5.5.5.5.5.. 6 :.:.z $ . . .   X ; 2 2 2 2 2 2 2 2 2 2 2 2 2 2 O . . .   @ w &.1.f o 4.4.4.4.4.4.4.",
"5.5.5.5.5.5.. < v N / >   . .   % 2 2 2 2 2 2 2 2 2 2 2 2 2 2 2 &   . .   @ Q F v 5 o 4.4.4.4.4.4.4.",
"5.5.5.5.4.4.. , v v u $   . . o 1 2 2 2 2 2 2 2 2 2 2 2 2 2 2 2 1 @   .   # e v C 6 . 4.4.4.4.4.4.4.",
"5.5.5.5.4.4.. < u u q =   .   O 2 2 2 2 2 2 2 2 2 2 2 2 2 2 2 2 2 &   .   # 0 i i 5 o 4.4.4.4.4.4.4.",
"5.5.5.5.4.4.. = , , , + . . . O 2 2 2 2 2 2 2 2 2 2 2 2 2 2 2 2 2 % . .   o = , , - o 4.4.4.4.4.4.4.",
"5.5.5.5.4.4.4.+ + + O .   .   O 2 2 2 2 2 2 2 2 2 2 2 2 2 2 2 2 1 $ . . . . o O + + o 4.4.4.4.4.4.4.",
"5.5.5.5.5.5.o $ < < : . . .   O 2 2 2 2 2 2 2 2 2 2 2 2 2 2 2 2 2 &   .   . = < < = o 4.4.4.4.4.4.4.",
"5.5.5.5.5.5.. 6 -.2.O.$ . . . O 2 2 2 2 2 2 2 2 2 2 2 2 2 2 2 2 2 &       # / 3.>.z . 4.4.4.4.4.4.4.",
"5.5.5.5.4.4.. < v v y $ . .   O 2 2 2 2 2 2 2 2 2 2 2 2 2 2 2 2 2 & . .   # e N v 6 o 4.4.4.4.4.4.4.",
"5.5.5.5.4.4.. , v A y $   .   O 2 2 2 2 2 2 2 2 2 2 2 2 2 2 2 2 2 &   .   # e N C 6 o 4.4.4.4.4.4.4.",
"5.5.5.5.4.4.. < i i e = . .   O 2 2 2 2 2 2 2 2 2 2 2 2 2 2 2 2 2 & . . . # 0 u u 5 o 4.4.4.4.4.4.4.",
"5.5.5.5.4.4.. = , > , #   .   O 2 2 2 2 2 2 2 2 2 2 2 2 2 ; 2 2 2 & . . . o , , , - o 4.4.4.4.4.4.4.",
"5.5.5.5.5.5.5.# + + @ . . .   O 2 2 2 2 2 2 2 2 2 2 2 2 2 2 2 2 2 &   . .   o # @ @ o 4.4.4.4.4.4.4.",
"5.5.5.5.5.5.. $ : > 1 .   .   O ; 2 2 2 2 2 2 2 2 2 2 2 2 2 2 2 2 #   . . . * > : $ o 4.4.4.4.4.4.4.",
"5.5.5.5.4.4.. 6 -.3.O.$ . .   O 2 2 2 2 2 2 2 2 2 2 2 2 2 2 2 2 2 %   .   + / 3.3.A . 4.4.4.4.4.4.4.",
"5.5.5.5.4.4.. < C v f $ . .   O 2 2 2 2 2 2 2 2 2 2 2 2 2 2 2 2 2 %   .   # e v v 6 o 4.4.4.4.4.4.4.",
"5.5.5.5.4.4.. < v N y =   .   O 2 2 2 2 2 2 2 2 2 ; 2 2 2 2 2 2 2 %   .   # e v B 6 o 4.4.4.4.4.4.4.",
"5.5.5.5.4.4.. 4 v N y $ . . . O 2 2 2 2 2 2 2 2 2 2 2 2 2 2 2 2 2 % . . . # e C B 6 o 4.4.4.4.4.4.4.",
"5.5.5.5.5.5.. , e e 0 $   .   O 2 2 2 2 2 2 2 2 2 2 2 2 2 2 2 2 2 & . .   @ 8 0 0 5 o 4.4.4.4.4.4.4.",
"5.5.5.5.5.5.. = = - : O . .   O 2 2 2 2 2 2 2 2 2 2 2 2 2 2 2 2 2 &   .   o = , - = o 4.4.4.4.4.4.4.",
"5.5.5.5.5.5.5.o o o o . . .   O 2 2 2 2 2 2 2 2 2 2 2 2 2 2 2 2 2 & . . . . X o o o 4.4.4.4.4.4.4.4.",
"5.5.5.5.5.5.. , 8 8 7 X   . . O 2 2 2 2 2 2 2 2 2 2 2 2 2 2 2 2 2 & . . . . < 9 9 < o 4.4.4.4.4.4.4.",
"4.4.4.4.4.4.. 5 =.=.} = . .   O 2 2 2 2 2 2 2 2 2 2 2 2 2 2 2 2 2 & . .   # ! -.-.f . 4.4.4.4.4.4.4.",
"4.4.4.4.4.4.. < v v i $   .   O 2 2 2 2 2 2 2 2 2 2 2 2 2 2 2 2 2 $   .   # e y y 6 o 4.4.4.4.4.4.4.",
"4.4.4.4.4.4.. - > , , o . .   O 2 2 2 2 2 2 2 2 2 2 2 2 2 2 2 2 2 &   .   . = < , - o 4.4.4.4.4.4.4.",
"4.4.4.4.4.4.4.o o o o   . .   + 2 1 2 2 2 2 2 2 2 2 2 2 2 2 2 2 2 &   . .   . o o + 4.4.4.4.4.4.4.4.",
"4.4.4.4.4.4.. , s ! 0 O   .   o ; 2 1 2 2 2 2 2 2 2 2 2 2 2 2 2 1 O     . o 4 R C 4 o 4.4.4.4.4.4.4.",
"4.4.4.4.4.4.. = 9 z 5 o   . .   o ; 1 1 2 2 ; 2 1 1 1 1 ; 2 2 ; O   .     X < k e < . . 4.4.4.4.4.4.",
"4.4.4.4.4.. . o . . X   . . . . . . X X X X X X X X X X X X X o . .   . . . o . . . . . 4.4.4.4.4.4.",
"4.4.4.4.4.4.4.4.4.4.4.4.4.4.4.4.4.4.4.4.4.4.4.4.4.4.4.4.4.4.4.4.4.4.4.4.4.4.4.4.4.4.4.4.4.4.4.4.4.4.",
"4.4.4.4.4.4.4.4.4.4.4.4.4.4.4.4.4.4.4.4.4.4.4.4.4.4.4.4.4.4.4.4.4.4.4.4.4.4.4.4.4.4.4.4.4.4.4.4.4.4.",
"4.4.4.4.4.4.4.4.4.4.4.4.4.4.4.4.4.4.4.4.4.4.4.4.4.4.4.4.4.4.4.4.4.4.4.4.4.4.4.4.4.4.4.4.4.4.4.4.4.4."
};
