/* XPM */
static char *result[] = {
/* columns rows colors chars-per-pixel */
"48 48 11 1 ",
"  c #151327",
". c #323C39",
"X c #45283C",
"o c #663931",
"O c #2F694B",
"+ c #8F563B",
"@ c #6ABE30",
"# c #37946E",
"$ c #BA844A",
"% c #99E550",
"& c #D7FF58",
/* pixels */
"&&&&&&&&&&&&&&&&&&&&&&&&&&&&&&&&&&&&&&&&&&&&&&&&",
"%%%%%%%%&%%%%%%%%%%%%%%%%%%&%&&&&&&&&&&&&&&&%%%%",
"%%%%%%%%%%%%%%%%%%%%%%%%%%%%%%%%%%%%%%%%%%%%%%%%",
"@%%%%%%%%%%%%%%@@%%%%%%%%%%%%%%@@%%%%%%%%%%%%%%@",
"#@%%%%%%%%%%%%@##@%%%%%%%%%%%%@##@%%%%%%%%%%%%@#",
" @%%%%%%%%%%%%@  @%%%%%%%%%%%%@  @%%%%%%%%%%%%@ ",
".@@%%%%%%%%%%@@..@@%%%%%%%%%%@@..@@%%%%%%%%%%@@.",
".#@@&%%%%%%&@@#..#@@&%%%%%%&@@#..#@@&%%%%%%&@@#.",
". #@@@@@@@@@@# .. #@@@@@@@@@@# .. #@@@@@@@@@@# .",
"..##@@@@@@@@##....##@@@@@@@@##....##@@@@@@@@##..",
"O. ########## .OO. ########## .OO. ########## .O",
"OOO  ######  OOOOOO  ######  OOOOOO  ######  OOO",
"OOOO.      .OOOOOOOO.      .OOOOOOOO.      .OOOO",
"OOOO#..  ..#OOOOOOOO#..  ..#OOOOOOOO#..  ..#OOOO",
"####.. oo ..########.. oo ..########.. oo ..####",
"..... oooo .......... oooo .......... oooo .....",
"...  o++++o  ......  o++++o  ......  o++++o  ...",
"   oo++++++oo      oo++++++oo      oo++++++oo   ",
"ooo++++++++++oooooo++++++++++oooooo++++++++++ooo",
"++++++++++++++++++++++$$+++++++++++++++++$++++++",
"++++++++++++++++++++++$$++++++++++++++++++++++++",
"++++++++++++++++++++++++++++++++++++++++++++++++",
"++++$++++++++++++++++++++++++++++++++$++++++++++",
"+++++++++$++++++++++++++++++++++++++++++++++++++",
"++++++++++++++++++++++++++++++++++++++++++++++$+",
"++oo+++++++++++++++++++++++oo++++++++ooooo++oo++",
"oooooooo++++++oooooo+++++ooooo++++oooooooooooooo",
"oooooooo ooooooooooo ooooooooooooooooooooooooooo",
"oooooo  ooooooooooooo        oooooooooooooo oooo",
"o ooo    ooooooooo   ooooooX  o            ooooo",
"           oooo   XooooooooXX    oooooooooX  oo ",
"   XXooooo       XXooooooooXX   oooooooooooXX   ",
"  XXXoooooooo    XXoooooooXXX  ooooooooooooXXX  ",
"  XXXooooooooo   XXXXoooXXXX XoooooooooooooXXX  ",
"  XXXooooooooo   XXXXXXXXX  XooooooooooooooXXX  ",
"   XXXooooooooX             XoooooooooooooXXX   ",
"   XXXXooooooXX             XXoooooooooooXXXX   ",
"    XXXXooooXXX    oooo    XXXXoooooooooXXXX    ",
"     XXXXXXXXX    XooooX  XXXXXXooooooXXXXXX    ",
"       XXXXXXX    XooooX  XXXXXXXXXXXXXXXXX     ",
"                  XXooXX  XXXXXXXXXXXXXXXX      ",
"                   XXXX   XXXXXXXXXXXXXXX       ",
"                           XXXXXXXXXXXX         ",
"                            XXXXXXX             ",
"                                                ",
"                                                ",
"                                                ",
"                                                "
};
