/* XPM */
static char *result[] = {
/* columns rows colors chars-per-pixel */
"55 55 181 2 ",
"   c #010306",
".  c #02060A",
"X  c #0E0508",
"o  c #05090D",
"O  c #0B090D",
"+  c #1F070A",
"@  c #16090A",
"#  c #1B0C0D",
"$  c #090D12",
"%  c #160E12",
"&  c #0D1115",
"*  c #121115",
"=  c #191215",
"-  c #12151A",
";  c #14191E",
":  c #290707",
">  c #290709",
",  c #27090C",
"<  c #2F080A",
"1  c #290A05",
"2  c #300203",
"3  c #3F0606",
"4  c #360804",
"5  c #300609",
"6  c #340C0B",
"7  c #3A0C0B",
"8  c #3E0B04",
"9  c #3F110C",
"0  c #220D10",
"q  c #221316",
"w  c #2B1513",
"e  c #20161A",
"r  c #2A1A1D",
"t  c #371311",
"y  c #3E1F15",
"u  c #372A17",
"i  c #171C20",
"p  c #1A1D22",
"a  c #271D21",
"s  c #2E1F23",
"d  c #222226",
"f  c #4B0404",
"g  c #440806",
"h  c #420C0C",
"j  c #480C09",
"k  c #460402",
"l  c #550502",
"z  c #5B0603",
"x  c #500802",
"c  c #5F0900",
"v  c #42100D",
"b  c #4C140C",
"n  c #5B1104",
"m  c #5D1807",
"M  c #531209",
"N  c #5F1D0C",
"B  c #401412",
"V  c #4C1512",
"C  c #461B16",
"Z  c #551713",
"A  c #501816",
"S  c #620703",
"D  c #6F0601",
"F  c #680905",
"G  c #790600",
"H  c #770B01",
"J  c #7A0C02",
"K  c #671204",
"L  c #6E110B",
"P  c #651B0A",
"I  c #6C1A07",
"U  c #751304",
"Y  c #7C1504",
"T  c #7E1B04",
"R  c #78130A",
"E  c #761D0C",
"W  c #7C1E0B",
"Q  c #552716",
"!  c #522A11",
"~  c #5A2D14",
"^  c #59361B",
"/  c #53341D",
"(  c #74240B",
")  c #6C2D13",
"_  c #712B14",
"`  c #7A2311",
"'  c #7E3413",
"]  c #7E461B",
"[  c #5F4E33",
"{  c #664926",
"}  c #694B20",
"|  c #6D4728",
" . c #734821",
".. c #78482C",
"X. c #66512F",
"o. c #695834",
"O. c #715E3B",
"+. c #7C6439",
"@. c #776745",
"#. c #7D6B42",
"$. c #830600",
"%. c #860B02",
"&. c #8B0A00",
"*. c #960C01",
"=. c #9B0E01",
"-. c #8F1402",
";. c #8C1B03",
":. c #80150B",
">. c #8B1409",
",. c #801D09",
"<. c #841C04",
"1. c #941206",
"2. c #911B03",
"3. c #991B01",
"4. c #A20F01",
"5. c #A41405",
"6. c #A81A01",
"7. c #842D0F",
"8. c #932707",
"9. c #9A2604",
"0. c #982E06",
"q. c #962609",
"w. c #942E0A",
"e. c #932A07",
"r. c #8E350F",
"t. c #98330A",
"y. c #803817",
"u. c #9D3815",
"i. c #A12902",
"p. c #B72705",
"a. c #B82E08",
"s. c #B12B05",
"d. c #A9390D",
"f. c #A8350B",
"g. c #B6340A",
"h. c #C02E05",
"j. c #C2380A",
"k. c #87461B",
"l. c #8D441D",
"z. c #9E431B",
"x. c #93501F",
"c. c #8B4C20",
"v. c #984820",
"b. c #8B5223",
"n. c #915327",
"m. c #915429",
"M. c #9B582E",
"N. c #8E5632",
"B. c #855F32",
"V. c #875833",
"C. c #AE5020",
"Z. c #A45221",
"A. c #8E6A2F",
"S. c #8C683A",
"D. c #826334",
"F. c #916C35",
"G. c #97763E",
"H. c #9C743D",
"J. c #A56C3F",
"K. c #AA743E",
"L. c #836D46",
"P. c #837049",
"I. c #9E7944",
"U. c #947748",
"Y. c #A57741",
"T. c #AC7743",
"R. c #A17C44",
"E. c #968256",
"W. c #9F8657",
"Q. c #9D8759",
"!. c #A28044",
"~. c #A3824B",
"^. c #A88249",
"/. c #A78454",
"(. c #A08855",
"). c #A38C5A",
"_. c #B08F5C",
"`. c #AB935F",
"'. c #B1935A",
"]. c #B19761",
"[. c None",
/* pixels */
"[.[.[.[.[.[.[.[.[.[.[.[.[.[.[.[.[.[.[.[.[.[.[.[.[.[.[.[.[.[.[.[.[.[.[.[.[.[.[.[.[.[.[.[.[.[.[.[.[.[.[.[.[.[.[.",
"[.[.[.[.[.[.[.[.[.[.[.[.[.[.[.[.[.[.[.[.[.[.[.[.[.[.[.[.[.[.[.[.[.[.[.[.[.[.[.[.[.[.[.[.[.[.[.[.[.[.[.[.[.[.[.",
"[.[.[.[.[.[.[.[.[.[.[.[.[.[.[.[.[.[.[.[.[.[.[.[.[.[.[.[.[.[.[.[.[.[.[.[.[.[.[.[.[.[.[.[.[.[.[.[.[.[.[.[.[.[.[.",
"[.[.[.[.[.[.[.[.[.[.[.[.[.[.[.[.[.[.[.[.[.[.[.[.[.[.[.[.[.[.[.[.[.[.[.[.[.[.[.[.[.[.[.[.[.[.[.[.[.[.[.[.[.[.[.",
"[.[.[.[.[.[.[.[.[.[.[.[.[.[.[.[.[.[.[.[.[.[.[.[.[.[.[.[.[.[.[.[.[.[.[.[.[.[.[.[.[.[.[.[.[.[.[.[.[.[.[.[.[.[.[.",
"[.[.[.[.[.[.[.[.[.[.[.[.[.[.[.[.[.[.[.[.[.[.[.[.[.[.[.[.[.[.[.[.[.[.[.[.[.[.[.[.[.[.[.[.[.[.[.[.[.[.[.[.[.[.[.",
"[.[.[.[.[.[.[.[.[.[.[.[.[.[.[.[.[.[.[.[.[.[.[.[.[.[.[.[.[.[.[.[.[.[.[.[.[.[.[.[.[.[.[.[.[.[.[.[.[.[.[.[.[.[.[.",
"[.[.[.[.[.[.[.[.[.[.[.[.[.[.[.[.[.[.[.[.[.[.[.[.[.[.[.[.[.[.[.[.[.[.[.[.[.[.[.[.[.[.[.[.[.[.[.[.[.[.[.[.[.[.[.",
"[.[.[.[.[.[.[.[.[.[.[.[.[.[.[.[.[.[.[.[.[.[.[.[.[.[.[.[.[.[.[.[.[.[.[.[.[.[.[.[.[.[.[.[.[.[.[.[.[.[.[.[.[.[.[.",
"[.[.[.[.[.[.[.[.[.[.[.[.[.[.[.[.[.[.[.[.[.[.[.[.[.[.[.[.[.[.[.[.[.[.[.[.[.[.[.[.[.[.[.[.[.[.[.[.[.[.[.[.[.[.[.",
"[.[.[.[.[.[.[.[.[.[.[.[.[.[.[.[.[.[.[.[.[.[.[.[.[.[.[.[.[.[.[.[.[.[.[.[.[.[.[.[.[.[.[.[.[.[.[.[.[.[.[.[.[.[.[.",
"[.[.[.[.[.[.[.[.[.[.[.[.[.[.[.[.[.[.[.[.[.[.[.[.[.[.[.[.[.[.[.[.[.[.[.[.[.[.[.[.[.[.[.[.[.[.[.[.[.[.[.[.[.[.[.",
"[.[.[.[.[.[.[.[.[.[.[.[.[.[.[.[.[.[.[.[.[.[.[.[.[.[.[.[.[.[.[.[.[.[.[.[.[.[.[.[.[.[.[.[.[.[.[.[.[.[.[.[.[.[.[.",
"[.[.[.[.[.[.[.[.[.[.[.[.[.[.[.[.[.[.[.[.[.[.[.[.[.[.[.[.[.[.[.[.[.[.[.[.[.[.[.[.[.[.[.[.[.[.[.[.[.[.[.[.[.[.[.",
"[.[.[.[.[.[.[.[.[.[.[.[.[.[.[.[.[.[.[.[.[.[.[.[.[.[.[.[.[.[.[.[.[.[.[.[.[.[.[.[.[.[.[.[.[.[.[.[.[.[.[.[.[.[.[.",
"[.[.[.[.[.[.[.[.[.[.[.[.[.[.[.[.[.[.[.[.[.[.[.[.[.[.[.[.[.[.[.[.[.[.[.[.[.[.[.[.[.[.[.[.[.[.[.[.[.[.[.[.[.[.[.",
"[.[.[.[.[.[.[.[.[.[.[.[.[.[.[.[.[.[.[.[.[.[.[.[.[.[.[.[.[.[.[.[.[.[.[.[.[.[.[.[.[.[.[.[.[.[.[.[.[.[.[.[.[.[.[.",
"[.[.[.[.[.[.[.[.[.[.[.[.[.[.[.[.[.[.[.[.[.[.[.[.[.[.[.[.[.[.[.[.[.[.[.[.[.[.[.[.[.[.[.[.[.[.[.[.[.[.[.[.[.[.[.",
"[.[.[.[.[.[.[.[.[.[.[.[.[.[.[.[.[.[.[.[.[.[.[.[.[.[.[.[.[.[.[.[.[.[.[.[.[.[.[.[.[.[.[.[.[.[.[.[.[.[.[.[.[.[.[.",
"[.[.[.[.[.[.[.[.[.[.[.[.[.[.[.[.[.[.[.[.[.[.[.[.[.[.[.[.[.[.[.[.[.[.[.[.[.[.[.[.[.[.[.[.[.[.[.[.[.[.[.[.[.[.[.",
"[.[.[.[.[.[.[.[.[.[.[.[.[.[.[.[.[.[.[.[.[.[.[.[.[.[.[.[.[.[.[.[.[.[.[.[.[.[.[.[.[.[.[.[.[.[.[.[.[.[.[.[.[.[.[.",
"[.[.[.[.[.[.[.[.[.[.[.[.[.[.[.[.[.[.[.[.[.[.[.[.[.[.[.[.[.[.[.[.[.[.[.[.[.[.[.[.[.[.[.[.[.[.[.[.[.[.[.[.[.[.[.",
"[.[.[.[.[.[.[.[.[.[.[.[.[.[.[.[.[.[.[.[.[.[.[.[.[.[.[.[.[.[.[.[.[.[.[.[.[.[.[.[.[.[.[.[.[.[.[.[.[.[.[.[.[.[.[.",
"[.[.[.[.[.[.[.[.[.[.[.[.[.[.[.[.[.[.[.[.[.[.[.[.[.[.[.[.[.[.[.[.[.[.[.[.[.[.[.[.[.[.[.[.[.[.[.[.[.[.[.[.[.[.[.",
"[.[.[.[.[.[.[.[.[.[.[.[.[.[.[.[.[.& & $ [.[.[.[.[.[.[.[.[.[.[.[.[.[.[.[.[.[.[.[.[.[.[.[.[.[.[.[.[.[.[.[.[.[.[.",
"[.[.[.[.[.[.[.[.[.[.[.[.[.o o & - i i i ; i [.[.[.[.[.[.[.[.[.[.[.[.[.[.[.[.[.[.[.[.[.[.[.[.[.[.[.[.[.[.[.[.[.",
"[.[.[.[.[.[.[.[.[.[.[.[.o $ & ; p d d a a r q = [.[.[.[.[.[.[.[.[.[.[.[.[.[.[.[.[.[.[.[.[.[.[.[.[.[.[.[.[.[.[.",
"[.[.[.[.[.[.[.[.[.[.[.[.$ & - p d d C A Z Z V B [.[.[.[.[.[.[.[.[.[.[.[.[.[.[.[.[.[.[.[.[.[.[.[.[.[.[.[.[.[.[.",
"[.[.[.[.[.[.[.[.[.[.[.$ $ & i p r V L >.1.1.>.:.R [.[.[.[.[.[.[.[.[.[.[.[.[.[.[.[.[.[.[.[.[.[.[.[.[.[.[.[.[.[.",
"[.[.[.[.[.[.[.[.[.[.o o $ $ * e j F %.=.4.4.5.5.5.[.[.[.[.[.[.[.[.[.[.[.[.[.[.[.[.[.[.[.[.[.[.[.[.[.[.[.[.[.[.",
"[.[.[.[.[.[.[.[.[.[.. o o $ % 6 z G $.&.&.*.=.=.*.1.[.[.[.[.[.[.[.[.[.[.[.[.[.[.[.[.[.[.[.[.[.[.[.[.[.[.[.[.[.",
"[.[.[.[.[.[.[.[.[.[.. o o o # f D G J R U %.&.J H J [.[.[.[.[.[.[.[.[.[.[.[.[.[.[.[.[.[.[.[.[.[.[.[.[.[.[.[.[.",
"[.[.[.[.[.[.[.[.[.[.[.. o O , l J Y ( ) _ ` ` P m n [.[.[.[.[.[.[.[.[.[.[.[.[.[.[.[.[.[.[.[.[.[.[.[.[.[.[.[.[.",
"[.[.[.[.[.[.[.[.[.[.[.. o $ < S Y ' | { | V...^ ^ ~ [.[.[.p.a.[.[.[.[.[.[.[.[.[.[.[.[.[.[.[.[.[.[.[.[.[.[.[.[.",
"[.[.[.[.[.[.[.[.[.[.[.  . O 5 S T c.D.o.O.U.P.[ X.[.[.[.6.h.j.[.[.[.[.[.[.[.[.[.[.[.[.[.[.[.[.[.[.[.[.[.[.[.[.",
"[.[.[.[.[.[.[.[.[.[.[.  . O , z W n.U.#.P.).E.@.L.[.[.c 2.s.g.[.[.[.[.[.[.[.[.[.[.[.[.[.[.[.[.[.[.[.[.[.[.[.[.",
"[.[.[.[.[.[.[.[.[.[.[.[.. . , k E m.I.W.).].`.Q.Q.[.[.4 n T [.[.[.[.[.[.[.[.[.[.[.[.[.[.[.[.[.[.[.[.[.[.[.[.[.",
"[.[.[.[.[.[.[.[.[.[.[.[.  X : x U l.R.'.'.'.'._./.[.[.@ 1 [.[.[.[.[.[.[.[.[.[.[.[.[.[.[.[.[.[.[.[.[.[.[.[.[.[.",
"[.[.[.[.[.[.[.[.[.[.[.[.[.8 c U Y 7.m.G.I.Y.T.J.N.[.[.O [.[.[.[.[.[.[.[.[.[.[.[.[.[.[.[.[.[.[.[.[.[.[.[.[.[.[.",
"[.[.[.[.[.[.[.[.[.[.[.[.I T ;.3.-.;.r.k.x.Z.C.z.y.^ u [.[.[.[.[.[.[.[.[.[.[.[.[.[.[.[.[.[.[.[.[.[.[.[.[.[.[.[.",
"[.[.[.[.[.[.[.[.[.[.[.b.z.u.q.;.-.9.i.0.t.f.f.f.l.D.+.[.[.[.[.[.[.[.[.[.[.[.[.[.[.[.[.[.[.[.[.[.[.[.[.[.[.[.[.",
"[.[.[.[.[.[.[.[.[.[.[.H.K.M._ n K <.9.9.e.w.q.0.x.I.~.[.[.[.[.[.[.[.[.[.[.[.[.[.[.[.[.[.[.[.[.[.[.[.[.[.[.[.[.",
"[.[.[.[.[.[.[.[.[.[.A.!.^.N.Q 6 6 b P P P N P ( ] F.R.[.[.[.[.[.[.[.[.[.[.[.[.[.[.[.[.[.[.[.[.[.[.[.[.[.[.[.[.",
"[.[.[.[.[.[.[.[.[.[.[.U.S.| C 4 6 6 6 6 9 b M b ! } [.[.[.[.[.[.[.[.[.[.[.[.[.[.[.[.[.[.[.[.[.[.[.[.[.[.[.[.[.",
"[.[.[.[.[.[.[.[.[.[.[.[./ u 9 7 h g g 3 g j v t w [.[.[.[.[.[.[.[.[.[.[.[.[.[.[.[.[.[.[.[.[.[.[.[.[.[.[.[.[.[.",
"[.[.[.[.[.[.[.[.[.[.[.[.# % = w 7 x z l k 4 q e = [.[.[.[.[.[.[.[.[.[.[.[.[.[.[.[.[.[.[.[.[.[.[.[.[.[.[.[.[.[.",
"[.[.[.[.[.[.[.[.[.[.[.[.. o $ % , 3 l l 2 @ & * & [.[.[.[.[.[.[.[.[.[.[.[.[.[.[.[.[.[.[.[.[.[.[.[.[.[.[.[.[.[.",
"[.[.[.[.[.[.[.[.[.[.[.[.[.. o o O [.[.[.[.. o o [.[.[.[.[.[.[.[.[.[.[.[.[.[.[.[.[.[.[.[.[.[.[.[.[.[.[.[.[.[.[.",
"[.[.[.[.[.[.[.[.[.[.[.[.[.[.[.[.[.[.[.[.[.[.[.[.[.[.[.[.[.[.[.[.[.[.[.[.[.[.[.[.[.[.[.[.[.[.[.[.[.[.[.[.[.[.[.",
"[.[.[.[.[.[.[.[.[.[.[.[.[.[.[.[.[.[.[.[.[.[.[.[.[.[.[.[.[.[.[.[.[.[.[.[.[.[.[.[.[.[.[.[.[.[.[.[.[.[.[.[.[.[.[.",
"[.[.[.[.[.[.[.[.[.[.[.[.[.[.[.[.[.[.[.[.[.[.[.[.[.[.[.[.[.[.[.[.[.[.[.[.[.[.[.[.[.[.[.[.[.[.[.[.[.[.[.[.[.[.[.",
"[.[.[.[.[.[.[.[.[.[.[.[.[.[.[.[.[.[.[.[.[.[.[.[.[.[.[.[.[.[.[.[.[.[.[.[.[.[.[.[.[.[.[.[.[.[.[.[.[.[.[.[.[.[.[.",
"[.[.[.[.[.[.[.[.[.[.[.[.[.[.[.[.[.[.[.[.[.[.[.[.[.[.[.[.[.[.[.[.[.[.[.[.[.[.[.[.[.[.[.[.[.[.[.[.[.[.[.[.[.[.[.",
"[.[.[.[.[.[.[.[.[.[.[.[.[.[.[.[.[.[.[.[.[.[.[.[.[.[.[.[.[.[.[.[.[.[.[.[.[.[.[.[.[.[.[.[.[.[.[.[.[.[.[.[.[.[.[.",
"[.[.[.[.[.[.[.[.[.[.[.[.[.[.[.[.[.[.[.[.[.[.[.[.[.[.[.[.[.[.[.[.[.[.[.[.[.[.[.[.[.[.[.[.[.[.[.[.[.[.[.[.[.[.[."
};
