/* XPM */
static char *result[] = {
/* columns rows colors chars-per-pixel */
"48 48 150 2 ",
"   c #04060B",
".  c #05090D",
"X  c #090A0D",
"o  c #15070C",
"O  c #1B0509",
"+  c #17120A",
"@  c #070B11",
"#  c #0B0C14",
"$  c #0D0C19",
"%  c #120A10",
"&  c #1C0B10",
"*  c #110E1E",
"=  c #031017",
"-  c #0A1117",
";  c #0E151B",
":  c #111215",
">  c #1E1C15",
",  c #12131B",
"<  c #14191D",
"1  c #22060C",
"2  c #230B0D",
"3  c #3D0205",
"4  c #3D0A06",
"5  c #31090C",
"6  c #3D090A",
"7  c #21140C",
"8  c #250E13",
"9  c #2F0912",
"0  c #300C15",
"q  c #390E14",
"w  c #320D1B",
"e  c #2D1510",
"r  c #23131E",
"t  c #2F171F",
"y  c #22191B",
"u  c #32101C",
"i  c #321A1C",
"p  c #25221B",
"a  c #3C2A1D",
"s  c #110F20",
"d  c #151327",
"f  c #1B1325",
"g  c #151D23",
"h  c #191C24",
"j  c #251121",
"k  c #201A26",
"l  c #1B2227",
"z  c #1A2329",
"x  c #21252A",
"c  c #362422",
"v  c #262C31",
"b  c #2E3339",
"n  c #460B06",
"m  c #5E0F05",
"M  c #580608",
"N  c #4E150A",
"B  c #51120A",
"V  c #451115",
"C  c #47181C",
"Z  c #511719",
"A  c #630505",
"S  c #6D0503",
"D  c #6A0900",
"F  c #730501",
"G  c #7C0301",
"H  c #740B01",
"J  c #7C0F00",
"K  c #7A0808",
"L  c #651C0B",
"P  c #7E1105",
"I  c #7D150C",
"U  c #741F0C",
"Y  c #7A1E0C",
"T  c #6D1817",
"R  c #50240A",
"E  c #513B19",
"W  c #6F2A08",
"Q  c #79340F",
"!  c #7E2E1A",
"~  c #693319",
"^  c #6B3F18",
"/  c #63471F",
"(  c #78551D",
")  c #5D462C",
"_  c #5B4B3C",
"`  c #734922",
"'  c #614D3B",
"]  c #695234",
"[  c #6B5C3D",
"{  c #726445",
"}  c #830701",
"|  c #8B0500",
" . c #820B02",
".. c #890A02",
"X. c #960F02",
"o. c #9E0F00",
"O. c #8C1303",
"+. c #881803",
"@. c #821E0C",
"#. c #931B03",
"$. c #A20D00",
"%. c #AB1402",
"&. c #B41606",
"*. c #B31B0B",
"=. c #B91B0A",
"-. c #8B2109",
";. c #9B2605",
":. c #86321A",
">. c #A22904",
",. c #AA2804",
"<. c #A43A13",
"1. c #C41C08",
"2. c #C91C09",
"3. c #CE2A04",
"4. c #C02C08",
"5. c #CC3A0C",
"6. c #D93F0A",
"7. c #B44513",
"8. c #815121",
"9. c #905A3A",
"0. c #86642C",
"q. c #89632F",
"w. c #8D6F2F",
"e. c #906B2D",
"r. c #99763B",
"t. c #98783D",
"y. c #CF4B0F",
"u. c #DC4108",
"i. c #C94E15",
"p. c #EE530F",
"a. c #E35111",
"s. c #877042",
"d. c #89704F",
"f. c #9D7C41",
"g. c #897753",
"h. c #A48645",
"j. c #AD8E56",
"k. c #B18E59",
"l. c #AB925E",
"z. c #B29159",
"x. c #B8995E",
"c. c #A18C65",
"v. c #AB9462",
"b. c #C7A76C",
"n. c #C8A769",
"m. c #CAAB6C",
"M. c #CFB173",
"N. c #D3B678",
"B. c #D6B97A",
"V. c #EBCF90",
/* pixels */
"d d d d d d d d d d d d d d d d d d d d d d d d d d d d d d d d d d d d d d d d d d d d d d d d ",
"d d d d d d d d d d d d d d d d d d d d d d d d d d d d d d d d d d d d d d d d d d d d d d d d ",
"d d d d d d d d d d d d d d d d d d d d d d d d d d d d d d d d d d d d d d d d d d d d d d d d ",
"d d d d d d d d d d d d d d d d d d d d d d d d d d d d d d d d d d d d d d d d d d d d d d d d ",
"d d d d d d d d d d d d d d d d d d d d d d d d d d d d d d d d d d d d d d d d d d d d d d d d ",
"d d d d d d d d d d d d d d d d d d d d d d d d d d d d d d d d d d d d d d d d d d d d d d d d ",
"d d d d d d d d d d d d d d d d d d d d d d d d d d d d d d d d d d d d d d d d d d d d d d d d ",
"d d d d d d d d d d d d d d d d d d d d d d d d d d d d d d d d d d d d d d d d d d d d d d d d ",
"d d d d d d d d d d d d d d d d d d d d d d d d d d d d d d d d d d d d d d d d d d d d d d d d ",
"d d d d d d d d d d d d d d d d d d d d d d d d d d d d d d d d d d d d d d d d d d d d d d d d ",
"d d d d d d d d d d d d d d d d d d d d d d d d d d d d d d d d d d d d d d d d d d d d d d d d ",
"d d d d d d d d d d d d d d d d d d d d d d d d d d d d d d d d d d d d d d d d d d d d d d d d ",
"d d d d d d d d d d d d d d d d d d d d d d d d d d d d d d d d d d d d d d d d d d d d d d d d ",
"d d d d d d d d d d d d d d d d d d d d d d d d d d d d d d d d d d d d d d d d d d d d d d d d ",
"d d d d d d d d d d d d d d d d d d d d d d d d d d d d d d d d d d d d d d d d d d d d d d d d ",
"d d d d d d d d d d d d d d d d d d s $ # #   , d d d d d d d d d d d d d d d d d d d d d d d d ",
"d d d d d d d d d d d d d d d d s   @ , g x l < x $ , d d d d d d d d d d d d d d d d d d d d d ",
"d d d d d d d d d d d d d d d d * , , < v v l z h ; h d d d d d d d d d d d d d d d d d d d d d ",
"d d d d d d d d d d d d d d d d : - < b v t P  .O.I r * d d d d d d d d d d d d d d d d d d d d ",
"d d d d d d d d d d d d d d d # - # h < 6  .&.2.%.1.*.T f d d d d d d d d d d d d d d d d d d d ",
"d d d d d d d d d d d d d d $ @ . ; - 8 |  . .%...1.F =.V d d d d d d d d d d d d d d d d d d d ",
"d d d d d d d d d d d d d d @ # # . : M o.F F } G $.S F u d d d d d d d d d d d d d d d d d d d ",
"d d d d d d d d d d d d d d d $ . X : F O.L ^ ` U U R N f d f Z C d d d d d d d d d d d d d d d ",
"d d d d d d d d d d d d d d d     - & ..J w.[ p k.c.+ ) f j K 6.:.d d d d d d d d d d d d d d d ",
"d d d d d d d d d d d d d d $ . # # % G J h.s.+ M.g.> { < 0 %.p.! d d d d d d d d d d d d d d d ",
"d d d d d d d d d d d d d d d $ @ . : S H h.l.[ N.v.{ d.k O P -.t d d d d d d d d d d d d d d d ",
"d d d d d d d d d d d d d d d d $ # # 3 } r.M.m.z.z.V._ d , # $ d d d d d d d d d d d d d d d d ",
"d d d d d d d d d d d d d d d d s o n +.G Q f.x.f.k.9.j , X d d d d d d d d d d d d d d d d d d ",
"d d d d d d d d d d d d d d d d w X.5.4.H #.W p <.i.Y i 7 # d d d d d d d d d d d d d d d d d d ",
"d d d d d d d d d d d d d d d a 8.7.Y ..3.>.u.;.a.4.y.q.n.' d d d d d d d d d d d d d d d d d d ",
"d d d d d d d d d d d d d d d ( b.b.e % B -.,.#.~ q @.e.B.] d d d d d d d d d d d d d d d d d d ",
"d d d d d d d d d d d d d d d 0.j.t.m 6 = ; , , y H r E / k d d d d d d d d d d d d d d d d d d ",
"d d d d d d d d d d d d d d d c c 4 5 A D 4 O n  .L 3 # d d d d d d d d d d d d d d d d d d d d ",
"d d d d d d d d d d d d d d d d $ # l x V } F F 2 g v f d d d d d d d d d d d d d d d d d d d d ",
"d d d d d d d d d d d d d d d d @   # # @ 1 9 O . @ # X d d d d d d d d d d d d d d d d d d d d ",
"d d d d d d d d d d d d d d d d d $ $ * $ d d d $ $ $ d d d d d d d d d d d d d d d d d d d d d ",
"d d d d d d d d d d d d d d d d d d d d d d d d d d d d d d d d d d d d d d d d d d d d d d d d ",
"d d d d d d d d d d d d d d d d d d d d d d d d d d d d d d d d d d d d d d d d d d d d d d d d ",
"d d d d d d d d d d d d d d d d d d d d d d d d d d d d d d d d d d d d d d d d d d d d d d d d ",
"d d d d d d d d d d d d d d d d d d d d d d d d d d d d d d d d d d d d d d d d d d d d d d d d ",
"d d d d d d d d d d d d d d d d d d d d d d d d d d d d d d d d d d d d d d d d d d d d d d d d ",
"d d d d d d d d d d d d d d d d d d d d d d d d d d d d d d d d d d d d d d d d d d d d d d d d ",
"d d d d d d d d d d d d d d d d d d d d d d d d d d d d d d d d d d d d d d d d d d d d d d d d ",
"d d d d d d d d d d d d d d d d d d d d d d d d d d d d d d d d d d d d d d d d d d d d d d d d ",
"d d d d d d d d d d d d d d d d d d d d d d d d d d d d d d d d d d d d d d d d d d d d d d d d ",
"d d d d d d d d d d d d d d d d d d d d d d d d d d d d d d d d d d d d d d d d d d d d d d d d ",
"d d d d d d d d d d d d d d d d d d d d d d d d d d d d d d d d d d d d d d d d d d d d d d d d ",
"d d d d d d d d d d d d d d d d d d d d d d d d d d d d d d d d d d d d d d d d d d d d d d d d "
};
