/* XPM */
static char *_0cabb47e774483290f45f2951dd840arqbOcwmp4LD5JNRz[] = {
/* columns rows colors chars-per-pixel */
"50 54 130 2 ",
"   c None",
".  c #2E391F",
"X  c #323C1E",
"o  c #2D3820",
"O  c #313D23",
"+  c #36411F",
"@  c #3A441E",
"#  c #3F491D",
"$  c #344125",
"%  c #3A4420",
"&  c #3F4920",
"*  c #374528",
"=  c #384629",
"-  c #3A492B",
";  c #424B1E",
":  c #4C551E",
">  c #4E581F",
",  c #414C21",
"<  c #475122",
"1  c #4A5521",
"2  c #4E5923",
"3  c #535D23",
"4  c #566123",
"5  c #5A6524",
"6  c #5E6926",
"7  c #596528",
"8  c #5E6A29",
"9  c #616D27",
"0  c #626E29",
"q  c #677429",
"w  c #657229",
"e  c #68732A",
"r  c #69732A",
"t  c #687529",
"y  c #68742A",
"u  c #69742B",
"i  c #6A752B",
"p  c #69762A",
"a  c #69762B",
"s  c #6A772A",
"d  c #6A772B",
"f  c #6A762D",
"g  c #69762A",
"h  c #6B782B",
"j  c #6C792B",
"k  c #6C792C",
"l  c #6D792C",
"z  c #6D7A2C",
"x  c #6D7A2D",
"c  c #6E7A2C",
"v  c #6E7B2C",
"b  c #6E7A2D",
"n  c #6E7B2D",
"m  c #6F7B2D",
"M  c #6F7D2C",
"N  c #6F7C2D",
"B  c #6F7D2D",
"V  c #6F7C2E",
"C  c #6D7A2C",
"Z  c #707E2D",
"A  c #707D2E",
"S  c #707E2E",
"D  c #717F2E",
"F  c #727E2E",
"G  c #727F2E",
"H  c #717E2E",
"J  c #72802E",
"K  c #73802E",
"L  c #74802F",
"P  c #74812F",
"I  c #74822F",
"U  c #75832F",
"Y  c #76832F",
"T  c #74812F",
"R  c #768330",
"E  c #768430",
"W  c #778430",
"Q  c #778530",
"!  c #778531",
"~  c #778431",
"^  c #788530",
"/  c #788531",
"(  c #788630",
")  c #788631",
"_  c #798631",
"`  c #798731",
"'  c #7A8731",
"]  c #798631",
"[  c #7A8831",
"{  c #7B8832",
"}  c #7A8932",
"|  c #7B8932",
" . c #7C8932",
".. c #7C8A33",
"X. c #7D8B33",
"o. c #7E8B33",
"O. c #7E8C33",
"+. c #7F8C33",
"@. c #7F8C34",
"#. c #7F8D34",
"$. c #7D8B33",
"%. c #808D34",
"&. c #818E34",
"*. c #818F34",
"=. c #818F35",
"-. c #818F35",
";. c #829035",
":. c #829135",
">. c #839135",
",. c #839136",
"<. c #849236",
"1. c #849336",
"2. c #869437",
"3. c #879537",
"4. c #849236",
"5. c #889637",
"6. c #899738",
"7. c #889638",
"8. c #899838",
"9. c #8A9838",
"0. c #8B9939",
"q. c #8C9B39",
"w. c #8D9C3A",
"e. c #8C9B3A",
"r. c #909E3B",
"t. c #909F3B",
"y. c #91A03B",
"u. c #91A03C",
"i. c #94A33D",
"p. c #95A43D",
/* pixels */
"                                                    O                                               ",
"                                                  o                                                 ",
"                                                  6         4                                       ",
"                                                * 6       = 4                                       ",
"                                                + 6       0 o                                       ",
"                                                t 6       0                                         ",
"                                          =   o t 6     + w                                         ",
"                                          o   O C 8     q P                                         ",
"                                          o   0 ` 6   = q 9                                         ",
"                                          3 * W :.6   o E O     O 6                                 ",
"                                          ` O ` :.6 o D =.o $ o 6                                   ",
"                          =               ` O w.:.6 3 D G   o w o                                   ",
"                                          ` * u.=.9 0 6.q C w 0                                     ",
"                            3 o         o f O w.=.6 t e.w 1.q       O                               ",
"                            O ` $       o . <  .r 6 G  .% h 2     6         O                       ",
"                 .            ` G   1   o ` R ` t 6 ` y.e.h $ @ 9 o     o 0                         ",
"                . ,     o       ` h 3 6   e.>.4 t 3 { ` G t w w O     w w                           ",
"                  @.|     4   E f :.w o . r.l 9 w ; , R G % w o   1 @.w                             ",
"                  X.i.` o < h   X h 4 O 6 P G q @ X ` ` R h 3 O O %.q O   O 6 2 6 ,                 ",
"                    | t.R E h h o @ 2 9 % . 1.4 4 X l w 6.l   l + 1.t w P 9 9 6 O                   ",
"                    O u.Y M E :.M w . . @ 5 5.; 3 % l w e.o o X e.1.w | w 9 o                       ",
"                    o ` w.h R q w X.9 9 w l 6.9 > %  .y.M f 2 K M 5 t q 1 *                         ",
"                = O   o R e.0 t 6 w | 5 @ M o  .; X ; u.6.t 7 l ; 6 q w w $                         ",
"                     .o K M | 6 w 5 3 > 5 0 l % > . l u.G 2 r & 1 h q w w 9 6 .     o               ",
"                      E E 8.h q q 4 3 > : : t 4 > . X.E 0 r 4 w 8 6 J w o   o h X   O o o o         ",
"                  o o 3 , M :.| 9 9 @ X : : : 9 > @  .@ l | w G 8 h . M E G f h t w w 9 9 3 @ . o o ",
"                - o 9 8 6 $ :.h 9 9 > 3 ; . w 9 > X 5 X l u A 0 x h q o w t 6 5 6 @. .9 9 .         ",
"          = :.@.G 8 4 9 6 6 & Y q 5 5 6 X ; w X X 6 6 5 A . 3 ` R R 3 w X 6 6 r t K w o             ",
"  o  .E 8 w l :.@.w 0 8 6 5 u t q 9 6 X t q w 3 3 9 6 6 o X. .=.K K u & w.6.6.:.t w o               ",
"      . P G l + o = 6 o = ; 0 W 6 X C s >.9 4 > > 4 6 2 : X.{ ` E | X.h X O o O                     ",
"  0  .O             o < w @.A X P . . >.t @ 3 : 3 9 6 5 5 3 l ` R K M l h                           ",
"O                 O E X.X.0 2 3 2 @ M . t 9 3 9 3 9 W 6 1 O f r 0 2.e.l h 2                         ",
"                  w h o $ 9 9 : @ X 1 h 3 9 3 2  .9 P . O .  ., w 0 C l .                           ",
"                o 0 h h q 3 X 3 6 5 M K 4 : 3 ;  .9 s 6 3 @.3 ` l @ 6 6 h q , o o                   ",
"                8 8.E q 4 t 5  .6 0 . >.t 4 + 9  .6 6 6 0 l  .f R w 6 @ 7 4 E w 9 9 6 5 o           ",
"              w w.7.1.q h X t 9 o O P | t 4 5 ` G 9 + 6 =.:.f ` l K 6 l h #.M 0 9 9 5               ",
"            5 w.e.M w t + o O 2   0 6.C 5 q w @.9 9 . 6 R i.>.` E K M X.3 u w w 9 6 X o             ",
"          O ` . K   h 3   o       o 6.h 9 4 E | 9 9 . 6 $ E i.u.Y e.6.M u u @.q 3                   ",
"        . o   $     1             G :.h h 4 @...9 9 O 3     $ ` . O M R 1.h q X.` ` 6 4 o           ",
"      o                           G K G h  .q 0 3 # $ O         t     o u q w o 3 9 6 6 O           ",
"                                o D =.=.f =.w w o o   o           @       O O   o o     O O o       ",
"                                M R 7.=.q w 2 w   -   O                                             ",
"                                R M 7.G t q o w                                                     ",
"                                o G 7.h 3 6 $ ,                                                     ",
"                              $   D 6.l o o   O                                                     ",
"                              o   O 7.h   O                                                         ",
"                                  o 2.u                                                             ",
"                                    V o                                                             ",
"                                    l O                                                             ",
"                                    M -                                                             ",
"                                    2                                                               ",
"                                    o                                                               ",
"                                      O                                                             ",
"                                      =                                                             "
};
