/* XPM */
static char *result[] = {
/* columns rows colors chars-per-pixel */
"50 50 216 2 ",
"   c black",
".  c #000101",
"X  c #010101",
"o  c #010102",
"O  c #010202",
"+  c #010203",
"@  c #020202",
"#  c #020303",
"$  c #050000",
"%  c #060000",
"&  c #010205",
"*  c #020304",
"=  c #030304",
"-  c #030406",
";  c #030506",
":  c #030507",
">  c #040505",
",  c #070506",
"<  c #050607",
"1  c #060607",
"2  c #030508",
"3  c #030609",
"4  c #03060A",
"5  c #060708",
"6  c #04070B",
"7  c #060809",
"8  c #07090A",
"9  c #04080D",
"0  c #04090E",
"q  c #080A0C",
"w  c #0A0B0D",
"e  c #0B0C0D",
"r  c #0F0C0D",
"t  c #1A0300",
"y  c #060B10",
"u  c #060B11",
"i  c #060C11",
"p  c #070C11",
"a  c #070C12",
"s  c #080C11",
"d  c #080D12",
"f  c #080D13",
"g  c #0C0F11",
"h  c #0D0F12",
"j  c #090F15",
"k  c #0B0F15",
"l  c #0D1011",
"z  c #0B1116",
"x  c #0A1118",
"c  c #0B1118",
"v  c #0B1218",
"b  c #0B1219",
"n  c #0E1118",
"m  c #0C1319",
"M  c #0E151B",
"N  c #0F151C",
"B  c #101113",
"V  c #12141A",
"C  c #13171B",
"Z  c #10171D",
"A  c #11171D",
"S  c #14181D",
"D  c #15191E",
"F  c #200400",
"G  c #280607",
"H  c #2C0906",
"J  c #29080B",
"K  c #2F0D0F",
"L  c #350000",
"P  c #3F0000",
"I  c #271316",
"U  c #322813",
"Y  c #362818",
"T  c #141A20",
"R  c #151B20",
"E  c #181D22",
"W  c #191E23",
"Q  c #1C1F22",
"!  c #1A1F24",
"~  c #1D2328",
"^  c #212528",
"/  c #21272C",
"(  c #23282E",
")  c #272C32",
"_  c #2B2F34",
"`  c #2A2F35",
"'  c #32383F",
"]  c #32393F",
"[  c #430000",
"{  c #400200",
"}  c #470200",
"|  c #400606",
" . c #490100",
".. c #420800",
"X. c #530000",
"o. c #560400",
"O. c #5D0000",
"+. c #5C0100",
"@. c #4A1005",
"#. c #4B1105",
"$. c #600000",
"%. c #650000",
"&. c #680000",
"*. c #6B0000",
"=. c #6A0500",
"-. c #710100",
";. c #770000",
":. c #790000",
">. c #7F0000",
",. c #790400",
"<. c #720D06",
"1. c #7D1008",
"2. c #573109",
"3. c #5B3409",
"4. c #5A350A",
"5. c #5C3409",
"6. c #5E380C",
"7. c #6E3B1A",
"8. c #4A3F29",
"9. c #66400E",
"0. c #6F4A1C",
"q. c #765E2D",
"w. c #725E3C",
"e. c #363C42",
"r. c #373E44",
"t. c #800000",
"y. c #830000",
"u. c #850000",
"i. c #860000",
"p. c #8D0300",
"a. c #8E0400",
"s. c #870B00",
"d. c #880800",
"f. c #880802",
"g. c #8D0C01",
"h. c #970800",
"j. c #990800",
"k. c #980900",
"l. c #980A00",
"z. c #9D0900",
"x. c #9D0B01",
"c. c #9C0F01",
"v. c #841703",
"b. c #841A03",
"n. c #981001",
"m. c #9B1101",
"M. c #9D1101",
"N. c #9F1101",
"B. c #9D1301",
"V. c #A10D01",
"C. c #AB1201",
"Z. c #AA1706",
"A. c #AA1902",
"S. c #B01501",
"D. c #B11501",
"F. c #B21501",
"G. c #B31601",
"H. c #B21D02",
"J. c #BD1F02",
"K. c #B21A08",
"L. c #9D2203",
"P. c #902905",
"I. c #992E05",
"U. c #962D0C",
"Y. c #963711",
"T. c #AF2F0E",
"R. c #BE3406",
"E. c #C01A05",
"W. c #C12203",
"Q. c #CC2C04",
"!. c #CE2F05",
"~. c #D1200B",
"^. c #DD240E",
"/. c #D23105",
"(. c #D33D07",
"). c #DA3C07",
"_. c #DF3D07",
"`. c #D42612",
"'. c #F12C13",
"]. c #FE3017",
"[. c #83611B",
"{. c #86641E",
"}. c #825E25",
"|. c #885B36",
" X c #8B682B",
".X c #957132",
"XX c #9D7B34",
"oX c #94713E",
"OX c #9D7839",
"+X c #A17F38",
"@X c #E64408",
"#X c #E94608",
"$X c #F25E15",
"%X c #FD7824",
"&X c #877245",
"*X c #9E7D46",
"=X c #A1804A",
"-X c #A68450",
";X c #B69653",
":X c #B6975E",
">X c #BC9D5C",
",X c #BFA05F",
"<X c #B69661",
"1X c #BF9F6A",
"2X c #C3A565",
"3X c #C5A76C",
"4X c #CCAE6F",
"5X c #CCAF72",
"6X c #CEAF78",
"7X c #CDB073",
"8X c #D1B476",
"9X c #D1B477",
"0X c #DFC289",
"qX c #EBCF94",
"wX c #ECD095",
"eX c None",
/* pixels */
"eXeXeXeXeXeXeXeXeXeXeXeXeXeXeXeXeXeXeXeXeXeXeXeXeXeXeXeXeXeXeXeXeXeXeXeXeXeXeXeXeXeXeXeXeXeXeXeXeXeX",
"eXeXeXeXeXeXeXeXeXeXeXeXeXeXeXeXeXeXeXeXeXeXeXeXeXeXeXeXeXeXeXeXeXeXeXeXeXeXeXeXeXeXeXeXeXeXeXeXeXeX",
"eXeXeXeXeXeXeXeXeXeXeXeXeXeXeXeXeXeXeXeXeXeXeXeXeXeXeXeXeXeXeXeXeXeXeXeXeXeXeXeXeXeXeXeXeXeXeXeXeXeX",
"eXeXeXeXeXeXeXeXeXeXeXeXeXeXeXeXeXeXeXeXeXeXeXeXeXeXeXeXeXeXeXeXeXeXeXeXeXeXeXeXeXeXeXeXeXeXeXeXeXeX",
"eXeXeXeXeXeXeXeXeXeXeXeXeXeXeXeXeXeXeXeXeXeXeXeXeXeXeXeXeXeXeXeXeXeXeXeXeXeXeXeXeXeXeXeXeXeXeXeXeXeX",
"eXeXeXeXeXeXeXeXeXeXeXeXeXeXeXeXeXeXeXeXeXeXeXeXeXeXeXeXeXeXeXeXeXeXeXeXeXeXeXeXeXeXeXeXeXeXeXeXeXeX",
"eXeXeXeXeXeXeXeXeXeXeXeXeXeXeXeXeXeXeXeXeXeXeXeXeXeXeXeXeXeXeXeXeXeXeXeXeXeXeXeXeXeXeXeXeXeXeXeXeXeX",
"eXeXeXeXeXeXeXeXeXeXeXeXeXeXeXeXeXeXeXeXeXeXeXeXeXeXeXeXeXeXeXeXeXeXeXeXeXeXeXeXeXeXeXeXeXeXeXeXeXeX",
"eXeXeXeXeXeXeXeXeXeXeXeXeXeXeXeXeXeXeXeXeXeXeXeXeXeXeXeXeXeXeXeXeXeXeXeXeXeXeXeXeXeXeXeXeXeXeXeXeXeX",
"eXeXeXeXeXeXeXeXeXeXeXeXeXeXeXeXeXeXeXeXeXeXeXeXeXeXeXeXeXeXeXeXeXeXeXeXeXeXeXeXeXeXeXeXeXeXeXeXeXeX",
"eXeXeXeXeXeXeXeXeXeXeXeXeXeXeXeXeXeXeXeXeXeXeXeXeXeXeXeXeXeXeXeXeXeXeXeXeXeXeXeXeXeXeXeXeXeXeXeXeXeX",
"eXeXeXeXeXeXeXeXeXeXeXeXeXeXeXeXeXeXeXeXeXeXeXeXeXeXeXeXeXeXeXeXeXeXeXeXeXeXeXeXeXeXeXeXeXeXeXeXeXeX",
"eXeXeXeXeXeXeXeXeXeXeXeXeXeXeXeXeXeXeXeXeXeXeXeXeXeXeXeXeXeXeXeXeXeXeXeXeXeXeXeXeXeXeXeXeXeXeXeXeXeX",
"eXeXeXeXeXeXeXeXeXeXeXeXeXeXeXeXeXeXeXeXeXeXeXeXeXeXeXeXeXeXeXeXeXeXeXeXeXeXeXeXeXeXeXeXeXeXeXeXeXeX",
"eXeXeXeXeXeXeXeXeXeXeXeXeXeXeXeXeXeXeXeXeXeXeXeXeXeXeXeXeXeXeXeXeXeXeXeXeXeXeXeXeXeXeXeXeXeXeXeXeXeX",
"eXeXeXeXeXeXeXeXeXeXeXeXeXeXeXeXeXeXeXeXeXeXeXeXeXeXeXeXeXeXeXeXeXeXeXeXeXeXeXeXeXeXeXeXeXeXeXeXeXeX",
"eXeXeXeXeXeXeXeXeXeXeXeXeXeXeXeXeXeXeXeXeXeXeXeXeXeXeXeXeXeXeXeXeXeXeXeXeXeXeXeXeXeXeXeXeXeXeXeXeXeX",
"eXeXeXeXeXeXeXeXeXeXeXeXeXeXeXeXeXeXeXeXeXeXeXeXeXeXeXeXeXeXeXeXeXeXeXeXeXeXeXeXeXeXeXeXeXeXeXeXeXeX",
"eXeXeXeXeXeXeXeXeXeXeXeXeXeXeXeXeXeXeXeXeXeXeXeXeXeXeXeXeXeXeXeXeXeXeXeXeXeXeXeXeXeXeXeXeXeXeXeXeXeX",
"eXeXeXeXeXeXeXeXeXeXeXeXeXeXeXeXeXeXeXeXeXeXeXeXeXeXeXeXeXeXeXeXeXeXeXeXeXeXeXeXeXeXeXeXeXeXeXeXeXeX",
"eXeXeXeXeXeXeXeXeXeXeXeXeXeXeXeXeXeXeXeXeXeXeXeXeXeXeXeXeXeXeXeXeXeXeXeXeXeXeXeXeXeXeXeXeXeXeXeXeXeX",
"eXeXeXeXeXeXeXeXeXeXeXeXeXeXeXeXeXeXeXeXeXeXeXeXeXeXeXeXeXeXeXeXeXeXeXeXeXeXeXeXeXeXeXeXeXeXeXeXeXeX",
"eXeXeXeXeXeXeXeXeXeXeXeXeX+ = = = : 5 eXeXeXeXeXeXeXeXeXeXeXeXeXeXeXeXeXeXeXeXeXeXeXeXeXeXeXeXeXeXeX",
"eXeXeXeXeXeXeXeXeXeXeX  - T T ~ ' ) c e.eXeXeXeXeXeXeXeXeXeXeXeXeXeXeXeXeXeXeXeXeXeXeXeXeXeXeXeXeXeX",
"eXeXeXeXeXeXeXeXeXeXeX< E C e / / W ] W 7 ^ eXeXeXeXeXeXeXeXeXeXeXeXeXeXeXeXeXeXeXeXeXeXeXeXeXeXeXeX",
"eXeXeXeXeXeXeXeXeXeXq N 6 r./ W K Z.n.K.`.I eXeXeXeXeXeXeXeXeXeXeXeXeXeXeXeXeXeXeXeXeXeXeXeXeXeXeXeX",
"eXeXeXeXeXeXeXeXeXeXA 9 W T R $.g.~.^.d.G.'.1.eXeXeXeXeXeXeXeXeXeXeXeXeXeXeXeXeXeXeXeXeXeXeXeXeXeXeX",
"eXeXeXeXeXeXeXeXeXd 0 D m v J p.-.+.F.k.].%.E.1.eXeXeXeXeXeXeXeXeXeXeXeXeXeXeXeXeXeXeXeXeXeXeXeXeXeX",
"eXeXeXeXeXeXeXeXeX# ; b 4 S ;.M.h.i.x.i.D.=. .<.eXeXeXeXeXeXeXeXeXeXeXeXeXeXeXeXeXeXeXeXeXeXeXeXeXeX",
"eXeXeXeXeXeXeXeXeXeXb 0 h n i.m.u.[.@.O.u.{ } eXeXeXeXeXeXeXeXeXeXeXeXeXeXeXeXeXeXeXeXeXeXeXeXeXeXeX",
"eXeXeXeXeXeXeXeXeXeXy 9 M [ V.#.OXU 8.|.>X  w.eXeXeXl.%XeXeXeXeXeXeXeXeXeXeXeXeXeXeXeXeXeXeXeXeXeXeX",
"eXeXeXeXeXeXeXeXeX3     f [ x.#.2Xq.X 5X5X@ 3XeXeXj.Q.%XeXeXeXeXeXeXeXeXeXeXeXeXeXeXeXeXeXeXeXeXeXeX",
"eXeXeXeXeXeXeXeXeXeXeXb 2 V i.#.2X&X> 5X7Xl 0XeX  j.Q.T.eXeXeXeXeXeXeXeXeXeXeXeXeXeXeXeXeXeXeXeXeXeX",
"eXeXeXeXeXeXeXeXeXeX& 4 g k >.#.2X5X5X5X5X9X1XeX= 1 X.eXeXeXeXeXeXeXeXeXeXeXeXeXeXeXeXeXeXeXeXeXeXeX",
"eXeXeXeXeXeXeXeXeXeXeXeXa o *.M.+X5X5X0.:XqXeXeXB . eXeXeXeXeXeXeXeXeXeXeXeXeXeXeXeXeXeXeXeXeXeXeXeX",
"eXeXeXeXeXeXeXeXeXeXeX  ..!.L.:.P. X*X=X<Xb.eXeX8 eXeXeXeXeXeXeXeXeXeXeXeXeXeXeXeXeXeXeXeXeXeXeXeXeX",
"eXeXeXeXeXeXeXeXeXeXeXz./.f.J.o.R.I.* @X#XY.3.2.  eXeXeXeXeXeXeXeXeXeXeXeXeXeXeXeXeXeXeXeXeXeXeXeXeX",
"eXeXeXeXeXeXeXeXeXeXXX-XU.$ s.W.(.#X).$Xc._.}.8X6XeXeXeXeXeXeXeXeXeXeXeXeXeXeXeXeXeXeXeXeXeXeXeXeXeX",
"eXeXeXeXeXeXeXeXeX5.;XwXoXx b O v.H.A.Q eXt.{.,X.XeXeXeXeXeXeXeXeXeXeXeXeXeXeXeXeXeXeXeXeXeXeXeXeXeX",
"eXeXeXeXeXeXeXeXeX5.4X6.7.y.H b Z Z Z w S.eXY 9.eXeXeXeXeXeXeXeXeXeXeXeXeXeXeXeXeXeXeXeXeXeXeXeXeXeX",
"eXeXeXeXeXeXeXeXeXeX4.P G r &.C.F t B.N., |   eXeXeXeXeXeXeXeXeXeXeXeXeXeXeXeXeXeXeXeXeXeXeXeXeXeXeX",
"eXeXeXeXeXeXeXeXeXeXeXs N ! ` L a.,.i.z W ( _ eXeXeXeXeXeXeXeXeXeXeXeXeXeXeXeXeXeXeXeXeXeXeXeXeXeXeX",
"eXeXeXeXeXeXeXeXeXeXeX9 i j j a P P % u j j p eXeXeXeXeXeXeXeXeXeXeXeXeXeXeXeXeXeXeXeXeXeXeXeXeXeXeX",
"eXeXeXeXeXeXeXeXeXeXeXeXeXeXeXeXeXeXeXeXeXeXeXeXeXeXeXeXeXeXeXeXeXeXeXeXeXeXeXeXeXeXeXeXeXeXeXeXeXeX",
"eXeXeXeXeXeXeXeXeXeXeXeXeXeXeXeXeXeXeXeXeXeXeXeXeXeXeXeXeXeXeXeXeXeXeXeXeXeXeXeXeXeXeXeXeXeXeXeXeXeX",
"eXeXeXeXeXeXeXeXeXeXeXeXeXeXeXeXeXeXeXeXeXeXeXeXeXeXeXeXeXeXeXeXeXeXeXeXeXeXeXeXeXeXeXeXeXeXeXeXeXeX",
"eXeXeXeXeXeXeXeXeXeXeXeXeXeXeXeXeXeXeXeXeXeXeXeXeXeXeXeXeXeXeXeXeXeXeXeXeXeXeXeXeXeXeXeXeXeXeXeXeXeX",
"eXeXeXeXeXeXeXeXeXeXeXeXeXeXeXeXeXeXeXeXeXeXeXeXeXeXeXeXeXeXeXeXeXeXeXeXeXeXeXeXeXeXeXeXeXeXeXeXeXeX",
"eXeXeXeXeXeXeXeXeXeXeXeXeXeXeXeXeXeXeXeXeXeXeXeXeXeXeXeXeXeXeXeXeXeXeXeXeXeXeXeXeXeXeXeXeXeXeXeXeXeX",
"eXeXeXeXeXeXeXeXeXeXeXeXeXeXeXeXeXeXeXeXeXeXeXeXeXeXeXeXeXeXeXeXeXeXeXeXeXeXeXeXeXeXeXeXeXeXeXeXeXeX"
};
