/* XPM */
static char *result[] = {
/* columns rows colors chars-per-pixel */
"48 48 2 1 ",
"  c #417CDC",
". c #5AA1EE",
/* pixels */
"                                                ",
"                                                ",
"                                                ",
"                                                ",
"                                                ",
"                                                ",
"                                                ",
"                                                ",
"                                                ",
"                                                ",
"                                                ",
"                                                ",
"                                                ",
"                                                ",
"   .........................                    ",
"  ...........................                   ",
" .............................                  ",
" .............................                  ",
" .............................                  ",
"  ...........................                   ",
"   .........................                    ",
"                                                ",
"                                                ",
"                                                ",
"                    .........................   ",
"                   ...........................  ",
"                  ............................. ",
"                  ............................. ",
"                  ............................. ",
"                   ...........................  ",
"                    .........................   ",
"                                                ",
"                                                ",
"                                                ",
"                                                ",
"                                                ",
"                                                ",
"                                                ",
"                                                ",
"                                                ",
"                                                ",
"................................................",
"................................................",
"................................................",
"................................................",
"................................................",
"................................................",
"................................................"
};
