/* XPM */
static char *result[] = {
/* columns rows colors chars-per-pixel */
"48 48 4 1 ",
"  c #151327",
". c #520D1B",
"X c #822437",
"o c #93293E",
/* pixels */
"                                                ",
"                                                ",
"                                                ",
"                                                ",
"                                                ",
"                                                ",
"XXXXX.   .XXXXXXXXXXX.   .XXXXXXXXXXX.          ",
"XXXXXX. .XXXXXXXXXXXXX. .XXXXXXXXXXXXX.         ",
"XXXXXXX XXXXXXXXXXXXXXX XXXXXXXXXXXXXXX         ",
"XXXXXXX XXXXXXXXXXXXXXX XXXXXXXXXXXXXXX         ",
"XXXXXXX XXXXXXXXXXXXXXX XXXXXXXXXXXXXXX         ",
"XXXXXX. .XXXXXXXXXXXXX. .XXXXXXXXXXXXX.         ",
"XXXXX.   .XXXXXXXXXXX.   .XXXXXXXXXXX.          ",
"                                                ",
" .XXXXXXXXXXX.   .XXXXXXXXXXX.   .XXXXXXXXXXX.  ",
".XXXXXXXXXXXXX. .XXXXXXXXXXXXX. .XXXXXXXXXXXXX. ",
"XXXXXXXXXXXXXXX XXXXXXXXXXXXXXX XXXXXXXXXXXXXXX ",
"XXXXXXXXXXXXXXX XXXXXXXXXXXXXXX XXXXXXXXXXXXXXX ",
"XXXXXXXXXXXXXXX XXXXXXXXXXXXXXX XXXXXXXXXXXXXXX ",
".XXXXXXXXXXXXX. .XXXXXXXXXXXXX. .XXXXXXXXXXXXX. ",
" .XXXXXXXXXXX.   .XXXXXXXXXXX.   .XXXXXXXXXXX.  ",
"                                                ",
"XXXXX.   .ooooooooooo.   .XXXXXXXXXXX.   .XXXXXX",
"XXXXXX. .ooooooooooooo. .XXXXXXXXXXXXX. .XXXXXXX",
"XXXXXXX ooooooooooooooo XXXXXXXXXXXXXXX XXXXXXXX",
"XXXXXXX ooooooooooooooo XXXXXXXXXXXXXXX XXXXXXXX",
"XXXXXX. .ooooooooooooo. .XXXXXXXXXXXXX. .XXXXXXX",
"XXXXX.. ..ooooooooooo.. ..XXXXXXXXXXX.. ..XXXXXX",
"......   .............   .............   .......",
"                                                ",
" .ooooooooooo.   .ooooooooooo.   .ooooooooooo.  ",
".ooooooooooooo. .ooooooooooooo. .ooooooooooooo. ",
"ooooooooooooooo ooooooooooooooo ooooooooooooooo ",
"ooooooooooooooo ooooooooooooooo ooooooooooooooo ",
".ooooooooooooo. .ooooooooooooo. .ooooooooooooo. ",
"............... ............... ............... ",
" .............   .............   .............  ",
"                                                ",
"XXXXX.   .XXXXXXXXXXX.   .XXXXXXXXXXX.   .XXXXXX",
"XXXXXX. .XXXXXXXXXXXXX. .XXXXXXXXXXXXX. .XXXXXXX",
"XXXXXXX XXXXXXXXXXXXXXX XXXXXXXXXXXXXXX XXXXXXXX",
"XXXXXXX XXXXXXXXXXXXXXX XXXXXXXXXXXXXXX XXXXXXXX",
"XXXXXXX XXXXXXXXXXXXXXX XXXXXXXXXXXXXXX XXXXXXXX",
"XXXXXX. .XXXXXXXXXXXXX. .XXXXXXXXXXXXX. .XXXXXXX",
"XXXXX.   .XXXXXXXXXXX.   .XXXXXXXXXXX.   .XXXXXX",
"                                                ",
"                                                ",
"                                                "
};
