/* XPM */
static char *result[] = {
/* columns rows colors chars-per-pixel */
"55 50 66 1 ",
"  c #17110C",
". c #1D150E",
"X c #1F1710",
"o c #21170F",
"O c #21180F",
"+ c #201710",
"@ c #241B12",
"# c #291E16",
"$ c #2C2117",
"% c #2E2218",
"& c #32251A",
"* c #36291D",
"= c #392B1E",
"- c #3C2E21",
"; c #3E3022",
": c #412F22",
"> c #433324",
", c #493526",
"< c #423528",
"1 c #4C3728",
"2 c #473828",
"3 c #4D3C2B",
"4 c #513E2C",
"5 c #4F402D",
"6 c #53412E",
"7 c #59422F",
"8 c #564331",
"9 c #5B4532",
"0 c #5D4935",
"q c #604533",
"w c #624B36",
"e c #684D37",
"r c #654E39",
"t c #684E39",
"y c #66513A",
"u c #6B533C",
"i c #6E583F",
"p c #71563E",
"a c #73593F",
"s c #6F5740",
"d c #6F5941",
"f c #735740",
"g c #745A42",
"h c #7A5D44",
"j c #7B6146",
"k c #7D6449",
"l c #7F684D",
"z c #805F46",
"x c #816147",
"c c #82644A",
"v c #89674B",
"b c #856A4D",
"n c #886C4F",
"m c #866E51",
"M c #896E50",
"N c #877152",
"B c #8C7454",
"V c #8E7857",
"C c #8D7758",
"Z c #8F7B5A",
"A c #927455",
"S c #907857",
"D c #927C5B",
"F c #997E5D",
"G c #9A8565",
"H c #9F8867",
/* pixels */
"@2----&-;;;;;;-&&-*$##%#######*%%$##%#@#%%@#X#X#$$@@@& ",
"@33-<--%;;;;;=%-$-*$$$########*#@@@$$#@##$######&$##%& ",
"@2=>;&%&$--*-&%&$%$$$@$@#%@##@%#@@@$@#@@##@@X#X##@@@&% ",
"+-*><-;;***-;&&;*%%%%$$$#*###%%%$$$%#&#$#%##$%-$$#$#&&X",
"@=*--CbDkkjgjillddddyyyydljyyy0lguyyyk00ss0y0yjdyd8&%* ",
"@=**>kdbddyyyyyy000080000d00888808888j89088088sddd5**% ",
"X=**&i0j00d00888888855850y5555555335565343385280yy2$$$ ",
"O---&yyi00d0888855505555383355;5538355303338sy8585;%$%X",
"O--->rya00i6867665603333358333s<338336333893338055;&&=o",
"O;-;2wir8yyy888666656644558444r03464665648y4438t55;&>:.",
"X>;;>wi009r89877867666urs48443s0966666669ut9884r785*:=o",
".62;=i0w000098979877766u38484ss87w799677iw488889973;:=o",
"X67::aww00q00e99999979wu7auqssg4997aw999ur899999994=1:o",
".5,>1xaw000q0p779999p9aafaffggg999pat9990a9q9qwww07>4>o",
".>,,7eewee000awwwq0wqqfggghwwffqqrqpweqwqpuwqwutrr6,,1#",
".4,76eeee0e0epewuwwwwwehztwg9hfwwhqgwwwwwwpweetzrt71,1@",
"@14q4tetewwswwthpwrwwwwtztzzzxtrtftzwtwrtetehtfchuw114@",
"+114,ftttfehweeuretawhuthvcczttttefvstuttuuuhfnMvzz449@",
"+114,hssftvmcgfspuhvtjhsuMvMnffuupuMhfffMhfggCNCzxb9qq#",
"+414,hgghhNNvhghghjBhhmghMNNNBgbhhhhCCmhmBzccZZZvCmaqu%",
" 4441bssetwbwudytttgttgswlkkcutruustilkublbsbmmhgkhhwf-",
"+4t43s03t889yy9466844884ryyuw8wu98u86upifffgggwrtyssih-",
".0e4wss8w098iuid99898sssfssd080fs8d990ggghhjxvuyusfgjm-",
" hwr0ts0ttwwjjj0wwwg0gghhhhswwwfuwfryfbbmMjimBSvjbbmNG;",
"@X++XXXXXXXOOOXXXXXXXXX.+++++++o.XXO@@@@X$XXX$@@@@###%+",
"++++++++OOOOOOXXOXX.OXX.+*@@@@@@X$@O@OX@X@XXXX@X+@@+ooo",
"--####&#$@&&$$#$$$%&$$$&@%*<----=;<<>>;;&;---$%%%%##$#%",
"####@#%#@$@$@$@#$@$$$$&$@%&322*-**>;;;;%&&$-$$@$###$@#@",
"%$@@@@@@@@@$X$@$O@@@@X%&@%%;->*&*&&;&=&%&$$$$$$$@$$$#@@",
"&;%*&*&-&&&*&%%*-&&&*$&&@%%*-;2;5;;*=5=*<2&**&&&&&*%&&&",
"0dj00ywjy00d0000jjuyi$&&@%@*=;NjVkjjddddldiyyyyy0yjjj00",
"8808888i880880880iiir&&%O%$=*=dddiyyiyyy0000008808du888",
"553553363553555508yy3$$$X%$*=*0wy00ii8806685655566y0353",
"33338336303358y08483;$%$$$$;=*00jw8iy888668588555328333",
"y3333636333806334y445&*=$$$;;=00j08g888886566665343w333",
"0y5546665663u6663s482&;;O$$;;;00j0000098686656653644565",
"u0w4666766wuy96649944=:&$%$>;:7e0009098887676760uu68884",
"i04u790777eu667999094=1:$%$6::uey000009988778776u74w44w",
"f9997au999wp999999q9w:1:$&$7>:a0000099e999998089fquftup",
"f999uap7909gw99w9qwqq:1:%$$3>5azy0w000ee90990eweagafgpa",
"fwwwwttewqwwgqwwpfweq,,,:%$1,4qqwwwwqqpp00qqw9qwhgghwaq",
"fwwxqftwwrweueeewvetq,11&%$14qwettwweweaqppwwwwwfztqhep",
"tewftcterewetthefvvtt444=$%1q4qsttuewtruehwrwwwwwhtxzzz",
"ttuttvfuuuuuppghMMmcv444:$&141wsutftufttueeuhruzttvxcvu",
"fffffjMhgfMkfghBBCzzMwq4:$%141sfaapgbMbpfpfjgjpnffjMMMb",
"hchhhhNSNkbZccvDZZbCAfwt,#&444hhhhhzBBghhhhhAchNhhxCBNN",
"www9s9wgh0jjktgjbsssghet7%%444ss9w9quu9u099qu99u99ggggu",
"0st4s990fffgfhhj0wwssgffq%&q43ss49r84uuu9876686w48sutu4",
"9tg9rw00ghhhkhzbhggggghM9#-s404fw9s89rfsf998w99fssffiu8",
"sgssggsgAAAAmhmFFAmMBFDHd#:sssshtujyybbbfyuugyimbbcbjyu"
};
