/* XPM */
static char *result[] = {
/* columns rows colors chars-per-pixel */
"51 50 131 2 ",
"   c #262424",
".  c #292726",
"X  c #2A2827",
"o  c #2B2A2B",
"O  c #363535",
"+  c #3A3A3A",
"@  c #423D3C",
"#  c #46413E",
"$  c #49413E",
"%  c #3F4041",
"&  c #434444",
"*  c #4C4746",
"=  c #464845",
"-  c #484847",
";  c #474748",
":  c #474849",
">  c #4B4B4B",
",  c #4F514C",
"<  c #51524E",
"1  c #4E4F50",
"2  c #504F50",
"3  c #4F5050",
"4  c #545453",
"5  c #595654",
"6  c #575954",
"7  c #5A5A55",
"8  c #575759",
"9  c #565859",
"0  c #5A5B5A",
"q  c #635D5B",
"w  c #65625E",
"e  c #68625F",
"r  c #5F6161",
"t  c #646464",
"y  c #6A6462",
"u  c #666966",
"i  c #686B67",
"p  c #676768",
"a  c #676968",
"s  c #6B6B6B",
"d  c #726E67",
"f  c #736F6D",
"g  c #7D6F6B",
"h  c #6E716E",
"j  c #72726D",
"k  c #6E6F71",
"l  c #6F7071",
"z  c #737473",
"x  c #7A7574",
"c  c #767975",
"v  c #7B7A76",
"b  c #767778",
"n  c #797778",
"m  c #777879",
"M  c #7B7C7B",
"N  c #827571",
"B  c #837A75",
"V  c #897C77",
"C  c #827C7B",
"Z  c #8B7E79",
"A  c #7E807E",
"S  c #81827E",
"D  c #7D7F81",
"F  c #807F80",
"G  c #7F8181",
"H  c #848583",
"J  c #8A8684",
"K  c #868985",
"L  c #8B8A86",
"P  c #858789",
"I  c #898788",
"U  c #868889",
"Y  c #8B8C8B",
"T  c #928987",
"R  c #928D8B",
"E  c #8E918C",
"W  c #92928E",
"Q  c #8D8F90",
"!  c #938F90",
"~  c #8F9191",
"^  c #949492",
"/  c #9A9594",
"(  c #969894",
")  c #9C9A96",
"_  c #979798",
"`  c #9A9798",
"'  c #979999",
"]  c #9C9B9A",
"[  c #A19A97",
"{  c #A29D9B",
"}  c #A89F9B",
"|  c #9FA09E",
" . c #A4A19E",
".. c #AAA29E",
"X. c #9E9FA0",
"o. c #A29FA0",
"O. c #A4A3A2",
"+. c #ABA5A3",
"@. c #A7A8A6",
"#. c #ADA9A5",
"$. c #A8A7A8",
"%. c #A7AAA9",
"&. c #ACABAA",
"*. c #B1A6A3",
"=. c #B3AAA6",
"-. c #B4ADAB",
";. c #B9AEAC",
":. c #AEB0AD",
">. c #B2B3AE",
",. c #BAB1AE",
"<. c #B2AFB0",
"1. c #B4B4B2",
"2. c #BBB4B3",
"3. c #B5B8B4",
"4. c #BABAB6",
"5. c #BAB7B8",
"6. c #BDBCBA",
"7. c #C0B7B6",
"8. c #C1B9B6",
"9. c #C2BDBC",
"0. c #BEC1BA",
"q. c #C2C1BE",
"w. c #C8C0BD",
"e. c #C5C3C3",
"r. c #C9C6C5",
"t. c #CBC8C6",
"y. c #C9C7C8",
"u. c #CCCACA",
"i. c #D1CECE",
"p. c #D3D0CF",
"a. c #D4D2D1",
/* pixels */
"0 5 X.Y Y H D M A A G E h E A A G G 0.0.>.e...#.#.#.=.=.T / / W ! 7.7.;.*./ / -.<.b M b b D e.o.U 0 & ",
"8 5 M m ] P P P G G G A A E A A G G G A 6.q.K L #.#.=.=.-.J / / J 7.=.7.7.[ ` [ $.+.5.5.9.$.k Q o.0 1 ",
"8 5 ^ M ' P ( W G A A A E i A h G | | ( q.| ^ W W #.J / J / / ! ! ;.;.7.;.` / ` / <.P 5.$.&.6.k _ p > ",
"4 4 Q D Y | ^ ~ G A A h A A A 0.0.E h %.O.(  .W W  .) W / ;.T / R ;.;.;.2.=./ [ ] <.b 5.o.o.` ! k p ; ",
"3 4 P ] ] | M G A ( A 0.E 0.0.@.E ~ 0.| | K O.^ ^ / +./ R =.T / F ;.7.;.+.{ / ` ` o.<.<.$.X.u.$.Q 1 : ",
"1 5 M ' 1.q.M Y A r G ' @.:.0.A E 0.| E | E t...O...#.+.-./ ! R } ;.;.;.{ / / ] { { 5._ <.! u.<.y.t 1 ",
"3 5 %.P @.q.6.:.0.0.G 0.0.E E A A A K K ' 0.q.] [ +.+.*.$.+.! T R ;.;.,.2.` / / { <.e.<.X._ _ F D p > ",
"4 8 P G G ' @.3.G 0.0.E E E E ( | A K K K %.&.Y ] { ] { @.P { ;.! I ;.;.2.8.y.u.7.y.e.a.e.e.^ Y Y 8 : ",
"& 4 &.z D &.5.G 1.%.Y E E E E E ( ( L W K K (  .R R W T ' +. .t.[ *.;.,.,.u.&.i.6.y.9.p.y.e.^ Y I 0 > ",
"& t Q X.^ q.G 3.~ Q K Y E E A E S K K E W /  . .{ Y T R ) r.6.r.=.;.;.,.y.! y.7.9.e.e.o.^ _ ` ! Y 8 9 ",
"9 s ^ | &.e.6.| h h A E E E u A S S S ( )  . . .O.T R R R R ] 2.r.=.=.y.P y.7.7.8.w.^ ` $.e.u.U Y 0 9 ",
"9 4 G ] 0.G 1.P Y A K K K K E h ( S S L ) )  .] ^ Y L R R R &.] r.=.y._ y.9.7.7.9.9.e.` e.e.<.Y Y 8 4 ",
"9 5 @.Y H e.G K K E | U ~ K K E W A | K 4.O. .L Y J L Y T R R O.T r.i.6.w.,.2.7.9.e.e.e.y.e.Q Y I 8 4 ",
"9 4 u.^ ' 5.^ Y u A K U Q c A A S | ( :.:.S  .O.J T L T Y T R +.o.$.w.u.;.7.2.5.6.9.e.e.Y I Q Y Y 0 4 ",
"0 t u.| ' ' ~ K h K %.M U A A A K >.z 0./ ] ] { L J J T I T T J R o.$.y.;.2.2.7.7.9.e.u.` o.&.Y Y 0 : ",
"9 4 e.b l | ^ h h Y K K ~ G z A L >.0...9.%.{ [ J Y Y J T T I J ;.y.! y.;.,.2.7.9.9.e.e.X.X.&.Y I 8 > ",
"9 5 :.] | | a z i u ( A G A A h ( A 0.>.6.4.q.J J ..[ S T T T v =.r.F y.;.,.2.7.7.e.e.u./ X.&.Y U 0 > ",
"9 4 &.] ( ' ^ a A A ( A E A h A ( ( c E E W W  .S  . .S L N x +.*.r.F y.;.,.,.5.7.9.e.e.I o.&.Y I t ; ",
"9 9 &.] | ' u z A r A A E A h A c v E :./ S L / } [  .N J x *.*.*.r.n [ *.7.,.T 2.w.P F ! ` $.Q z n % ",
"< - :.' | A M l r u h 0.r A A h A K ^ M 4./ S L c } } S N J ....*.u.k o.F ! *.J F r.! o.O.F y.z 9.M > ",
"4 4 &.] | h c u z h z u u A h A E ^ l K / ( L S j  .[ ........*.=.u.n o.! ! T C ` o.I R J e.u.$.9.; > ",
"9 4 &.r.e.c K ~ h A A h | j E ( E W ] K ....L S A ;.=.,.,.;.,.,.7.u.T o./ ` ` F r.t.! p.u.Q $.e.k 9 > ",
"> , 9 Y E r 6 , , 6 6 6 A u A z A A A S j A d j N v N B B e y Z T J ! N x x x C s f k o.o.M o.<.D k > ",
"4 > 4 H K A = A r h h h r A i z z c c v j j 7 w 7 w e $ @ 5 q g V 2 J y f g f z g n x 2.9.J D r X.9 > ",
"4 1 > M M b u 0 u u r r u A u w w r 6 < < 5 5 4 5 7 7 > 5 X X $ * @ * o 2 e y e y y n { z k 6.F b 0 > ",
"& & % % % % % & % % % % % % % % & % # = = > < = = # = + O   O o o . O o 4 2 4 > > > 1 & & 2 2 2 > > > ",
"5 5 3 4 < < < < , 6 , , , 6 6 , 6 7 < w / Y j 6 e d e y e e } ..} V -.[ ,.-.P ;.F ! ! s / ` o.$.p 8 > ",
"9 4 1 > > > > > # , , = , , 6 , 7 6 5 5 W h C 7 w w e 7 q q y V N q y C o.;.F -.o.T T p n / s o.o.s > ",
"9 4 &.3.4.3.&.@.@.| @.( K K K K A :.E | @.^ ) L T / J 8.J [ T 9.[ [ [ r.u.e.i.D p.i.u.7.X.! o.! D 0 ; ",
"0 4 :.] ) ] E Y K K A E u c i h S j A S m W J K M M ..M S T J B Z T F } <.;.e.i.F a.p.9.y.o.&.Y Y 0 ; ",
"9 = :.' | ] E Y K K K K i i K K j c | A / M ) j x [ [ Z J T T F T F *./ F ,.,.y.Y F _ i.e.5.&.Y P 0 ; ",
"0 : s ( | ] W Y K G K K i c L c E K E K W S [ ) { 2.} S [ F J T T F [ T o.7.2.y.P u.p.F o.e.X.Q Y 0 ; ",
"9 4 @.] | ' ~ Y K K L K c E >.E G c Y ( M S S [  .q.../ J J J } J J T T ,.,.,.i.i.9.u.6._ u.! Y I 0 & ",
"9 5 %.) ] ] W Y K K K K K >.%.c ^ ( ( K S H J L [ #.A  .J T Y =.*.J *.I ;.,.9.6.u.9.e.i.z y.1.Q I 0 & ",
"5 : b | | c A z A K h h 1.O.E E Y ^ ( A K /  .[  .[ 0.R { T T T / T ! ;.*.<.9.<.u.9.e.e.y.z 6.o.I 8 % ",
"s < Y z K G m G L A z K 3.| 3.M E K ( A R ) ) W  . .t.P o.R ! R R ! I ;.! T e.1.u.9.e.e.e._ 5.X.Q s > ",
"s b Y G P ] G H E G G >.G 1.E E 0.G ( H L J / Y  .} .. .G  .*.R R R ! 7.T R 9.6.u.9.e.e.e.P o.o.Q p & ",
"s z O.D ^ ] ^ E E l ( G 0.l i E 3.E | A H K J W W ) ..-.Y @.;.! ! ! ! ! ! / 6.9.u.e.e.e.` Y e.9.Q 0 > ",
"s b X.P E ] ^ E G 0.E :.0.h A h >.U @.L E P K J W / W *.O.Y e.[ ! ! R R ! / *.! i.9.e.$.` Q $.D x t ; ",
"1 z M ] P ] ^ ~ >.%.| 3.E E h A 3.S q.| ) ) ^ ^ ..W / ..#.Y O.=.[ ;.7.;.[ *.` X.o.! e.e.6.e.! U U 8 > ",
"% D D ' G 0.0.| A ~ 0.G E A A A E ( U 4.( M M H ......+./ +.P t.7.;.;.,./ +.F *.` ` 6.y.e.Q ` M F s > ",
"9 9 G r ' 0.G ' %.%.z E E A A A A ( U 0.S K  .......+.[ ` e.` Q w.p.o.<.o.o.$.` ` { ` y.5.y.$.<.$.p > ",
"9 1 3.0.0.G G G G A A G E E A E K | ] 0.( Y E ..O...+.+./ { w.P ! Q U u.$.$.o.[ [ [ ! &.` ` ! o.$.s > ",
"% 1 :.X.y.G G A E G A K E E E E ^ ( X.( #.J Y ] ..+. .o.{ ! / =.e.<.U ! +./ / ` ` { o.o.o.o.&.Q z s > ",
"r 9 %.Q A G ( A A A A A G ( E ( ( ^ | Y q. . .' #.+...W o.o.! ! / O.*.P Q +./ ` ` { O.o.O.o.<.Y n s ; ",
"9 9 U X.A | A A G A A A G ( E ( | ' ( >.q.]  .R W #.+...=.=.O./ ! / { $.M P &.` { o.o.O.O.O.&.P $.p ; ",
"9 1 1.k A | A A A ( A A A ( E ( A H ^ q.3.O.' W W #.#.#.=.=.=.{ [ o./ } -.D ! &.` { o.O.O.O.O.5.$.s > ",
"9 3 y.D %.G A A A G G E ( ( E A K ( ) q.X.O.R W ..#.#.=.=.=.;.;.=.o./ / o.&.D o.&.{ o.O.O.o.&.F M 0 ; ",
"0 k D ~ O.P M M M U E U E ( K G K E | L A O.Y +.#.#.=.=.=.=.;.;.;.;.o.=.o.*.<.D o.<.o.o.O.o.&.Q I 8 ; ",
"8 H z y.U P G M M M K G E E K K K K | 0.A ( #.+.#.#.=.=.L K S ..;.;.,.,.*.` $.<.M F 5.5.5.5.<.Y U r ; "
};
