/* XPM */
static char *_90667d629524a06e49b2a1f1d1d03e7Sdrq5qAH4bLMnzwI[] = {
/* columns rows colors chars-per-pixel */
"50 93 89 1 ",
"  c #160E06",
". c #180F07",
"X c #1A1107",
"o c #1D1309",
"O c #21160A",
"+ c #25190B",
"@ c #2A1D0D",
"# c #271610",
"$ c #281710",
"% c #2B1A11",
"& c #2E210F",
"* c #31220F",
"= c #2E2011",
"- c #332411",
"; c #382712",
": c #372812",
"> c #3C2913",
", c #3E2913",
"< c #3C2A13",
"1 c #3D2B13",
"2 c #3A2A14",
"3 c #3B2B14",
"4 c #3C2A14",
"5 c #3C2B15",
"6 c #3D2B15",
"7 c #3E2B14",
"8 c #3D2D15",
"9 c #3E2E15",
"0 c #3F2E15",
"q c #412D15",
"w c #422E15",
"e c #432E15",
"r c #422F16",
"t c #433016",
"y c #423116",
"u c #453016",
"i c #453116",
"p c #453017",
"a c #453217",
"s c #483217",
"d c #453319",
"f c #463218",
"g c #463419",
"h c #493318",
"j c #4B3518",
"k c #4A3419",
"l c #4C3419",
"z c #4C371A",
"x c #4D371A",
"c c #4E361A",
"v c #4A391A",
"b c #4C381B",
"n c #4D381B",
"m c #4D391B",
"M c #4E391B",
"N c #4F391B",
"B c #4E3A1A",
"V c #4F3A1C",
"C c #50381B",
"Z c #51391B",
"A c #503A1B",
"S c #513B1C",
"D c #513B1D",
"F c #523C1D",
"G c #533C1D",
"H c #553C1D",
"J c #553E1D",
"K c #543E1E",
"L c #553F1E",
"P c #583F1E",
"I c #53401E",
"U c #57411F",
"Y c #5A411F",
"T c #5D4321",
"R c #5E4320",
"E c #5A4621",
"W c #5F4521",
"Q c #5C4720",
"! c #5F4922",
"~ c #604721",
"^ c #604522",
"/ c #614922",
"( c #614923",
") c #624922",
"_ c #624A23",
"` c #624B23",
"' c #665126",
"] c #695127",
"[ c #695328",
/* pixels */
"$$$$$$$$$$$$$$$$$$$$$$$$$%$++##%##$$$$$$$$$$$$$$$$",
"$$$$$+$$$$%$$$%$$%%%%%%%%%%%@@%%=%%$%%%$$$@$$$$@$$",
"$$--&ooX@88=&&d8**s*axZDHHceqjtYLDe;;Ae5-+++@===$$",
"$$--&+oX+:-&@@82*@e%qsxxxxp;ta,Pxxq;@5q%-Oo@@=-=$$",
"$$--%Ooo+*&@@+:*@@;@*qeehpq-qq;xheq*@@;@&oo+&&-=$$",
"$$--&OoXO@@+OO**++*@@>qqq5;@q&-eqq;*@+*+@oo&@&-=$$",
"$$--&OoXO++oXO&@+O@$O*--;-@+;+$;;-*@+o*+ooo+@&&=$$",
"$$--+ooOO@+OX+@&+O@@O--;;-%+;*@;;;;@OO*++oo+@&-=$$",
"$$--+oo+@a82@8xx88zx-KRR^PxeYLa!(^^x-qU8;@O@@&==$$",
"$$--+OoO@g8:+8NNq;sN-x)Y(Jxa(IjY(^Ws:NA,8&X@@===$$",
"$$*&+Oo+@a8;@qxNq;eA-a^^)AjeYUjY(^Yh-DN85@O+@&&=$$",
"$$-&++XO@d82@8vxq;aU;NWY^ABaYUgY(^Ra:KK8:++@@&-=$$",
"$$-=+OXo@g2:@8Nz,;tAqAR^^AceQYtY(^^u:JN8*@+@@+-=$$",
"$$--+OXo@d2:@8xa8:aS,J^^)jAe!Y8Y`YYi;Pv,,@+++O-=$$",
"$+=-@OoX@d2-@8Nt8:sJ;A^Y^AceYYa'(^Yg:Jj,5@+++O*=$$",
"$@=;+OoX@g2:&8Nt;:eJ,j^R)PAsUJN'))Yg*Uj8,@O@++*-$$",
"$$--+ooo@g::-8Nt2;;Y5h^R)YAsAZL`^RWh-LN5:&X&o&-=$$",
"$$--%ooX@g:2:2Ng8;5L5h^R^^AxjxY'(^^N,ND59&X+oo-=$$",
"$$--=+oX@t-28;xx855D;DY^)RAAssY((^RL8Nmt:&o&o&&=$$",
"$$--=ooX@t*2d5xxt:8N5RRR^^ZAasY(!WRLNLKt8&ooo+-=$$",
"+%--&&XX@8-:m5xxq->x8RPR()SAzxU`!YYLKSDq8@ooo&&=$$",
"$@=-&oXo@5*-zqzh5;5qa^RRY)YAxLA`(^^YKKxq8OOOo+-=$$",
"$$--&+oo+5:=8zbd8,55xRRY((WxjUv'^^RPUKt8-&+Oo+-=$$",
"$$=--oo+@2:=2zbx5;52xPRR^Y(LjYj'Y^^YKU8:&-+Oo+-=$$",
"$$%-&+O+&2---bzv8;58xRYRWW(YtWj!`^^YSA8;&;+oOO-&$$",
"$$--&+@O+8---zzma;55dTTYWW(Ra!j!)^YYYA;-&8+OoO-=$$",
"$$--&&++&8---bzxh;8,zRRYWW!WqYj!())!Uq;--8+ooO&=$$",
"$$--&&&O@t:&:zzNx2a8hRPT!!((aUN!(YYYN,:;-tooo&*=$$",
"$$-=@@+Oog:&8NvxN5s2hRTTW!!`NEjY!WRYd85,:8oXo&&=$$",
"$$=@+=@Oot9&tadmNaD8dRRRWW!`NNN!(WRPs-q2:8oX&&-=$$",
"$$-@@&@Oo8;&vtqmxDLaxPRRWW(`RKN!!^RYh@d8:8o +&-=$$",
"$$=+=@OOX8:&v88mNDLqxRRR!!((`!N((!RPh-da88oX+&==$$",
"$$&+@&@oX8--x55NxDLqHYYR)`!``!I`!^RLa:qxg3XXO&*=+$",
"$+@+&@@XX8:=z55DxDLaAYYRYY(!`!U'(YRAe,5xN8oXo&-=$$",
"$$@O@&@XXt:-z-2DxDLsHPRR`Y!!`!U`)Y)Uaq:xv8OoX@*=$$",
"$$=o@&+XXt;-g;2NxDALPY^Y``IY'!U`(^Y^aa*aN9Ooo@*=$$",
"$$%@@@OXot8:g;8NxDDLPYY^YYu(`YU'WWRRda;qN8Ooo+-=$$",
"$$=@@=Ooott:t:2NxDDLPY^Y)Y8`'YYBEWRPaq;8v8+ooo-=$$",
"$$=@+=+Xogt:t:,NxDHxJY^YYBj)'UYeWWRLzq;,v8++o&-=$$",
"$+=@+=OXOgtgq:2NxALxsYY)YsN`'YYt!!RRN8:8I8ooo+-=$$",
"$$=@+=OXOvtg8;;DxDLsqPY^YtJ``'Yt!^WTm8;5N8OOo&-=$$",
"$$-=@@OXodagt::NxDLsq^^RS,Y``'Ag(WTTNq:dx5OXX&&&$$",
"$$--&&@ Xgadg:*xxDHa,^Y^jtY``'Nj(WTTzq-zg-OX+&-=$$",
"$$--&@@oX8dgg8=8DDDqqYRLgj`'`'jj(WRLhq*ht:oX+&==$$",
"##=-&&+oo-ggh5-:LxAqqRRDeN(Y`(aA`WRYxq-zt-O.O=&=$$",
"$%--&&@oo%8gh2-8xLZq5RRAeL(`](sA`!YPda-N8:Ooo=-=$$",
"$$--&&@oO--dt5;8DDxq;YRxtY```(eR(WWLqe-d2:ooX&&=$$",
"$$-=&&@oo;-a5:-xNDxq;D^x,U```YaY((WAat;N-2Ooo@-=$$",
"$$--&&+Oo:-g8::NmDcq2q(A;x()^xqY(^^Att:z-2+oX&&=$$",
"$$--&&&oO-2d::;NcDcq58^Hs;))RxsL(^YAtq;g&2&+X&-=$$",
"$$=-&+&OO-8g::8NmDca55^Px-Y`YxsA`)^Udt;a&2+oX&-=$$",
"$$--oO@OO*td:-qNmDDq5a^Rx,A`Plxe((YYtt;t&8+oX&-=$$",
"$$--OO&oo=dt:-qNxDDe;NWTDse`^sHq^^YYaq:a&2o&o&-&$$",
"$$=-+o&oo-gt::gvADNq;URWHss)YlAeY^YYvt-N&-&oo&&&$$",
"$$--Oo&OX-ga::aNxDDq5RTRDZs)YAxeY^Y^N8:v-&+oo--=$$",
"$$-=+o+oX:at:-tNxDx58RWUAxq)^DAeU)YYNt*vgo&oo&&=$$",
"$$=&OX@oX:ga:-tNxDm;e^RWPxe`^ADsA^^YS8;eK%oo@=-=$$",
"$%-&OX+oX:gg:;8NvKd-dRTTPAe``LAxj)Y^Ue2;m;o+@=-=$$",
"$$-&OO@oo:gg:;8NVNt:xPRWPxa)]LxAa^YYUq8;m8X@@&==$$",
"$$-&o@&oX-g88--NNNq;xRRRPss)(AAAa^^YU8;:N8X+@===$$",
"$$-&o@@Oo=t-g-8NNvq;ZYY^Ljs(`UzAa^YPKq,;m8o@&&-=$$",
"$$-&O+@oo=9-t;qvNsq-AY^RAsx(`UxSe^^RDq8qN2o@@&==$$",
"$$-&o@@OO*8-82gvxx,>AYYRAas)`WAAa^^PD82NN-o+@&-=$$",
"$$-&o+@Oo=8=;qtDxzeeHYY^x8N)`(YAe^YWN8qND&o+@&-=$$",
"$$=&o+&oX88-=ttNNb82DRRTc;L(`'UAe^Y^B;dNv+o+@&&=$$",
"$$=&o&+XXg8-@tamNz8qcLRLh;^```Lxg^YYs:xNt+oO&&-=$$",
"$$-&o&+oog8-@ttmmmqqcWRLr5(('YLqJYYPa*xN8@Xo&&-=$$",
"$$-=o&+Xog8:@tgvcmx2cLRL;c(((Yxq(^^Ye-DD-=Xo&&&=$$",
"$#-&o&oXOv8:@qvzmDx;xRRc:S```YaA)^^Yx-Nx@:.o@*-=$$",
"$+--o&oXoN::@axzmDx5cLRc;Y`!'YaY(^Y^LaNa&:.X*@*=$$",
"$$=-+&& og;-@gzzCKx;DPRx;Y```UqY(^YYLLD8:: o@&-=$$",
"$$--==+Xot:&-NzzcDx5DPPh8(```YaY)^^YLAA88: +@=-%$$",
"$$=-&&&oo8-&azzzxhx>APPx,Y(``YaB(WWLLDDq82 o&&-=$$",
"$$--&&+Xo8--vjzvxqx5Z^YZ,g```]N,!WWRLDDq22X &&&=$$",
"$$=-&&&oo;&-zdzzdqc5xRRZj;Y(``YeRWRRLDDx:2oXo&-=$$",
"$$--&&+oO8--NdzNd8DqhPYHN;U(`')eY^RPLDAx:2oX+&&=$$",
"$$--==+OO:**Nzzvq5PhsPYRNeN``''gY(YPLmmv-:o o&&=$$",
"$$=-&&&+&:*&tvxNq5LNjYR)Yav``'`A!^^RLKLg-2X &&-=$$",
"$$--&&+O&t:&:NvN8qLxjYYYUsv```)J(^^YLLI882 X&&&=$$",
"$$--&&@oOg:*+gNv5eLLYY^^PeN``'`!^^YYLAm-N- o&&-=$$",
"$#--&+++@h8-@-Nv5dDLPRR^PeA```'()^^AjLh:D-.o&&&=$$",
"$+--&OOO@d8:--zx;tLLPPP^PqY``'[Y)^^esLh8N-XO&&&=$$",
"$$=-&OO++g8::-zv55LDPPP^Y,Y(Y''(((D,lLaqm-.o&&-=$$",
"$$--&OoO@mq8::NLa,YP^^^((e^][[''((LqDRxqK-XO&&&=$$",
"$$--@ooO+-=@+@::-+q5qqqsy*vjvvg9xs;*;q:%5%Xo==-=$$",
"$$--&OoOoOooXo+@Oo$@@@@*&+&&*:@O*@OO+@OO@oXo&&-=$$",
"$$--+ooOO@@OoO@=++*-**;;&&3:33&&;-@+*-@+%@XX+&==$$",
"$$=-@oooO&=+o+--@+-;q,qq11yytg<&q;*@;;-@-&oX+=-=$$",
"$$=-+OooO--@O@2;-+5qrpppgjahvv5;z2:@qq8:8&OXO&==$$",
"$$--+Ooo+5;%@@q5-%dqdcccBBDsLNeqLa5*sadt8OOo@&--$$",
"$$=-@+oo+>;=@-55&%5%rphhjxxqds8hNq5-qqq,=+++@@=%$$",
"$$$$#$$$$$$$$$$$$@$$$$##++$$+######$$$$$$$$$$$$$$$",
"$$$$#$$$$$$$$$$$$$$$$#######$$$+$$$$$$$$$$$$$$$$$$"
};
