/* XPM */
static char *c8e97a06b67844c1ab9e2ba5ac660929rXGpd7Db6iNdeEtS[] = {
/* columns rows colors chars-per-pixel */
"100 50 161 2 ",
"   c #3F4041",
".  c #434444",
"X  c #494747",
"o  c #464846",
"O  c #494947",
"+  c #474748",
"@  c #474849",
"#  c #4B4B4B",
"$  c #504F4C",
"%  c #4F514C",
"&  c #51524E",
"*  c #4E4F50",
"=  c #504F50",
"-  c #4F5050",
";  c #545453",
":  c #595655",
">  c #575854",
",  c #5B5A55",
"<  c #575758",
"1  c #565859",
"2  c #5A5B5A",
"3  c #625D5B",
"4  c #5E6158",
"5  c #64625E",
"6  c #5F6162",
"7  c #636463",
"8  c #6A6462",
"9  c #676967",
"0  c #6A6A66",
"q  c #676768",
"w  c #676969",
"e  c #6B6C6B",
"r  c #736C66",
"t  c #736D6B",
"y  c #6E716E",
"u  c #73726E",
"i  c #7A706C",
"p  c #6D6E71",
"a  c #6F7071",
"s  c #737473",
"d  c #797574",
"f  c #767975",
"g  c #7A7A76",
"h  c #767779",
"j  c #7A7778",
"k  c #77797A",
"l  c #7B7C7B",
"z  c #80726F",
"x  c #827571",
"c  c #837A75",
"v  c #897C77",
"b  c #817D7D",
"n  c #8B7E79",
"m  c #7E817E",
"M  c #82827E",
"N  c #8C807D",
"B  c #7D7F81",
"V  c #807F80",
"C  c #7F8181",
"Z  c #838483",
"A  c #8A8684",
"S  c #868985",
"D  c #8B8A86",
"F  c #858788",
"G  c #898788",
"H  c #878989",
"J  c #8C8C8B",
"K  c #928987",
"L  c #928D8B",
"P  c #8E918C",
"I  c #92928E",
"U  c #8D8F90",
"Y  c #928F90",
"T  c #8F9191",
"R  c #949492",
"E  c #9A9594",
"W  c #969895",
"Q  c #9C9A96",
"!  c #979798",
"~  c #9A9798",
"^  c #979999",
"/  c #9C9B9A",
"(  c #A19B97",
")  c #A29E9B",
"_  c #AB9F9D",
"`  c #9FA09E",
"'  c #A4A19D",
"]  c #AAA29E",
"[  c #9E9FA0",
"{  c #A29FA0",
"}  c #9FA1A0",
"|  c #A4A3A2",
" . c #A5A5A3",
".. c #A2A3A4",
"X. c #A5A3A5",
"o. c #A4A4A5",
"O. c #ADA3A1",
"+. c #A9A5A3",
"@. c #ABA5A3",
"#. c #ACA7A4",
"$. c #A7A8A6",
"%. c #ADA8A4",
"&. c #AEA9A5",
"*. c #ADA8A7",
"=. c #A8A7A8",
"-. c #A7A9A9",
";. c #ADAAA9",
":. c #ACABAA",
">. c #ADACAD",
",. c #B1A5A2",
"<. c #B0AAA5",
"1. c #B2AAA6",
"2. c #B3ABA6",
"3. c #B3ABA8",
"4. c #B1ABAA",
"5. c #B4ABA9",
"6. c #B5ACA9",
"7. c #B5ADAA",
"8. c #B4ADAB",
"9. c #B7ACAA",
"0. c #B1AEAD",
"q. c #B8ACAA",
"w. c #B9AEAB",
"e. c #B9AEAC",
"r. c #BAAFAC",
"t. c #AEB1AD",
"y. c #B2B3AE",
"u. c #BAB0AD",
"i. c #BAB1AE",
"p. c #BCB1AE",
"a. c #B2AFB0",
"s. c #BAAFB0",
"d. c #B2B0B1",
"f. c #B4B4B2",
"g. c #B6B3B5",
"h. c #BBB2B0",
"j. c #BBB4B2",
"k. c #B8B7B7",
"l. c #B6B8B4",
"z. c #BABAB5",
"x. c #B9B7B8",
"c. c #BFBABA",
"v. c #BDBCBA",
"b. c #C0B7B6",
"n. c #C1B8B6",
"m. c #C2BCBC",
"M. c #BEC1BA",
"N. c #C2C1BD",
"B. c #C2C2BD",
"V. c #C8C0BD",
"C. c #C5C3C3",
"Z. c #C6C6C6",
"A. c #C9C6C5",
"S. c #CBC8C6",
"D. c #C9C7C8",
"F. c #CCCACA",
"G. c gray80",
"H. c #D0CDCD",
"J. c #D0CFD0",
"K. c #D4D2D2",
"L. c #D9D6D6",
/* pixels */
"p s 2 J 2 7 e q 2 3 2 : : : 3 7 8 3 : & & r ; ; $ $ $ : # # O % & , 2 2 4 1 2 2 2 2 2   9 9 1 @ # o 2 J J d.g.g.g.k.B k a.>.~ @.b.q.b.q._ V M K <.<.1.#.*.%.R C B.Q S S Z Z I P m F f l l m C J Z.k Z 1 ",
"G ) 6 H Z c.Z j d i d t t t V V i z z 8 3 i i 3 3 3 5 : m g g g g f s 7 P w u y 9 e 6 % Z H Z ; # @ 2 H J >.| | | | a.X.B 4.4.[ <.{ q.q.q.r.5.1.<.<.<.#.O.H  .m P ` P S m J W P S P P m l m H } T C e 2 ",
"..7 Z.U s E b q 7 t t t t t V x _ z n 5 3 r i r r r 5 3 ~ u l f g f s s y , 2 % o % o o Z H F @ ; + 6 k Z >.| | | { ) 4.) B 4.@.E E { 4.q.5.5.5.<.<.#.] J I  .` B.Q W Z C P P P P S S m l C C } k G.; < ",
"F d.K.Y Y F.c.J D.a.) ~ ~ ) 4.p F.n.b.] b.b.e.p.p.g M <.*.D R ' S R / P s ` m C C s f J W B.Z.6 ; @ e @.g.{ | ) | { ) ~ :.R k 4.{ E ) E _ 5.5.5.<.#.O.R I /  .f.B.I Z m ` P P J m f H m l m ` C a g.* 1 ",
"1 D.Z.C.D.Z G A b A.b K Y G { j S.O.O._ ] ] _ ( Q M M S E *.J e P S m y s M 9 y f u 9 l C l.>.7 ; + e =.G >.| | { { { ~ E #.F k :.) E E E ) 6.6.| ,.O.I J ' ' B.t.W ` W P P W m l m P Z B l ^ h [ H ; < ",
"G.d.X.Z.A { ) Z E L b 5.V K { j m.,.O._ x i ] ( Q c M c P y.y I m m y m y y P y 7 6 f f ` / >.6 * + q h J >.{ | X.{ ) ( / E *.U Z =.{ E E R ) ) I | %.%./ ' ' B.P ` W W W P W C l l m F l ^ H k J >.< < ",
"J.s =.R G L G V m.A { b.s.V { V A.,.,.,.M A I _ ' ' S M Q P f.Z m m y y f C } m 9 P 7 9 ` / >.4 < @ e h G >.{ { { ) ~ ~ ~ ~ E =.R H a.V.4.E E ) ) ' ] ] / J H $.W ` P W P P P P P l C T l H B Z./ :.* # ",
"J J =.[ { Z C.C.m.b.j.s.s.s.D.G D.,.( l n K b ( ( b ( M I e z.J P m m m C W P y f y S T ` ~ >.6 ; @ e =.X.R ~ / 4.E ( ( ~ X.4.{ A.J U U F m.~ ~ O.*.] O.] J J R M.` ` S P P P P S l m C J H F M.C.l.@ 2 ",
"V G =.{ { G C.m.m.b.j.j.s.e.D.| V.,.A K J A A ] I A ( B.' M.R  .m P m m P m m C m 9 9 m ` ^ t.6 < @ e =.>.>.F.x.C./ ) ~ ~ *.~ X.e.#.H.C.J / V.~ ( ] ] ] ] ] S S M.S ` m m m m P P y $.-.W H x.T 7 Y < * ",
"V G =.{ { U Z.C.m.b.j.s.s.e.G.{ A.E L K K K D K D A / :.v.z.z.y.` m m y P m C P y m y P } a d.s ; + e V l ~ J Z.C.m.( ~ #.V *.E s.q.e.b.D.F O.~ +.'  .] Z f g E M.C ` S m m f S S M.P m / l.M.H ! s s * ",
"V G =.{ ) J C.C.m.b.c.j.s.h.D.H.+.L L K A K A A D Q R ` ' E z.Z ` m m y m P m ` P y P W C ^ } T ; @ 2 H J R Z.c.Z.Z.Y ) { ~ :.E q.q.q.E 5.X.G :.O.E E _ R R Q Q ` M.m l.m y P P l.} -.l.R I ` S / B s # ",
"B G =.J G Z C.C.m.m.j.j.h.b.m.H.G @.K J K L J D D D ] ` S B.H R P m m m m P C m P C P P ` J t.T < @ 7 d h =.J / { Z.m.G.Y *.E Y E L E E ( V.J X.] R R R S G Z P P $.S t.y m y l.t.P l.S P T / T Z [ h e ",
"Z G >.X.D.Z.Z.C.m.b.b.j.s.F.R D.S.h ] L L K D K K A ~ Q  .B.W W M P M W M W W W P m C l.} ^ T 6 ; # 2 J x.Z.J ~ C.C.m.F.m.c.R Y Y E L Y I <. .J 6.] Q R I S Z S m ` P z.P y a M.C P a P H R ^ P B } h e ",
"B G [ G.Z.C.c.V.m.m.j.j.D.F.k.F.q.H.e.~ I K I D D I / ] ] Q J Z m P m M W P P m P C C M.T M.>.1 < . q Y { =.F Z.C.C.C.F.c.m.Y Y s.Y L L L ,.| C | ] ' ' K W D D m W m M.P H y.H t.H C P C m ` H Z J s p ",
"B G Y Z.C.R / x.V.m.j.D.F./ S.q.q.S.H ] L K J L G ] ' ( Q Q J M m W m m P W M m f C l.} Z.` -.6 7 @ e U ^ x.~ C.C.C.C.D.g.m.L L e.K L L L L L ] Z S.) _ I ( Q I m W Z P m l.` l.C s C S C f C S s J * e ",
"V G [ C.J E { D.m.m.m.F.-.F.q.q.5.m.F.H.@.I L K D $.' ' W R I A M m m M P M W P P ` M.C M.^ t.p 6   2 G { n.s D.C.C.m.H.a.m.5.5.q.L L E K L K ' I B.( ( ( ( Q Z m W I P P P ..l.f y S m f C f } [ h @ ; ",
"V G =.Y C.D.L.K.m.m.H.>.D.s.e.e.E q.A.V @.~ L L L D | ^ S S P S W P P P P P P H d.l.C v.C B h ; #   2 G J x.D.s H.Z.m.G.x.m.s.e.V ,.K ,.q.G K K ( V 1.( G A M M m W W W m  .M.m D S S S P R W ` / -.< , ",
"V G =.Y Z.H.C.K.m.m.H.n.s.s.e.e.V K q.@.) 4.~ ) ' I J %.:.S S H P ` P P P P W t.l./ l.^ C Z U 7 * . 2 G J U G.~ c.G.m.H.J.h.u.u.K K V K ,.V V K E { A.( ( M M b W S m m m M.m y J S S S J P / ` / X.: 1 ",
"^ k Y / U g.Z G.g.{ E ~ ~ j.e.r.E E E _ @.u.<.*.] / / S.m.J S S m m m P P M.y.T l.l.l.c.C.U ^ 4 < + 6 G J ~ D.X.Z J.D.F D.h.u.+.K _ V K K V V E A ) j.( ( Q Z I S P m P m m m 9 S M S S D P / / / w @ 1 ",
"! g.G.Z./ g.p a.( ~ ~ E ~ e.j.e.q.A Y Y E 6.<.%./ %.] A.+.R J *.M.P m y.M.-.` T w h C ..C./ } 1 < + 2 G H >.h.C.H.! Z H D.s.u.Z E ,.V K V K K K M ( ( d u Q l R C ` m m M M y 9 S S S S J T / ` / t.o 1 ",
"w C F.C.{ g.h g.) ~ ~ E ) O.p.r.u.b I L 6.I E <.~ R E  .H ` z.M.P H ^ -.M.z.l.C W F Z J  .R ^ 2 ; + 2 G J >.=.D.Z.H.K.B H.A.e.q.) V K V c K A A b _ b b A A P k m m y M y 9 m y S M S S J P / / / :.; 1 ",
"C B d.Y ..=.x.=.:.~ ~ ( b.j.j.r._ E E K @.I ~ O.E I I  .Z y.t.k $.M.M.m P 9 y l k T T W } C C 2 * + 6 l R { Y ~ x.G.G.G.k K.C.H.Z.( ( E m.K E V n.Z E K D E W #.` P t.m S S m m W '  .$.$.*.l.l.l.:.< < ",
"! s -.g.X.) g.s e.~ ~ E X.s.p.p.L ( E D p.I R ( %.I I o.H y.I ' H P y m m P P m m T R W H l C 2 < # q { X.q E j q L K ] e.C 6.O.c 8 3 x n 8 3 3 3 5 5 5 , m y I 4 > > 4 % % > % o % % % # # # # # % ; , ",
"C [ p F c.x.g.^ a.E ~ E ) j.s.j.,.L E E Z 1.5.1.*.2.J W m.l.s P m C m m m W m m F S H F J ..C < < # < e X.) ( E t K K A 0.Z 6.h.) q.n _ _ _ 8 8 5 5 i 5 , u H E 5 % 4 > % > % % % > % % & & % % & ; < 1 ",
"Z J x.^ s h h h G >./ ~ ) j.s.e.u.Z ( E L 6.<.<.*.%.%.O.Z.C.B.$.S m C m m y S m l l m C F T F 7 1 @ @ # ; = = . + # # # # = = : # * + = # = X . X . . X . & % o . .   o         .           .     . . . ",
"Z F =.a.g.j.x.:.h h 4.~ ~ j.s.s.u.e.K l A ] 6.<.%.%. .] T J B.D S S C m P W P S l l l m S T Z.p h * 2 k Z x.p p ~ l 8 8 7 7 8 3 3 u d i r 3 3 r 3 , , , > > > % % % 4 5 5 9 m 5 4 7 9 7 4 w d k h # # ; ",
"Z G :.{ | { | d.a.s k *.E s.s.{ q.q.q.q.5.<.<.<.%.%.%.S  .Z J Q S S m P W P m S P l m C F -.C f 7 # 2 { 7 B G n.j.d d d i i t t t K d n z 3 3 i r r 3 , 5 > r u m m i u y y m 9 y y e 7 s o Z H Z ; @ ; ",
"Z V ..X.{ | | { ) >.k B 4.E E E q.q.q.5.5.6.<.<.%.] R J ' ` B./ W m m P P P P P H l l m T } k l < @ p h g./ l { | t s 0 j d d d c L A K n 8 8 v c z g g u r m u m m m m f m 9 y 4 ; > % ; 1 2 P J < * * ",
"a...x.X...| | { ) ~ :.B B { E E ) ( _ 5.5.1.<.%.%.R I / o.W M.W m m W W P m m m H m m C / h C W ; # < p C.=.Y D.J.Y D.A.G ~ ( ~ | A D.n.p.p.u.p.q.2.q.g b L *.' S ` P S ` P f ` y m m y R S k Z.Z.-.< < ",
"a.Y { { { | X.{ ) ~ ) 4.B A *.E Y E E X.1.1.| O.%.E I ' z.f.:.Z ` ` P P P m m m P C l S / h ..< ; @ @ c.=.F.C.A L J { ~ j L Y L ) g H.,.,.] ] ] ] ( ' d M D E ~ Z y W P y f f 9 e u u s 7 f y ` / :.; ; ",
"g.j =.X.| | { { ) ) ~ { :.F E :.E ~ E ~ ) { ~ O.] ` I  ./ B.` Q W W W P P S m m H m l / h J W 7 < @ k Z.s D.A | ) Y A.A A ,.Y V ) s S.,.,.] N g N ' ' g S M W z.m I m m m y y 9 f.k w 7 s f m ` / :.# % ",
":.k :.{ { | | ) ~ ~ E E { g.Y U m.d.5.L Y ) ) ] @.] R D J v.H / P W W P P C m m l H Z U h Z.>.6 ;   h p J =.~ J A G m.s.K e.b.,.( f S.,.,.] g N g ] ( ( E J m W t.P m m y f m P Z l 9 l s 9 ^ ` / t.< 1 ",
"a.>.[ Y { E g.~ ) ~ E *.:.#.H.G U U m.:.E ' ,.,.] ] ] R D y.t.' m W m P P P m m T P S H U B.Z.6 @ @ q J J =.{ G C.C.m.m.j.h.s.e.D.B A.,.O.d l A c ) _ b ) E I J I f W W f f f P f W f f 9 R ` W / >.; < ",
"a.X.F.X...C.Z.E ) ~ / *.4.~ A.a.C.| R 4.j./ Q ] #.] ' J J W M.Z ` m m m m P C 9 ^ ..l H g.a B e * @ 2 G J :.{ ! G.C.n.c.c.h.s.e.D.B D.5.x K L A A ( ] A S B.z.z.z.m.l W f f H S S W w a f 9 ^ ` / 0.; < ",
"g.l R Y / Z.Z.E ~ ~ *.h #.~ q.q.j.D.A.l *./ O.E ] ] f f l ( z.f W m m m m C P M.k C l.z.M.H -.B 8 @ 2 H J :.{ / C.C.m.m.j.h.h.e.D.Y D.e.A G L K D K D A Q ` *.M.] M.t.S f m C W F F J y e R / a k Z.; < ",
"B J =.x.D.m.Z.C.~ { Y X.{ L q.q.q.<.F. . .%.' W ` ~ W E ' E z.W P P m m P m M.P l.l.^ R } s } a h # 2 H J >.{ ~ D.C.m.m.c.h.h.e.D.*.{ L A K K A K D A D ` / ' E M.s y.D m f f S m $.S y S P ~ ^ / G.7 < ",
"b s { U J R C.C.4.H.g.{ E E Y E ~ E 1.@.k @.O.R I I D Z J J W z.` m m m m $.` } l.P P W } k } C p ; 2 J J U G L C.C.m.b.z.j.j.e.H.C.#.{ +.L L L D D D D @.| M %.t.W ` M m m m S H Z m w T T k.[ W D.; < ",
"B =.J.R G a.A.C.m.J.H.E Y E Y E L L E n./  .u.@.I R J A S Z S ` W $.m m m M.P m 9 P P R ` f H k h ; 2 G J U Z.Z.A.A.C.m.b.j.p.A.b.F.Z.K ) L L K D K D D J (  .z.S ` m P P P C P F ` P S Z C Z.C J :.< 1 ",
"J [ :.J J C.C.C.m.H.H.5.Y L _ Y L L K ,.] f %.] ' ] L J D D m ~ P t.C P M.m W m C P l H ` a H 4 p ; 2 F U a.C.Z.R Z.C.m.b.j.m.F.R S.5.D./ *.L L L D J R / / ~ Q D m m W y P P P P S C H H f.B M./ B ; < ",
"=.[ q g.~ m.A.Z.m.D.H.j.E J q.L L L L L ' R ' n.( ' S ( ~ S M W W m m M.C M.m m C H C J T e H 4 6 ; 2 J G F.C.X.~ E m.m.b.m.A.F D.5.q.Z.g.) L K K K K  .] ( ' Q W M m m f y P P H C a e } v.C.t./ W w < ",
"V J [ B ~ J.Z.C.m.F.H.j.) +.6.A L E L K K ) B V.' ' ( ( Q M J R W m P P t.t.m m m m m m y ` ` & # < 2 G J ! E R / V.C.m.b.F.U Z.j.q.6.1.Z.n.D.~ L L J ) ' ' W R P M S M W m P P S P P P l.C M.T } T 7 . ",
"V G [ L.~ ~ F.C.m.F.H.u.e.e.( ) K ,.L K K E ) >.( ( M S S M R Z W W m M.M.m m m m m M M ` ` -.1 ; + 6 G J ! Z.D.J.B.Z.m.F.:.D.s.e.e.1.( D.) +.~ L L L J ] W G S I P Q W P P P P P S $.t.H v.>.C a >.; + ",
"V G >.=.J.6 K.C.Z.Z.D.e.s.+.L A Z ( K K K A ) ! ] ' A M M l E l m m m t.m m P m M P W W ` ` t.4 ; @ 2 G U ! Z.C.K.Z.Z.b.H.S.n.j.e.e.K L e.) Z *.( ) ' / H $.X.J M S M W P P P P P l.M.P k./ ^ F Z F : * ",
"V G =.V Z.E Z H.F.B F.h.e.H A ,.V K V V Y L b m.u.( ( I M I f W C P m C m m m P P M M W ` ` t.O < @ q V V R R ) a.C.a.{ E E ~ b.j.e.e.A L Y X.=.] *.O.) / B.M./ P P M m m P P l.l.H l.l.t.v.B.} S -.< ; ",
"V G =.Y D.G.J.B k.Z.m.h.q.b _ E A A K K A N b O.Q t D ( S y.I I m y m m m 4 P m M P P W ` ` t.> ; @ 8 Z.4.G.R a.! x.) ( ~ E ~ ( e.p.q.] E L E 5.*.%.] ] @.Z.J ` P ` M.H H M.l.-.P P e m J l B.f.W k < * ",
"V G =.~ D.C.F.F.g.l D.e.6.q.c V K b c A A A b Q b l ( M S Z S f y m m y m 9 C m m P M P ` ` t.4 < # - U >.G.^ >.a.a.{ ~ ~ E ( @.j.e.e.A E J ,.L E %.W I R  .Z ` ' M.R H } y.M.P l.m W H C l / / / F ; * ",
"V h Y { Y Y J.F.J.L.Y J.m.G.E ( E j.L ( E A n.M I A Z ' Z  .' S $.m m C m m ` } t. .$.t.M.M.t.4 < @ q p J / X.{ g.k a.( ~ ~ 4.h.p.e.e.K Y K q.E I Q ) R I ' W  .t.y P M.M.m y m a m f S T W / P l Y ; * ",
"g.V X.p d b j L K s.U { D.~ d r 3 x z 3 3 5 3 5 8 5 , b l I > 4 4 > > % % %   % % % % % o % o % < @ q ! p c.>.X.x.G a.E ( ~ ~ j.j.p.e.Y E E ( A E D %.L I R / V.I ` ` M y C y ` m m f H P W H ^ k W : < ",
"e e { { ~ d q L L V q.Z j.+.,.x x ,.] ] 3 5 8 3 r 3 : t E K 5 > & 4 % > > & # & & & & & & $ = ; ; # 2 { T p =.c.k.k...:.~ ~ ( j.h.i.i.Z E E D q.6.1.*.*.S D B.v.f P m S m m P f m m Z F H F F / k l < 2 ",
"V s p p t # q 8 8 8 j 0 d d q i 5 u t t 3 $ $ $ $ : , e 0 & % # # # o o o o . o o + . . + . + + @ + 2 G | Z.B h h h h a.4.~ E 4.u.u.i.W K E E L <.1.1.%.%. .A.t.>.B.Z Z Z m P y P Z l l l l A J J [ < 1 "
};
