/* XPM */
static char *fe6df75482d44fffa6877098ff191d53rMf01HTt9cwQkvkX[] = {
/* columns rows colors chars-per-pixel */
"84 50 224 2 ",
"   c None",
".  c #070503",
"X  c #120A05",
"o  c #120C09",
"O  c #190E08",
"+  c #1B110A",
"@  c #1F180B",
"#  c #14110E",
"$  c #090E14",
"%  c #0D141D",
"&  c #0E1116",
"*  c #141314",
"=  c #1B1612",
"-  c #12151B",
";  c #1E1B18",
":  c #24130B",
">  c #2A170D",
",  c #2B1A0E",
"<  c #251A06",
"1  c #251A14",
"2  c #241A15",
"3  c #351E11",
"4  c #381F0E",
"5  c #2E200F",
"6  c #36220C",
"7  c #23201D",
"8  c #2D231B",
"9  c #352215",
"0  c #3C2414",
"q  c #3C2A15",
"w  c #33241A",
"e  c #3C281C",
"r  c #0C1826",
"t  c #141B24",
"y  c #131D2C",
"u  c #1C1F23",
"i  c #021A34",
"p  c #15202E",
"a  c #1E2125",
"s  c #0C2239",
"d  c #152334",
"f  c #1A2635",
"g  c #1C2A3C",
"h  c #14263B",
"j  c #2C2623",
"k  c #2B2B2B",
"l  c #262627",
"z  c #342B26",
"x  c #3A2C23",
"c  c #352F2C",
"v  c #35322D",
"b  c #3B342E",
"n  c #3B3224",
"m  c #252D35",
"M  c #2D343A",
"N  c #353435",
"B  c #3A3533",
"V  c #3D3934",
"C  c #3E3D3C",
"Z  c #33383C",
"A  c #492E0C",
"S  c #4A2917",
"D  c #422A1A",
"F  c #4D2D1B",
"G  c #432714",
"H  c #522D1B",
"J  c #562F19",
"K  c #4A351B",
"L  c #473619",
"P  c #53331C",
"I  c #5C331E",
"U  c #523B1C",
"Y  c #563912",
"T  c #4F390F",
"R  c #62361E",
"E  c #422F23",
"W  c #45362B",
"Q  c #453A2A",
"!  c #493827",
"~  c #5B3520",
"^  c #5D3B24",
"/  c #553723",
"(  c #433A32",
")  c #433C3A",
"_  c #4A3C33",
"`  c #513E30",
"'  c #6C3C23",
"]  c #623823",
"[  c #723E23",
"{  c #584716",
"}  c #5B460C",
"|  c #6D540A",
" . c #745A0C",
".. c #614C1C",
"X. c #6A461A",
"o. c #77481A",
"O. c #735210",
"+. c #604704",
"@. c #7B620E",
"#. c #52412C",
"$. c #4C453D",
"%. c #574737",
"&. c #5C523D",
"*. c #6B4227",
"=. c #66412D",
"-. c #764628",
";. c #674B37",
":. c #665738",
">. c #755335",
",. c #765828",
"<. c #786425",
"1. c #1C2D42",
"2. c #122D4B",
"3. c #1D3046",
"4. c #1E3149",
"5. c #082544",
"6. c #212F40",
"7. c #23354C",
"8. c #2B394A",
"9. c #283749",
"0. c #363D46",
"q. c #2B3D52",
"w. c #253A55",
"e. c #3D4147",
"r. c #2E4259",
"t. c #32455B",
"y. c #314154",
"u. c #354B64",
"i. c #394D65",
"p. c #2C526E",
"a. c #3D536B",
"s. c #444344",
"d. c #4B4B4A",
"f. c #484545",
"g. c #554B43",
"h. c #514B49",
"j. c #464E56",
"k. c #535353",
"l. c #5D5D5D",
"z. c #5A5656",
"x. c #5B524E",
"c. c #665648",
"v. c #735C46",
"b. c #645C54",
"n. c #625F5B",
"m. c #695F5A",
"M. c #664E41",
"N. c #786249",
"B. c #796A59",
"V. c #6C6253",
"C. c #485664",
"Z. c #445B74",
"A. c #4D6474",
"S. c #6B6967",
"D. c #746B65",
"F. c #757473",
"G. c #797470",
"H. c #787977",
"J. c #6E7576",
"K. c #82531B",
"L. c #89670B",
"P. c #896D15",
"I. c #97791A",
"U. c #956F18",
"Y. c #A87113",
"T. c #815121",
"R. c #826320",
"E. c #997B2A",
"W. c #9E7836",
"Q. c #897124",
"!. c #88694B",
"~. c #906F46",
"^. c #896E53",
"/. c #846F58",
"(. c #8A735D",
"). c #937454",
"_. c #877668",
"`. c #827D77",
"'. c #927F6C",
"]. c #A87978",
"[. c #BA7878",
"{. c #C66F6F",
"}. c #E37F7F",
"|. c #AB8632",
" X c #C19311",
".X c #9D8257",
"XX c #B09151",
"oX c #998169",
"OX c #8A8279",
"+X c #9A8875",
"@X c #AA8D6C",
"#X c #A58768",
"$X c #BC976B",
"%X c #A58D75",
"&X c #B69A7E",
"*X c #B49779",
"=X c #A5927E",
"-X c #C59D74",
";X c #C1A17E",
":X c #8B8A8A",
">X c #848587",
",X c #958E85",
"<X c #99968D",
"1X c #A89786",
"2X c #B99E82",
"3X c #B69C83",
"4X c #B18382",
"5X c #BBA48C",
"6X c #A6A19B",
"7X c #BFA890",
"8X c #9F9EA0",
"9X c #CBAB88",
"0X c #D6B48E",
"qX c #CBB298",
"wX c #DCBD9D",
"eX c #D2B595",
"rX c #C4AB90",
"tX c #DCBEA0",
"yX c #E1C19E",
"uX c #DCC4AC",
"iX c #E4C4A2",
"pX c #EDCDAB",
"aX c #E8C8A5",
"sX c #F5DABD",
/* pixels */
"                                                                                                                                                                        ",
"                                                                                                                                                                        ",
"                                                                                                                                                                        ",
"                                                                                                                                                                        ",
"                                                                                                                                                                        ",
"                                                                                                                                                                        ",
"                                                                                                                                                                        ",
"                                                                                                                                                                        ",
"                                                                              g p y y y                                                                                 ",
"                                                                          9.i.u.7.d p d d d                                                                             ",
"                                                                      p 3.u.Z.Z.u.7.p t d g g g                                                                         ",
"                                                                  8.g 3.7.3.7.r.a.Z.q.y d g 1.7.9.                                                                      ",
"                                                                q.y.1.4.1.h 1.1.q.a.t.g r f g m 8.                                                                      ",
"                                                              8.w.t l m d 1.1.1.q.j.j.s.l B b.b.0.d                                                                     ",
"                                                              t.4.- B Z M f h 8.b.'.'.D.m._.+X+Xn.C.%                                                                   ",
"                                                              t.7.% k d.h.t 6.s.^.%X/.S.4X4Xl.>X6X:Xy                                                                   ",
"                                                            g q.1.$ % v N y f z.G.G.l.J.{.}.H.:X:Xz.s                                                                   ",
"                                                            7.r.d * % % & d v n.D.G.S.b.].[.S.g.h.V s                                                                   ",
"                                                            M q.p $.$.% $ y ;.;.` %.v.B.+X'.g.M C.u r                                                                   ",
"                                                         .I.N e.l N.oXB r s %.M.$.Z ) /.qX3Xb.A.p.$                                                                     ",
"                                                        @.@.V k.N W ).(.g 2.#.B.:Xp.j.v.aXyX%X6X,XC     w U                                                             ",
"                                                        <.@.{ d.C ; Q @Xs.5.:.#X1XH.,X@X0XaX9XiXsX`.  ; V L                                                             ",
"                                                        P.Q.| { l - $ !.c.i g.-X9XeXwX0X9XyXiXpXsX`.  = k +                                                             ",
"                                                        @.|.} +.@ o k #.N.t Z $XyXpXpXqXrX3X*XaXuX      + ,                                                             ",
"                                                        L.|.q   < ) m.) M.1 m ).0XyXiX5X1X(.oXwX_.        , 9                                                           ",
"                                                          U.q   z D.x.h.b + 2 ` #X9XwXeX5X3X&X1X`         X q                                                           ",
"                                                                ( x.j E 0 3 > 1 ^.@X*X*X&X&X#X5X;.>.l       , K                                                         ",
"                                                                z 8 > G J ' ] > (.*X#X].@X*X&XrX#.v.v       O U                                                         ",
"                                                                @ 6 A Y X.[ [ 3 %.~.W.|.XX$X.X>.E h.k       X U q                                                       ",
"                                                                  E g.;.O.X.>.> 0 ] T.U. XE.X.J #.n 7       = 6                                                         ",
"                                                                  C l.z.U X.W > 4 ] [ o.Y.L.I J *.D e U   5X%.Q                                                         ",
"                                                                  k ( W / J 1 : S S R ] P E x F K F ~ K.R.oX/.5X                                                        ",
"                                                                  @ S ] S > # 2 D S G ` B e.s.f.> 4 I K.W.~.@XeX                                                        ",
"                                                                  : R -.~ * * l v q 4 e E W g.g.  O 3 A ,.v.9X1X                                                        ",
"                                                                  O H [ >.m.b.k n z b n D D ^ E           w v.                                                          ",
"                                                                    , J K.XXqXW 7 v C V B c W c           + K                                                           ",
"                                                                      q K.|.yXoXC S.v j.F.>XOX>.s.      X D U                                                           ",
"                                                                      5 ~.$XyX_.k.OX#.l.`.8X<X<.f.    X 9 U                                                             ",
"                                                                |.T     Q (.@X$.k.V...k.l.k.%.P k   + 0 L                                                               ",
"                                                              Q.I.|     X 8 { #.e.%.{ N z B g.j   + q L                                                                 ",
"                                                               .        X : W b.z.B < + ) S.H.S.* B 8                                                                   ",
"                                                                        o j S.F.S.f.. l l.F.c.M.8 b U                                                                   ",
"                                                                        * C m.;.;.=.1 8 %.' [ ' *.L L                                                                   ",
"                                                                        1 ! ' [ [ ' *.9 H ' ' ' [ !                                                                     ",
"                                                                        = 9 F ] R I / 1 1 3 9 9 3 2                                                                     ",
"                                                                          = 2 1 1 2 ;                                                                                   ",
"                                                                                                                                                                        ",
"                                                                                                                                                                        ",
"                                                                                                                                                                        ",
"                                                                                                                                                                        "
};
