/* XPM */
static char *result[] = {
/* columns rows colors chars-per-pixel */
"32 32 9 1 ",
"  c #252241",
". c #6C2B44",
"X c #96515E",
"o c #BA5C52",
"O c #E1996B",
"+ c #433986",
"@ c #696DB1",
"# c #ADA9C7",
"$ c None",
/* pixels */
"$$$$$$$$$$$$$$$$$$$$$$$$$$$$$$$$",
"$$$$$$$$$$$$$$$$$$$$$$$$$$$$$$$$",
"$$$$$$$$$$$$$$$$$$$$$$$$$$$$$$$$",
"$$$$$$$$$$$$$$$$$$$$$$$$$$$$$$$$",
"$$$$$$$$$$$$$$$$$$$$$$$$$$$$$$$$",
"$$$$$$$$$$$$$$$$$$$$$$$$$$$$$$$$",
"$$$$$$$$$$$$$$$$$$$$$$$$$$$$$$$$",
"$$$$$$$$$$$$$$$$$$$$$$$$$$$$$$$$",
"$$$$$   $$$$$$$$$$$$$$$   $$$$$$",
"$$$$ +@                 @@ $$$$$",
"$$$$ @@  .XX.XXXXX.XX.  @@ $$$$$",
"$$$$ ## .OOOoOOOOOoOOO. ## $$$$$",
"$$$$ ## .OOOoOOOOOoOOO. ## $$$$$",
"$$$$ @@ .XXX.XXXXX.XXX. @@ $$$$$",
"$$$$ @@  .....   .....  @@ $$$$$",
"$$$$ @@       @##       @@ $$$$$",
"$$$$ @@   ++@ @## @++   @@ $$$$$",
"$$$$      ++@ +#+ @++      $$$$$",
"$$$$ ++       +++       ++ $$$$$",
"$$$$ ++ ....X.   .X.... ++ $$$$$",
"$$$$ ++ ....X.....X.... ++ $$$$$",
"$$$$ ++  ...X.....X...  ++ $$$$$",
"$$$$                       $$$$$",
"$$$$$$$$$$$$$$$$$$$$$$$$$$$$$$$$",
"$$$$$$$$$$$$$$$$$$$$$$$$$$$$$$$$",
"$$$$$$$$$$$$$$$$$$$$$$$$$$$$$$$$",
"$$$$$$$$$$$$$$$$$$$$$$$$$$$$$$$$",
"$$$$$$$$$$$$$$$$$$$$$$$$$$$$$$$$",
"$$$$$$$$$$$$$$$$$$$$$$$$$$$$$$$$",
"$$$$$$$$$$$$$$$$$$$$$$$$$$$$$$$$",
"$$$$$$$$$$$$$$$$$$$$$$$$$$$$$$$$",
"$$$$$$$$$$$$$$$$$$$$$$$$$$$$$$$$"
};
