/* XPM */
static char *result[] = {
/* columns rows colors chars-per-pixel */
"50 50 63 1 ",
"  c #262446",
". c #27264B",
"X c #28274D",
"o c #27284E",
"O c #28284E",
"+ c #272950",
"@ c #292A54",
"# c #2B2D5B",
"$ c #302E5F",
"% c #2C3156",
"& c #2C325C",
"* c #2F385C",
"= c #30375A",
"- c #2F2F60",
"; c #302F62",
": c #2D3263",
"> c #2F3962",
", c #2E3A6B",
"< c #333165",
"1 c #323B65",
"2 c #35326B",
"3 c #38336F",
"4 c #323D6B",
"5 c #383A6E",
"6 c #2F3D71",
"7 c #363570",
"8 c #3B3674",
"9 c #3B3B75",
"0 c #3D3779",
"q c #3E387B",
"w c #413A7E",
"e c #34436C",
"r c #38456E",
"t c #36486F",
"y c #334373",
"u c #394473",
"i c #364A73",
"p c #394C75",
"a c #33467A",
"s c #3E427A",
"d c #354A7B",
"f c #394E7B",
"g c #3C537D",
"h c #443C84",
"j c #364C81",
"k c #3F4C82",
"l c #3B5484",
"z c #3E5A84",
"x c #3A558D",
"c c #3D5B89",
"v c #3E5C91",
"b c #404C81",
"n c #405582",
"m c #435A8C",
"M c #446393",
"N c #43669D",
"B c #456A9D",
"V c #4367A0",
"C c #466CA3",
"Z c #4B77B0",
"A c #5487C0",
"S c #558CC5",
"D c #578FC8",
/* pixels */
"hhhhhhhhhhhhhhhwwrripgi,>#&%&egMmk880whhhhhhhhhhhh",
"hhhhhhhhhhhhhhhw951eey4>#@@@%1tfps880hhhhhhhhhhhhh",
"hhhhhhhhhhhhhhhw5<&&*>&@....o&*,33330whhhhhhhhhhhh",
"hhhhhhhhhhhhhhhw3<@@@@OX  ..o@@&;233qhhhhhhhhhhhhh",
"hhhhhhhhhhhhhhhhw<$$@@OX  ..@@@#;3wwwwhhhhhhhhhhhh",
"hhhhhhhhhhhhhhhhw32$$@+X  .o@##<<2wwhhhhhhhhhhhhhh",
"hhhhhhhhhhhhhhhhw332$#+X  .@##;<2wwhhhhhhhhhhhhhhh",
"hhhhhhhhhhhhhhhhww52$@++...@+#-23wwhhhhhhhhhhhhhhh",
"hhhhhhhhhhhhhhhhwq87:@@+oo+o@#-23wwhhhhhhhhhhhhhhh",
"hhhhhhhhhhhhhhhhwq02-@++##+o.@-2<wwwhhhhhhhhhhhhhh",
"hhhhhhhhhhhhhhhhwq02-@@:::@+.#-7wwwhhhhhhhhhhhhhhh",
"hhhhhhhhhhhhhhhhw072-@&:,6,#@--2wwwhhhhhhhhhhhhhhh",
"hhhhhhhhhhhhhhhhq072:#:6jj66:---w$wwhhhhhhhhhhhhhh",
"hhhhhhhhhhhhhhhhq07;:#,axxj6::--$wwwhhhhhhhhhhhhhh",
"hhhhhhhhhhhhhhhh0832-#,xVVx6:---$whhhhhhhhhhhhhhhh",
"hhhbhhhhhhhhhhhhq83<:#yvZZvj:--#wwhhhhhhhhhhhhhhhh",
"hhhhhhhhhhhhhhhhq03<-#aNASCj,:#-$wwwwhhhhhhhhhhhhh",
"hhhhhhhhhhhhhhhwq03<:#dCSSCj,:--$wwwhhhhhhhhhhhhhh",
"hhhhhhhhhhhhhhhwq33<:#dCSDCj:--#<wwhhhhhhhhhhhhhhh",
"hhhhhhhhhhhhhhhhq03<-#dVDDCj:-;;$wwhhhhhhhhhhhhhhh",
"hhhhhhhhhhhhhhhwq032$#jVAAVj:::-2wwwhhhhhhhhhhhhhh",
"hhhhhhhhhhhhhhhh0032-#6xZZvj::--28wwhhhhhhhhhhhhhh",
"hhhhhhhhhhhhhhhw003;--,xVVx6::--;8whhhhhhhhhhhhbhh",
"hhhhhhhhhhhhhhhh0032-#:axxj6:;-;28whhhhhhhhhhhhhhh",
"hhhhhhhhhhhhhhhhq072:#:yjj6,:--:78hhhhhhhhhhhhhhhh",
"hhhhhhhhhhhhhhhhw082-@#:66::+-::70hhhhhhhhhhhhhhhh",
"hhhhhhhhhhhhhhhhwq82-@##::#+o#;77qwhhhhhhhhhhhhhhh",
"hhhhhhhhhhhhhhhhq072##@#-@@+o#-288whhhhhhhhhhhhhhh",
"hhhhhhhhhhhhhhhw073;##+@o@@@+#--28qhhhhhhhhhhhhhhh",
"hhhhhhhhhhhhhhhw03;-##@o..o@###-<39whhhhhhhhhhhhhh",
"hhhhhhhhhhhhhhhww2;<*&%O..O@#&--288hhhhhhhhhhhhhhh",
"hhhhhhhhhhhhhhww9911111&Oo@@&:4y9080hhhhhhhhhhhhhb",
"hbhhhhhhhhhhhhhhwr1rrre=#+@%%etnnswwwwwhhhhhhhhhhh",
"hhhhhhhhhhhhhhhhsurpggp4&#@%=tgMmbw<wwhhhhhhhhhhhh",
"hhhhhhhhhhhhhhhhsutpggp4:#=$*tgMmbw=8whhhhhhhhhhhh",
"hhhhhhhhhhhhhhhhsuipggpr<#&%*izMmpwwwwhhhhhhhhhhhh",
"hhhhhhhhhhhhhhhbspipglj6:&&&*izBmn980whhhhhhhhhhhh",
"hhhhhhhhhhhhhhhh9eeuify::#%%%efcns980hhhhhhhhhhhhh",
"hhhhhhhhhhhhhhhh94>>e,2-@o@@%*eap998wwhhhhhhhhhhhh",
"hhhhhhhhhhhhhhhw8<&&&%@+...oo%#>2579wwhhhhhhhhhhhh",
"hhhhhhhhhhhhhhhw3<##@@+X  .o+#+-$23whhhhhhhhhhhhhh",
"hhhhhhhhhhhhhhhw02;-##+X  .o++--;2wwhhhhhhhhhhhhhh",
"hhhhhhhhhhhhhhhh007:-@+X  .++-;;38whhhhhhhhhhhhhhh",
"hhhhhhhhhhhhhhhhw072-++X  +++#;23whhhhhhhhhhhhhhhh",
"hhhhhhhhhhhhhhhhwq02:@++oooo+#;280hhhhhhhhhhhhhhhh",
"hhhhhhhhhhhhhhhwwq02-#++@@+oX#;380qhhhhhhhhhhhhhhh",
"hhhhhhhhhhhhhhhhww02-++##-@o.@:28qhhhhhhhhhhhhhhhh",
"hhhhhhhhhhhhhhhhwq72-@@:,::@+#-770whhhhhhhhhhhhhhh",
"hhhhhhhhhhhhhhhhhw3;$@;26j,-#--:70whhhhhhhhhhhhhhh",
"hhhhhhhhhhhhhhhhwww<$@,ylla,::--20whhhhhhhhhhhhhhh"
};
